{
  "accessors": [
    {
      "bufferView": 2,
      "componentType": 5126,
      "count": 72,
      "max": [
        0.5,
        0.5000002384185791,
        0.5147029161453247
      ],
      "min": [
        -0.5,
        -0.7313063740730286,
        -0.5
      ],
      "type": "VEC3"
    },
    {
      "bufferView": 2,
      "byteOffset": 864,
      "componentType": 5126,
      "count": 72,
      "max": [
        0.9931632876396179,
        1.0,
        1.0
      ],
      "min": [
        -0.9931632876396179,
        -1.0,
        -1.0
      ],
      "type": "VEC3"
    },
    {
      "bufferView": 1,
      "componentType": 5126,
      "count": 72,
      "max": [
        0.9821756482124329,
        0.99790358543396
      ],
      "min": [
        0.0132802315056324,
        0.008579973131418228
      ],
      "type": "VEC2"
    },
    {
      "bufferView": 0,
      "componentType": 5125,
      "count": 132,
      "type": "SCALAR"
    },
    {
      "bufferView": 2,
      "byteOffset": 1728,
      "componentType": 5126,
      "count": 72,
      "max": [
        0.5,
        0.5000002384185791,
        0.5147029161453247
      ],
      "min": [
        -0.5,
        -0.7313063740730286,
        -0.5
      ],
      "type": "VEC3"
    },
    {
      "bufferView": 2,
      "byteOffset": 2592,
      "componentType": 5126,
      "count": 72,
      "max": [
        0.9931632876396179,
        1.0,
        1.0
      ],
      "min": [
        -0.9931632876396179,
        -1.0,
        -1.0
      ],
      "type": "VEC3"
    },
    {
      "bufferView": 1,
      "byteOffset": 576,
      "componentType": 5126,
      "count": 72,
      "max": [
        0.9821756482124329,
        0.99790358543396
      ],
      "min": [
        0.0132802315056324,
        0.008579973131418228
      ],
      "type": "VEC2"
    },
    {
      "bufferView": 0,
      "byteOffset": 528,
      "componentType": 5125,
      "count": 132,
      "type": "SCALAR"
    },
    {
      "bufferView": 2,
      "byteOffset": 3456,
      "componentType": 5126,
      "count": 72,
      "max": [
        0.5,
        0.5000002384185791,
        0.5147029161453247
      ],
      "min": [
        -0.5,
        -0.7313063740730286,
        -0.5
      ],
      "type": "VEC3"
    },
    {
      "bufferView": 2,
      "byteOffset": 4320,
      "componentType": 5126,
      "count": 72,
      "max": [
        0.9931632876396179,
        1.0,
        1.0
      ],
      "min": [
        -0.9931632876396179,
        -1.0,
        -1.0
      ],
      "type": "VEC3"
    },
    {
      "bufferView": 1,
      "byteOffset": 1152,
      "componentType": 5126,
      "count": 72,
      "max": [
        0.9821756482124329,
        0.99790358543396
      ],
      "min": [
        0.0132802315056324,
        0.008579973131418228
      ],
      "type": "VEC2"
    },
    {
      "bufferView": 0,
      "byteOffset": 1056,
      "componentType": 5125,
      "count": 132,
      "type": "SCALAR"
    },
    {
      "bufferView": 2,
      "byteOffset": 5184,
      "componentType": 5126,
      "count": 152,
      "max": [
        0.5,
        0.5202900767326355,
        0.5283923745155334
      ],
      "min": [
        -0.5,
        -0.5,
        -0.5232301354408264
      ],
      "type": "VEC3"
    },
    {
      "bufferView": 2,
      "byteOffset": 7008,
      "componentType": 5126,
      "count": 152,
      "max": [
        1.0,
        1.0,
        1.0
      ],
      "min": [
        -1.0,
        -1.0,
        -1.0
      ],
      "type": "VEC3"
    },
    {
      "bufferView": 1,
      "byteOffset": 1728,
      "componentType": 5126,
      "count": 152,
      "max": [
        0.9187682867050171,
        0.9980080723762512
      ],
      "min": [
        0.0018338689114898443,
        0.00199203216470778
      ],
      "type": "VEC2"
    },
    {
      "bufferView": 0,
      "byteOffset": 1584,
      "componentType": 5125,
      "count": 324,
      "type": "SCALAR"
    },
    {
      "bufferView": 2,
      "byteOffset": 8832,
      "componentType": 5126,
      "count": 72,
      "max": [
        0.5,
        0.5000002384185791,
        0.5147029161453247
      ],
      "min": [
        -0.5,
        -0.7313063740730286,
        -0.5
      ],
      "type": "VEC3"
    },
    {
      "bufferView": 2,
      "byteOffset": 9696,
      "componentType": 5126,
      "count": 72,
      "max": [
        0.9931632876396179,
        1.0,
        1.0
      ],
      "min": [
        -0.9931632876396179,
        -1.0,
        -1.0
      ],
      "type": "VEC3"
    },
    {
      "bufferView": 1,
      "byteOffset": 2944,
      "componentType": 5126,
      "count": 72,
      "max": [
        0.9821756482124329,
        0.99790358543396
      ],
      "min": [
        0.0132802315056324,
        0.008579973131418228
      ],
      "type": "VEC2"
    },
    {
      "bufferView": 0,
      "byteOffset": 2880,
      "componentType": 5125,
      "count": 132,
      "type": "SCALAR"
    },
    {
      "bufferView": 2,
      "byteOffset": 10560,
      "componentType": 5126,
      "count": 72,
      "max": [
        0.5,
        0.5000002384185791,
        0.5147029161453247
      ],
      "min": [
        -0.5,
        -0.7313063740730286,
        -0.5
      ],
      "type": "VEC3"
    },
    {
      "bufferView": 2,
      "byteOffset": 11424,
      "componentType": 5126,
      "count": 72,
      "max": [
        0.9931632876396179,
        1.0,
        1.0
      ],
      "min": [
        -0.9931632876396179,
        -1.0,
        -1.0
      ],
      "type": "VEC3"
    },
    {
      "bufferView": 1,
      "byteOffset": 3520,
      "componentType": 5126,
      "count": 72,
      "max": [
        0.9821756482124329,
        0.99790358543396
      ],
      "min": [
        0.0132802315056324,
        0.008579973131418228
      ],
      "type": "VEC2"
    },
    {
      "bufferView": 0,
      "byteOffset": 3408,
      "componentType": 5125,
      "count": 132,
      "type": "SCALAR"
    },
    {
      "bufferView": 2,
      "byteOffset": 12288,
      "componentType": 5126,
      "count": 72,
      "max": [
        0.5,
        0.5000002384185791,
        0.5147029161453247
      ],
      "min": [
        -0.5,
        -0.7313063740730286,
        -0.5
      ],
      "type": "VEC3"
    },
    {
      "bufferView": 2,
      "byteOffset": 13152,
      "componentType": 5126,
      "count": 72,
      "max": [
        0.9931632876396179,
        1.0,
        1.0
      ],
      "min": [
        -0.9931632876396179,
        -1.0,
        -1.0
      ],
      "type": "VEC3"
    },
    {
      "bufferView": 1,
      "byteOffset": 4096,
      "componentType": 5126,
      "count": 72,
      "max": [
        0.9821756482124329,
        0.99790358543396
      ],
      "min": [
        0.0132802315056324,
        0.008579973131418228
      ],
      "type": "VEC2"
    },
    {
      "bufferView": 0,
      "byteOffset": 3936,
      "componentType": 5125,
      "count": 132,
      "type": "SCALAR"
    },
    {
      "bufferView": 2,
      "byteOffset": 14016,
      "componentType": 5126,
      "count": 72,
      "max": [
        0.5,
        0.5000002384185791,
        0.5147029161453247
      ],
      "min": [
        -0.5,
        -0.7313063740730286,
        -0.5
      ],
      "type": "VEC3"
    },
    {
      "bufferView": 2,
      "byteOffset": 14880,
      "componentType": 5126,
      "count": 72,
      "max": [
        0.9931632876396179,
        1.0,
        1.0
      ],
      "min": [
        -0.9931632876396179,
        -1.0,
        -1.0
      ],
      "type": "VEC3"
    },
    {
      "bufferView": 1,
      "byteOffset": 4672,
      "componentType": 5126,
      "count": 72,
      "max": [
        0.9821756482124329,
        0.99790358543396
      ],
      "min": [
        0.0132802315056324,
        0.008579973131418228
      ],
      "type": "VEC2"
    },
    {
      "bufferView": 0,
      "byteOffset": 4464,
      "componentType": 5125,
      "count": 132,
      "type": "SCALAR"
    },
    {
      "bufferView": 2,
      "byteOffset": 15744,
      "componentType": 5126,
      "count": 72,
      "max": [
        0.5,
        0.5000002384185791,
        0.5147029161453247
      ],
      "min": [
        -0.5,
        -0.7313063740730286,
        -0.5
      ],
      "type": "VEC3"
    },
    {
      "bufferView": 2,
      "byteOffset": 16608,
      "componentType": 5126,
      "count": 72,
      "max": [
        0.9931632876396179,
        1.0,
        1.0
      ],
      "min": [
        -0.9931632876396179,
        -1.0,
        -1.0
      ],
      "type": "VEC3"
    },
    {
      "bufferView": 1,
      "byteOffset": 5248,
      "componentType": 5126,
      "count": 72,
      "max": [
        0.9821756482124329,
        0.99790358543396
      ],
      "min": [
        0.0132802315056324,
        0.008579973131418228
      ],
      "type": "VEC2"
    },
    {
      "bufferView": 0,
      "byteOffset": 4992,
      "componentType": 5125,
      "count": 132,
      "type": "SCALAR"
    },
    {
      "bufferView": 2,
      "byteOffset": 17472,
      "componentType": 5126,
      "count": 72,
      "max": [
        0.5,
        0.5000002384185791,
        0.5147029161453247
      ],
      "min": [
        -0.5,
        -0.7313063740730286,
        -0.5
      ],
      "type": "VEC3"
    },
    {
      "bufferView": 2,
      "byteOffset": 18336,
      "componentType": 5126,
      "count": 72,
      "max": [
        0.9931632876396179,
        1.0,
        1.0
      ],
      "min": [
        -0.9931632876396179,
        -1.0,
        -1.0
      ],
      "type": "VEC3"
    },
    {
      "bufferView": 1,
      "byteOffset": 5824,
      "componentType": 5126,
      "count": 72,
      "max": [
        0.9821756482124329,
        0.99790358543396
      ],
      "min": [
        0.0132802315056324,
        0.008579973131418228
      ],
      "type": "VEC2"
    },
    {
      "bufferView": 0,
      "byteOffset": 5520,
      "componentType": 5125,
      "count": 132,
      "type": "SCALAR"
    },
    {
      "bufferView": 2,
      "byteOffset": 19200,
      "componentType": 5126,
      "count": 72,
      "max": [
        0.5,
        0.5000002384185791,
        0.5147029161453247
      ],
      "min": [
        -0.5,
        -0.7313063740730286,
        -0.5
      ],
      "type": "VEC3"
    },
    {
      "bufferView": 2,
      "byteOffset": 20064,
      "componentType": 5126,
      "count": 72,
      "max": [
        0.9931632876396179,
        1.0,
        1.0
      ],
      "min": [
        -0.9931632876396179,
        -1.0,
        -1.0
      ],
      "type": "VEC3"
    },
    {
      "bufferView": 1,
      "byteOffset": 6400,
      "componentType": 5126,
      "count": 72,
      "max": [
        0.9821756482124329,
        0.99790358543396
      ],
      "min": [
        0.0132802315056324,
        0.008579973131418228
      ],
      "type": "VEC2"
    },
    {
      "bufferView": 0,
      "byteOffset": 6048,
      "componentType": 5125,
      "count": 132,
      "type": "SCALAR"
    },
    {
      "bufferView": 2,
      "byteOffset": 20928,
      "componentType": 5126,
      "count": 72,
      "max": [
        0.5,
        0.5000002384185791,
        0.5147029161453247
      ],
      "min": [
        -0.5,
        -0.7313063740730286,
        -0.5
      ],
      "type": "VEC3"
    },
    {
      "bufferView": 2,
      "byteOffset": 21792,
      "componentType": 5126,
      "count": 72,
      "max": [
        0.9931632876396179,
        1.0,
        1.0
      ],
      "min": [
        -0.9931632876396179,
        -1.0,
        -1.0
      ],
      "type": "VEC3"
    },
    {
      "bufferView": 1,
      "byteOffset": 6976,
      "componentType": 5126,
      "count": 72,
      "max": [
        0.9821756482124329,
        0.99790358543396
      ],
      "min": [
        0.0132802315056324,
        0.008579973131418228
      ],
      "type": "VEC2"
    },
    {
      "bufferView": 0,
      "byteOffset": 6576,
      "componentType": 5125,
      "count": 132,
      "type": "SCALAR"
    },
    {
      "bufferView": 2,
      "byteOffset": 22656,
      "componentType": 5126,
      "count": 72,
      "max": [
        0.5,
        0.5000002384185791,
        0.5147029161453247
      ],
      "min": [
        -0.5,
        -0.7313063740730286,
        -0.5
      ],
      "type": "VEC3"
    },
    {
      "bufferView": 2,
      "byteOffset": 23520,
      "componentType": 5126,
      "count": 72,
      "max": [
        0.9931632876396179,
        1.0,
        1.0
      ],
      "min": [
        -0.9931632876396179,
        -1.0,
        -1.0
      ],
      "type": "VEC3"
    },
    {
      "bufferView": 1,
      "byteOffset": 7552,
      "componentType": 5126,
      "count": 72,
      "max": [
        0.9821756482124329,
        0.99790358543396
      ],
      "min": [
        0.0132802315056324,
        0.008579973131418228
      ],
      "type": "VEC2"
    },
    {
      "bufferView": 0,
      "byteOffset": 7104,
      "componentType": 5125,
      "count": 132,
      "type": "SCALAR"
    },
    {
      "bufferView": 2,
      "byteOffset": 24384,
      "componentType": 5126,
      "count": 72,
      "max": [
        0.5,
        0.5000002384185791,
        0.5147029161453247
      ],
      "min": [
        -0.5,
        -0.7313063740730286,
        -0.5
      ],
      "type": "VEC3"
    },
    {
      "bufferView": 2,
      "byteOffset": 25248,
      "componentType": 5126,
      "count": 72,
      "max": [
        0.9931632876396179,
        1.0,
        1.0
      ],
      "min": [
        -0.9931632876396179,
        -1.0,
        -1.0
      ],
      "type": "VEC3"
    },
    {
      "bufferView": 1,
      "byteOffset": 8128,
      "componentType": 5126,
      "count": 72,
      "max": [
        0.9821756482124329,
        0.99790358543396
      ],
      "min": [
        0.0132802315056324,
        0.008579973131418228
      ],
      "type": "VEC2"
    },
    {
      "bufferView": 0,
      "byteOffset": 7632,
      "componentType": 5125,
      "count": 132,
      "type": "SCALAR"
    },
    {
      "bufferView": 2,
      "byteOffset": 26112,
      "componentType": 5126,
      "count": 72,
      "max": [
        0.5,
        0.5000002384185791,
        0.5147029161453247
      ],
      "min": [
        -0.5,
        -0.7313063740730286,
        -0.5
      ],
      "type": "VEC3"
    },
    {
      "bufferView": 2,
      "byteOffset": 26976,
      "componentType": 5126,
      "count": 72,
      "max": [
        0.9931632876396179,
        1.0,
        1.0
      ],
      "min": [
        -0.9931632876396179,
        -1.0,
        -1.0
      ],
      "type": "VEC3"
    },
    {
      "bufferView": 1,
      "byteOffset": 8704,
      "componentType": 5126,
      "count": 72,
      "max": [
        0.9821756482124329,
        0.99790358543396
      ],
      "min": [
        0.0132802315056324,
        0.008579973131418228
      ],
      "type": "VEC2"
    },
    {
      "bufferView": 0,
      "byteOffset": 8160,
      "componentType": 5125,
      "count": 132,
      "type": "SCALAR"
    },
    {
      "bufferView": 2,
      "byteOffset": 27840,
      "componentType": 5126,
      "count": 72,
      "max": [
        0.5,
        0.5000002384185791,
        0.5147029161453247
      ],
      "min": [
        -0.5,
        -0.7313063740730286,
        -0.5
      ],
      "type": "VEC3"
    },
    {
      "bufferView": 2,
      "byteOffset": 28704,
      "componentType": 5126,
      "count": 72,
      "max": [
        0.9931632876396179,
        1.0,
        1.0
      ],
      "min": [
        -0.9931632876396179,
        -1.0,
        -1.0
      ],
      "type": "VEC3"
    },
    {
      "bufferView": 1,
      "byteOffset": 9280,
      "componentType": 5126,
      "count": 72,
      "max": [
        0.9821756482124329,
        0.99790358543396
      ],
      "min": [
        0.0132802315056324,
        0.008579973131418228
      ],
      "type": "VEC2"
    },
    {
      "bufferView": 0,
      "byteOffset": 8688,
      "componentType": 5125,
      "count": 132,
      "type": "SCALAR"
    },
    {
      "bufferView": 2,
      "byteOffset": 29568,
      "componentType": 5126,
      "count": 72,
      "max": [
        0.5,
        0.5000002384185791,
        0.5147029161453247
      ],
      "min": [
        -0.5,
        -0.7313063740730286,
        -0.5
      ],
      "type": "VEC3"
    },
    {
      "bufferView": 2,
      "byteOffset": 30432,
      "componentType": 5126,
      "count": 72,
      "max": [
        0.9931632876396179,
        1.0,
        1.0
      ],
      "min": [
        -0.9931632876396179,
        -1.0,
        -1.0
      ],
      "type": "VEC3"
    },
    {
      "bufferView": 1,
      "byteOffset": 9856,
      "componentType": 5126,
      "count": 72,
      "max": [
        0.9821756482124329,
        0.99790358543396
      ],
      "min": [
        0.0132802315056324,
        0.008579973131418228
      ],
      "type": "VEC2"
    },
    {
      "bufferView": 0,
      "byteOffset": 9216,
      "componentType": 5125,
      "count": 132,
      "type": "SCALAR"
    },
    {
      "bufferView": 2,
      "byteOffset": 31296,
      "componentType": 5126,
      "count": 72,
      "max": [
        0.5,
        0.5000002384185791,
        0.5147029161453247
      ],
      "min": [
        -0.5,
        -0.7313063740730286,
        -0.5
      ],
      "type": "VEC3"
    },
    {
      "bufferView": 2,
      "byteOffset": 32160,
      "componentType": 5126,
      "count": 72,
      "max": [
        0.9931632876396179,
        1.0,
        1.0
      ],
      "min": [
        -0.9931632876396179,
        -1.0,
        -1.0
      ],
      "type": "VEC3"
    },
    {
      "bufferView": 1,
      "byteOffset": 10432,
      "componentType": 5126,
      "count": 72,
      "max": [
        0.9821756482124329,
        0.99790358543396
      ],
      "min": [
        0.0132802315056324,
        0.008579973131418228
      ],
      "type": "VEC2"
    },
    {
      "bufferView": 0,
      "byteOffset": 9744,
      "componentType": 5125,
      "count": 132,
      "type": "SCALAR"
    },
    {
      "bufferView": 2,
      "byteOffset": 33024,
      "componentType": 5126,
      "count": 72,
      "max": [
        0.5,
        0.5000002384185791,
        0.5147029161453247
      ],
      "min": [
        -0.5,
        -0.7313063740730286,
        -0.5
      ],
      "type": "VEC3"
    },
    {
      "bufferView": 2,
      "byteOffset": 33888,
      "componentType": 5126,
      "count": 72,
      "max": [
        0.9931632876396179,
        1.0,
        1.0
      ],
      "min": [
        -0.9931632876396179,
        -1.0,
        -1.0
      ],
      "type": "VEC3"
    },
    {
      "bufferView": 1,
      "byteOffset": 11008,
      "componentType": 5126,
      "count": 72,
      "max": [
        0.9821756482124329,
        0.99790358543396
      ],
      "min": [
        0.0132802315056324,
        0.008579973131418228
      ],
      "type": "VEC2"
    },
    {
      "bufferView": 0,
      "byteOffset": 10272,
      "componentType": 5125,
      "count": 132,
      "type": "SCALAR"
    },
    {
      "bufferView": 2,
      "byteOffset": 34752,
      "componentType": 5126,
      "count": 72,
      "max": [
        0.5,
        0.5000002384185791,
        0.5147029161453247
      ],
      "min": [
        -0.5,
        -0.7313063740730286,
        -0.5
      ],
      "type": "VEC3"
    },
    {
      "bufferView": 2,
      "byteOffset": 35616,
      "componentType": 5126,
      "count": 72,
      "max": [
        0.9931632876396179,
        1.0,
        1.0
      ],
      "min": [
        -0.9931632876396179,
        -1.0,
        -1.0
      ],
      "type": "VEC3"
    },
    {
      "bufferView": 1,
      "byteOffset": 11584,
      "componentType": 5126,
      "count": 72,
      "max": [
        0.9821756482124329,
        0.99790358543396
      ],
      "min": [
        0.0132802315056324,
        0.008579973131418228
      ],
      "type": "VEC2"
    },
    {
      "bufferView": 0,
      "byteOffset": 10800,
      "componentType": 5125,
      "count": 132,
      "type": "SCALAR"
    },
    {
      "bufferView": 2,
      "byteOffset": 36480,
      "componentType": 5126,
      "count": 72,
      "max": [
        0.5,
        0.5000002384185791,
        0.5147029161453247
      ],
      "min": [
        -0.5,
        -0.7313063740730286,
        -0.5
      ],
      "type": "VEC3"
    },
    {
      "bufferView": 2,
      "byteOffset": 37344,
      "componentType": 5126,
      "count": 72,
      "max": [
        0.9931632876396179,
        1.0,
        1.0
      ],
      "min": [
        -0.9931632876396179,
        -1.0,
        -1.0
      ],
      "type": "VEC3"
    },
    {
      "bufferView": 1,
      "byteOffset": 12160,
      "componentType": 5126,
      "count": 72,
      "max": [
        0.9821756482124329,
        0.99790358543396
      ],
      "min": [
        0.0132802315056324,
        0.008579973131418228
      ],
      "type": "VEC2"
    },
    {
      "bufferView": 0,
      "byteOffset": 11328,
      "componentType": 5125,
      "count": 132,
      "type": "SCALAR"
    },
    {
      "bufferView": 2,
      "byteOffset": 38208,
      "componentType": 5126,
      "count": 72,
      "max": [
        0.5,
        0.5000002384185791,
        0.5147029161453247
      ],
      "min": [
        -0.5,
        -0.7313063740730286,
        -0.5
      ],
      "type": "VEC3"
    },
    {
      "bufferView": 2,
      "byteOffset": 39072,
      "componentType": 5126,
      "count": 72,
      "max": [
        0.9931632876396179,
        1.0,
        1.0
      ],
      "min": [
        -0.9931632876396179,
        -1.0,
        -1.0
      ],
      "type": "VEC3"
    },
    {
      "bufferView": 1,
      "byteOffset": 12736,
      "componentType": 5126,
      "count": 72,
      "max": [
        0.9821756482124329,
        0.99790358543396
      ],
      "min": [
        0.0132802315056324,
        0.008579973131418228
      ],
      "type": "VEC2"
    },
    {
      "bufferView": 0,
      "byteOffset": 11856,
      "componentType": 5125,
      "count": 132,
      "type": "SCALAR"
    },
    {
      "bufferView": 2,
      "byteOffset": 39936,
      "componentType": 5126,
      "count": 72,
      "max": [
        0.5,
        0.5000002384185791,
        0.5147029161453247
      ],
      "min": [
        -0.5,
        -0.7313063740730286,
        -0.5
      ],
      "type": "VEC3"
    },
    {
      "bufferView": 2,
      "byteOffset": 40800,
      "componentType": 5126,
      "count": 72,
      "max": [
        0.9931632876396179,
        1.0,
        1.0
      ],
      "min": [
        -0.9931632876396179,
        -1.0,
        -1.0
      ],
      "type": "VEC3"
    },
    {
      "bufferView": 1,
      "byteOffset": 13312,
      "componentType": 5126,
      "count": 72,
      "max": [
        0.9821756482124329,
        0.99790358543396
      ],
      "min": [
        0.0132802315056324,
        0.008579973131418228
      ],
      "type": "VEC2"
    },
    {
      "bufferView": 0,
      "byteOffset": 12384,
      "componentType": 5125,
      "count": 132,
      "type": "SCALAR"
    },
    {
      "bufferView": 2,
      "byteOffset": 41664,
      "componentType": 5126,
      "count": 72,
      "max": [
        0.5,
        0.5000002384185791,
        0.5147029161453247
      ],
      "min": [
        -0.5,
        -0.7313063740730286,
        -0.5
      ],
      "type": "VEC3"
    },
    {
      "bufferView": 2,
      "byteOffset": 42528,
      "componentType": 5126,
      "count": 72,
      "max": [
        0.9931632876396179,
        1.0,
        1.0
      ],
      "min": [
        -0.9931632876396179,
        -1.0,
        -1.0
      ],
      "type": "VEC3"
    },
    {
      "bufferView": 1,
      "byteOffset": 13888,
      "componentType": 5126,
      "count": 72,
      "max": [
        0.9821756482124329,
        0.99790358543396
      ],
      "min": [
        0.0132802315056324,
        0.008579973131418228
      ],
      "type": "VEC2"
    },
    {
      "bufferView": 0,
      "byteOffset": 12912,
      "componentType": 5125,
      "count": 132,
      "type": "SCALAR"
    },
    {
      "bufferView": 2,
      "byteOffset": 43392,
      "componentType": 5126,
      "count": 72,
      "max": [
        0.5,
        0.5000002384185791,
        0.5147029161453247
      ],
      "min": [
        -0.5,
        -0.7313063740730286,
        -0.5
      ],
      "type": "VEC3"
    },
    {
      "bufferView": 2,
      "byteOffset": 44256,
      "componentType": 5126,
      "count": 72,
      "max": [
        0.9931632876396179,
        1.0,
        1.0
      ],
      "min": [
        -0.9931632876396179,
        -1.0,
        -1.0
      ],
      "type": "VEC3"
    },
    {
      "bufferView": 1,
      "byteOffset": 14464,
      "componentType": 5126,
      "count": 72,
      "max": [
        0.9821756482124329,
        0.99790358543396
      ],
      "min": [
        0.0132802315056324,
        0.008579973131418228
      ],
      "type": "VEC2"
    },
    {
      "bufferView": 0,
      "byteOffset": 13440,
      "componentType": 5125,
      "count": 132,
      "type": "SCALAR"
    },
    {
      "bufferView": 2,
      "byteOffset": 45120,
      "componentType": 5126,
      "count": 72,
      "max": [
        0.5,
        0.5000002384185791,
        0.5147029161453247
      ],
      "min": [
        -0.5,
        -0.7313063740730286,
        -0.5
      ],
      "type": "VEC3"
    },
    {
      "bufferView": 2,
      "byteOffset": 45984,
      "componentType": 5126,
      "count": 72,
      "max": [
        0.9931632876396179,
        1.0,
        1.0
      ],
      "min": [
        -0.9931632876396179,
        -1.0,
        -1.0
      ],
      "type": "VEC3"
    },
    {
      "bufferView": 1,
      "byteOffset": 15040,
      "componentType": 5126,
      "count": 72,
      "max": [
        0.9821756482124329,
        0.99790358543396
      ],
      "min": [
        0.0132802315056324,
        0.008579973131418228
      ],
      "type": "VEC2"
    },
    {
      "bufferView": 0,
      "byteOffset": 13968,
      "componentType": 5125,
      "count": 132,
      "type": "SCALAR"
    },
    {
      "bufferView": 2,
      "byteOffset": 46848,
      "componentType": 5126,
      "count": 72,
      "max": [
        0.5,
        0.5000002384185791,
        0.5147029161453247
      ],
      "min": [
        -0.5,
        -0.7313063740730286,
        -0.5
      ],
      "type": "VEC3"
    },
    {
      "bufferView": 2,
      "byteOffset": 47712,
      "componentType": 5126,
      "count": 72,
      "max": [
        0.9931632876396179,
        1.0,
        1.0
      ],
      "min": [
        -0.9931632876396179,
        -1.0,
        -1.0
      ],
      "type": "VEC3"
    },
    {
      "bufferView": 1,
      "byteOffset": 15616,
      "componentType": 5126,
      "count": 72,
      "max": [
        0.9821756482124329,
        0.99790358543396
      ],
      "min": [
        0.0132802315056324,
        0.008579973131418228
      ],
      "type": "VEC2"
    },
    {
      "bufferView": 0,
      "byteOffset": 14496,
      "componentType": 5125,
      "count": 132,
      "type": "SCALAR"
    },
    {
      "bufferView": 2,
      "byteOffset": 48576,
      "componentType": 5126,
      "count": 72,
      "max": [
        0.5,
        0.5000002384185791,
        0.5147029161453247
      ],
      "min": [
        -0.5,
        -0.7313063740730286,
        -0.5
      ],
      "type": "VEC3"
    },
    {
      "bufferView": 2,
      "byteOffset": 49440,
      "componentType": 5126,
      "count": 72,
      "max": [
        0.9931632876396179,
        1.0,
        1.0
      ],
      "min": [
        -0.9931632876396179,
        -1.0,
        -1.0
      ],
      "type": "VEC3"
    },
    {
      "bufferView": 1,
      "byteOffset": 16192,
      "componentType": 5126,
      "count": 72,
      "max": [
        0.9821756482124329,
        0.99790358543396
      ],
      "min": [
        0.0132802315056324,
        0.008579973131418228
      ],
      "type": "VEC2"
    },
    {
      "bufferView": 0,
      "byteOffset": 15024,
      "componentType": 5125,
      "count": 132,
      "type": "SCALAR"
    },
    {
      "bufferView": 2,
      "byteOffset": 50304,
      "componentType": 5126,
      "count": 72,
      "max": [
        0.5,
        0.5000002384185791,
        0.5147029161453247
      ],
      "min": [
        -0.5,
        -0.7313063740730286,
        -0.5
      ],
      "type": "VEC3"
    },
    {
      "bufferView": 2,
      "byteOffset": 51168,
      "componentType": 5126,
      "count": 72,
      "max": [
        0.9931632876396179,
        1.0,
        1.0
      ],
      "min": [
        -0.9931632876396179,
        -1.0,
        -1.0
      ],
      "type": "VEC3"
    },
    {
      "bufferView": 1,
      "byteOffset": 16768,
      "componentType": 5126,
      "count": 72,
      "max": [
        0.9821756482124329,
        0.99790358543396
      ],
      "min": [
        0.0132802315056324,
        0.008579973131418228
      ],
      "type": "VEC2"
    },
    {
      "bufferView": 0,
      "byteOffset": 15552,
      "componentType": 5125,
      "count": 132,
      "type": "SCALAR"
    },
    {
      "bufferView": 2,
      "byteOffset": 52032,
      "componentType": 5126,
      "count": 72,
      "max": [
        0.5,
        0.5000002384185791,
        0.5147029161453247
      ],
      "min": [
        -0.5,
        -0.7313063740730286,
        -0.5
      ],
      "type": "VEC3"
    },
    {
      "bufferView": 2,
      "byteOffset": 52896,
      "componentType": 5126,
      "count": 72,
      "max": [
        0.9931632876396179,
        1.0,
        1.0
      ],
      "min": [
        -0.9931632876396179,
        -1.0,
        -1.0
      ],
      "type": "VEC3"
    },
    {
      "bufferView": 1,
      "byteOffset": 17344,
      "componentType": 5126,
      "count": 72,
      "max": [
        0.9821756482124329,
        0.99790358543396
      ],
      "min": [
        0.0132802315056324,
        0.008579973131418228
      ],
      "type": "VEC2"
    },
    {
      "bufferView": 0,
      "byteOffset": 16080,
      "componentType": 5125,
      "count": 132,
      "type": "SCALAR"
    },
    {
      "bufferView": 2,
      "byteOffset": 53760,
      "componentType": 5126,
      "count": 72,
      "max": [
        0.5,
        0.5000002384185791,
        0.5147029161453247
      ],
      "min": [
        -0.5,
        -0.7313063740730286,
        -0.5
      ],
      "type": "VEC3"
    },
    {
      "bufferView": 2,
      "byteOffset": 54624,
      "componentType": 5126,
      "count": 72,
      "max": [
        0.9931632876396179,
        1.0,
        1.0
      ],
      "min": [
        -0.9931632876396179,
        -1.0,
        -1.0
      ],
      "type": "VEC3"
    },
    {
      "bufferView": 1,
      "byteOffset": 17920,
      "componentType": 5126,
      "count": 72,
      "max": [
        0.9821756482124329,
        0.99790358543396
      ],
      "min": [
        0.0132802315056324,
        0.008579973131418228
      ],
      "type": "VEC2"
    },
    {
      "bufferView": 0,
      "byteOffset": 16608,
      "componentType": 5125,
      "count": 132,
      "type": "SCALAR"
    },
    {
      "bufferView": 2,
      "byteOffset": 55488,
      "componentType": 5126,
      "count": 72,
      "max": [
        0.5,
        0.5000002384185791,
        0.5147029161453247
      ],
      "min": [
        -0.5,
        -0.7313063740730286,
        -0.5
      ],
      "type": "VEC3"
    },
    {
      "bufferView": 2,
      "byteOffset": 56352,
      "componentType": 5126,
      "count": 72,
      "max": [
        0.9931632876396179,
        1.0,
        1.0
      ],
      "min": [
        -0.9931632876396179,
        -1.0,
        -1.0
      ],
      "type": "VEC3"
    },
    {
      "bufferView": 1,
      "byteOffset": 18496,
      "componentType": 5126,
      "count": 72,
      "max": [
        0.9821756482124329,
        0.99790358543396
      ],
      "min": [
        0.0132802315056324,
        0.008579973131418228
      ],
      "type": "VEC2"
    },
    {
      "bufferView": 0,
      "byteOffset": 17136,
      "componentType": 5125,
      "count": 132,
      "type": "SCALAR"
    },
    {
      "bufferView": 2,
      "byteOffset": 57216,
      "componentType": 5126,
      "count": 72,
      "max": [
        0.5,
        0.5000002384185791,
        0.5147029161453247
      ],
      "min": [
        -0.5,
        -0.7313063740730286,
        -0.5
      ],
      "type": "VEC3"
    },
    {
      "bufferView": 2,
      "byteOffset": 58080,
      "componentType": 5126,
      "count": 72,
      "max": [
        0.9931632876396179,
        1.0,
        1.0
      ],
      "min": [
        -0.9931632876396179,
        -1.0,
        -1.0
      ],
      "type": "VEC3"
    },
    {
      "bufferView": 1,
      "byteOffset": 19072,
      "componentType": 5126,
      "count": 72,
      "max": [
        0.9821756482124329,
        0.99790358543396
      ],
      "min": [
        0.0132802315056324,
        0.008579973131418228
      ],
      "type": "VEC2"
    },
    {
      "bufferView": 0,
      "byteOffset": 17664,
      "componentType": 5125,
      "count": 132,
      "type": "SCALAR"
    },
    {
      "bufferView": 2,
      "byteOffset": 58944,
      "componentType": 5126,
      "count": 72,
      "max": [
        0.5,
        0.5000002384185791,
        0.5147029161453247
      ],
      "min": [
        -0.5,
        -0.7313063740730286,
        -0.5
      ],
      "type": "VEC3"
    },
    {
      "bufferView": 2,
      "byteOffset": 59808,
      "componentType": 5126,
      "count": 72,
      "max": [
        0.9931632876396179,
        1.0,
        1.0
      ],
      "min": [
        -0.9931632876396179,
        -1.0,
        -1.0
      ],
      "type": "VEC3"
    },
    {
      "bufferView": 1,
      "byteOffset": 19648,
      "componentType": 5126,
      "count": 72,
      "max": [
        0.9821756482124329,
        0.99790358543396
      ],
      "min": [
        0.0132802315056324,
        0.008579973131418228
      ],
      "type": "VEC2"
    },
    {
      "bufferView": 0,
      "byteOffset": 18192,
      "componentType": 5125,
      "count": 132,
      "type": "SCALAR"
    },
    {
      "bufferView": 2,
      "byteOffset": 60672,
      "componentType": 5126,
      "count": 72,
      "max": [
        0.5,
        0.5000002384185791,
        0.5147029161453247
      ],
      "min": [
        -0.5,
        -0.7313063740730286,
        -0.5
      ],
      "type": "VEC3"
    },
    {
      "bufferView": 2,
      "byteOffset": 61536,
      "componentType": 5126,
      "count": 72,
      "max": [
        0.9931632876396179,
        1.0,
        1.0
      ],
      "min": [
        -0.9931632876396179,
        -1.0,
        -1.0
      ],
      "type": "VEC3"
    },
    {
      "bufferView": 1,
      "byteOffset": 20224,
      "componentType": 5126,
      "count": 72,
      "max": [
        0.9821756482124329,
        0.99790358543396
      ],
      "min": [
        0.0132802315056324,
        0.008579973131418228
      ],
      "type": "VEC2"
    },
    {
      "bufferView": 0,
      "byteOffset": 18720,
      "componentType": 5125,
      "count": 132,
      "type": "SCALAR"
    },
    {
      "bufferView": 2,
      "byteOffset": 62400,
      "componentType": 5126,
      "count": 72,
      "max": [
        0.5,
        0.5000002384185791,
        0.5147029161453247
      ],
      "min": [
        -0.5,
        -0.7313063740730286,
        -0.5
      ],
      "type": "VEC3"
    },
    {
      "bufferView": 2,
      "byteOffset": 63264,
      "componentType": 5126,
      "count": 72,
      "max": [
        0.9931632876396179,
        1.0,
        1.0
      ],
      "min": [
        -0.9931632876396179,
        -1.0,
        -1.0
      ],
      "type": "VEC3"
    },
    {
      "bufferView": 1,
      "byteOffset": 20800,
      "componentType": 5126,
      "count": 72,
      "max": [
        0.9821756482124329,
        0.99790358543396
      ],
      "min": [
        0.0132802315056324,
        0.008579973131418228
      ],
      "type": "VEC2"
    },
    {
      "bufferView": 0,
      "byteOffset": 19248,
      "componentType": 5125,
      "count": 132,
      "type": "SCALAR"
    },
    {
      "bufferView": 2,
      "byteOffset": 64128,
      "componentType": 5126,
      "count": 72,
      "max": [
        0.5,
        0.5000002384185791,
        0.5147029161453247
      ],
      "min": [
        -0.5,
        -0.7313063740730286,
        -0.5
      ],
      "type": "VEC3"
    },
    {
      "bufferView": 2,
      "byteOffset": 64992,
      "componentType": 5126,
      "count": 72,
      "max": [
        0.9931632876396179,
        1.0,
        1.0
      ],
      "min": [
        -0.9931632876396179,
        -1.0,
        -1.0
      ],
      "type": "VEC3"
    },
    {
      "bufferView": 1,
      "byteOffset": 21376,
      "componentType": 5126,
      "count": 72,
      "max": [
        0.9821756482124329,
        0.99790358543396
      ],
      "min": [
        0.0132802315056324,
        0.008579973131418228
      ],
      "type": "VEC2"
    },
    {
      "bufferView": 0,
      "byteOffset": 19776,
      "componentType": 5125,
      "count": 132,
      "type": "SCALAR"
    },
    {
      "bufferView": 2,
      "byteOffset": 65856,
      "componentType": 5126,
      "count": 72,
      "max": [
        0.5,
        0.5000002384185791,
        0.5147029161453247
      ],
      "min": [
        -0.5,
        -0.7313063740730286,
        -0.5
      ],
      "type": "VEC3"
    },
    {
      "bufferView": 2,
      "byteOffset": 66720,
      "componentType": 5126,
      "count": 72,
      "max": [
        0.9931632876396179,
        1.0,
        1.0
      ],
      "min": [
        -0.9931632876396179,
        -1.0,
        -1.0
      ],
      "type": "VEC3"
    },
    {
      "bufferView": 1,
      "byteOffset": 21952,
      "componentType": 5126,
      "count": 72,
      "max": [
        0.9821756482124329,
        0.99790358543396
      ],
      "min": [
        0.0132802315056324,
        0.008579973131418228
      ],
      "type": "VEC2"
    },
    {
      "bufferView": 0,
      "byteOffset": 20304,
      "componentType": 5125,
      "count": 132,
      "type": "SCALAR"
    },
    {
      "bufferView": 2,
      "byteOffset": 67584,
      "componentType": 5126,
      "count": 72,
      "max": [
        0.5,
        0.5000002384185791,
        0.5147029161453247
      ],
      "min": [
        -0.5,
        -0.7313063740730286,
        -0.5
      ],
      "type": "VEC3"
    },
    {
      "bufferView": 2,
      "byteOffset": 68448,
      "componentType": 5126,
      "count": 72,
      "max": [
        0.9931632876396179,
        1.0,
        1.0
      ],
      "min": [
        -0.9931632876396179,
        -1.0,
        -1.0
      ],
      "type": "VEC3"
    },
    {
      "bufferView": 1,
      "byteOffset": 22528,
      "componentType": 5126,
      "count": 72,
      "max": [
        0.9821756482124329,
        0.99790358543396
      ],
      "min": [
        0.0132802315056324,
        0.008579973131418228
      ],
      "type": "VEC2"
    },
    {
      "bufferView": 0,
      "byteOffset": 20832,
      "componentType": 5125,
      "count": 132,
      "type": "SCALAR"
    },
    {
      "bufferView": 2,
      "byteOffset": 69312,
      "componentType": 5126,
      "count": 72,
      "max": [
        0.5,
        0.5000002384185791,
        0.5147029161453247
      ],
      "min": [
        -0.5,
        -0.7313063740730286,
        -0.5
      ],
      "type": "VEC3"
    },
    {
      "bufferView": 2,
      "byteOffset": 70176,
      "componentType": 5126,
      "count": 72,
      "max": [
        0.9931632876396179,
        1.0,
        1.0
      ],
      "min": [
        -0.9931632876396179,
        -1.0,
        -1.0
      ],
      "type": "VEC3"
    },
    {
      "bufferView": 1,
      "byteOffset": 23104,
      "componentType": 5126,
      "count": 72,
      "max": [
        0.9821756482124329,
        0.99790358543396
      ],
      "min": [
        0.0132802315056324,
        0.008579973131418228
      ],
      "type": "VEC2"
    },
    {
      "bufferView": 0,
      "byteOffset": 21360,
      "componentType": 5125,
      "count": 132,
      "type": "SCALAR"
    },
    {
      "bufferView": 2,
      "byteOffset": 71040,
      "componentType": 5126,
      "count": 72,
      "max": [
        0.5,
        0.5000002384185791,
        0.5147029161453247
      ],
      "min": [
        -0.5,
        -0.7313063740730286,
        -0.5
      ],
      "type": "VEC3"
    },
    {
      "bufferView": 2,
      "byteOffset": 71904,
      "componentType": 5126,
      "count": 72,
      "max": [
        0.9931632876396179,
        1.0,
        1.0
      ],
      "min": [
        -0.9931632876396179,
        -1.0,
        -1.0
      ],
      "type": "VEC3"
    },
    {
      "bufferView": 1,
      "byteOffset": 23680,
      "componentType": 5126,
      "count": 72,
      "max": [
        0.9821756482124329,
        0.99790358543396
      ],
      "min": [
        0.0132802315056324,
        0.008579973131418228
      ],
      "type": "VEC2"
    },
    {
      "bufferView": 0,
      "byteOffset": 21888,
      "componentType": 5125,
      "count": 132,
      "type": "SCALAR"
    },
    {
      "bufferView": 2,
      "byteOffset": 72768,
      "componentType": 5126,
      "count": 72,
      "max": [
        0.5,
        0.5000002384185791,
        0.5147029161453247
      ],
      "min": [
        -0.5,
        -0.7313063740730286,
        -0.5
      ],
      "type": "VEC3"
    },
    {
      "bufferView": 2,
      "byteOffset": 73632,
      "componentType": 5126,
      "count": 72,
      "max": [
        0.9931632876396179,
        1.0,
        1.0
      ],
      "min": [
        -0.9931632876396179,
        -1.0,
        -1.0
      ],
      "type": "VEC3"
    },
    {
      "bufferView": 1,
      "byteOffset": 24256,
      "componentType": 5126,
      "count": 72,
      "max": [
        0.9821756482124329,
        0.99790358543396
      ],
      "min": [
        0.0132802315056324,
        0.008579973131418228
      ],
      "type": "VEC2"
    },
    {
      "bufferView": 0,
      "byteOffset": 22416,
      "componentType": 5125,
      "count": 132,
      "type": "SCALAR"
    },
    {
      "bufferView": 2,
      "byteOffset": 74496,
      "componentType": 5126,
      "count": 72,
      "max": [
        0.5,
        0.5000002384185791,
        0.5147029161453247
      ],
      "min": [
        -0.5,
        -0.7313063740730286,
        -0.5
      ],
      "type": "VEC3"
    },
    {
      "bufferView": 2,
      "byteOffset": 75360,
      "componentType": 5126,
      "count": 72,
      "max": [
        0.9931632876396179,
        1.0,
        1.0
      ],
      "min": [
        -0.9931632876396179,
        -1.0,
        -1.0
      ],
      "type": "VEC3"
    },
    {
      "bufferView": 1,
      "byteOffset": 24832,
      "componentType": 5126,
      "count": 72,
      "max": [
        0.9821756482124329,
        0.99790358543396
      ],
      "min": [
        0.0132802315056324,
        0.008579973131418228
      ],
      "type": "VEC2"
    },
    {
      "bufferView": 0,
      "byteOffset": 22944,
      "componentType": 5125,
      "count": 132,
      "type": "SCALAR"
    },
    {
      "bufferView": 2,
      "byteOffset": 76224,
      "componentType": 5126,
      "count": 72,
      "max": [
        0.5,
        0.5000002384185791,
        0.5147029161453247
      ],
      "min": [
        -0.5,
        -0.7313063740730286,
        -0.5
      ],
      "type": "VEC3"
    },
    {
      "bufferView": 2,
      "byteOffset": 77088,
      "componentType": 5126,
      "count": 72,
      "max": [
        0.9931632876396179,
        1.0,
        1.0
      ],
      "min": [
        -0.9931632876396179,
        -1.0,
        -1.0
      ],
      "type": "VEC3"
    },
    {
      "bufferView": 1,
      "byteOffset": 25408,
      "componentType": 5126,
      "count": 72,
      "max": [
        0.9821756482124329,
        0.99790358543396
      ],
      "min": [
        0.0132802315056324,
        0.008579973131418228
      ],
      "type": "VEC2"
    },
    {
      "bufferView": 0,
      "byteOffset": 23472,
      "componentType": 5125,
      "count": 132,
      "type": "SCALAR"
    },
    {
      "bufferView": 2,
      "byteOffset": 77952,
      "componentType": 5126,
      "count": 72,
      "max": [
        0.5,
        0.5000002384185791,
        0.5147029161453247
      ],
      "min": [
        -0.5,
        -0.7313063740730286,
        -0.5
      ],
      "type": "VEC3"
    },
    {
      "bufferView": 2,
      "byteOffset": 78816,
      "componentType": 5126,
      "count": 72,
      "max": [
        0.9931632876396179,
        1.0,
        1.0
      ],
      "min": [
        -0.9931632876396179,
        -1.0,
        -1.0
      ],
      "type": "VEC3"
    },
    {
      "bufferView": 1,
      "byteOffset": 25984,
      "componentType": 5126,
      "count": 72,
      "max": [
        0.9821756482124329,
        0.99790358543396
      ],
      "min": [
        0.0132802315056324,
        0.008579973131418228
      ],
      "type": "VEC2"
    },
    {
      "bufferView": 0,
      "byteOffset": 24000,
      "componentType": 5125,
      "count": 132,
      "type": "SCALAR"
    },
    {
      "bufferView": 2,
      "byteOffset": 79680,
      "componentType": 5126,
      "count": 72,
      "max": [
        0.5,
        0.5000002384185791,
        0.5147029161453247
      ],
      "min": [
        -0.5,
        -0.7313063740730286,
        -0.5
      ],
      "type": "VEC3"
    },
    {
      "bufferView": 2,
      "byteOffset": 80544,
      "componentType": 5126,
      "count": 72,
      "max": [
        0.9931632876396179,
        1.0,
        1.0
      ],
      "min": [
        -0.9931632876396179,
        -1.0,
        -1.0
      ],
      "type": "VEC3"
    },
    {
      "bufferView": 1,
      "byteOffset": 26560,
      "componentType": 5126,
      "count": 72,
      "max": [
        0.9821756482124329,
        0.99790358543396
      ],
      "min": [
        0.0132802315056324,
        0.008579973131418228
      ],
      "type": "VEC2"
    },
    {
      "bufferView": 0,
      "byteOffset": 24528,
      "componentType": 5125,
      "count": 132,
      "type": "SCALAR"
    }
  ],
  "asset": {
    "extras": {
      "author": "bright_moon (https://sketchfab.com/bright_moon)",
      "license": "CC-BY-4.0 (http://creativecommons.org/licenses/by/4.0/)",
      "source": "https://sketchfab.com/3d-models/cabinet-shelf-with-files-ba71f00e19ee423aab446ba94b0544d7",
      "title": "Cabinet Shelf with files"
    },
    "generator": "Sketchfab-15.1.0",
    "version": "2.0"
  },
  "bufferViews": [
    {
      "buffer": 0,
      "byteLength": 25056,
      "name": "floatBufferViews",
      "target": 34963
    },
    {
      "buffer": 0,
      "byteLength": 27136,
      "byteOffset": 25056,
      "byteStride": 8,
      "name": "floatBufferViews",
      "target": 34962
    },
    {
      "buffer": 0,
      "byteLength": 81408,
      "byteOffset": 52192,
      "byteStride": 12,
      "name": "floatBufferViews",
      "target": 34962
    }
  ],
  "buffers": [
    {
      "byteLength": 133600,
      "uri": "scene.bin"
    }
  ],
  "extensionsUsed": [
    "KHR_materials_specular"
  ],
  "images": [
    {
      "uri": "textures/Electricity_videos_modelsred_file_texture_baseColor.png"
    },
    {
      "uri": "textures/Electricity_videos_modelsblue_file_texture_baseColor.png"
    },
    {
      "uri": "textures/Electricity_videos_modelsred_file_texture1_baseColor.png"
    },
    {
      "uri": "textures/Electricity_videos_modelsyellow_file_texture_baseColor.png"
    }
  ],
  "materials": [
    {
      "doubleSided": true,
      "name": "Electricity_videos_modelsred_file_texture",
      "pbrMetallicRoughness": {
        "baseColorTexture": {
          "index": 0
        },
        "metallicFactor": 0.0,
        "roughnessFactor": 0.6
      }
    },
    {
      "doubleSided": true,
      "name": "Electricity_videos_modelsblue_file_texture",
      "pbrMetallicRoughness": {
        "baseColorTexture": {
          "index": 1
        },
        "metallicFactor": 0.0,
        "roughnessFactor": 0.6
      }
    },
    {
      "doubleSided": true,
      "name": "Electricity_videos_modelsred_file_texture1",
      "pbrMetallicRoughness": {
        "baseColorTexture": {
          "index": 2
        },
        "metallicFactor": 0.0,
        "roughnessFactor": 0.6
      }
    },
    {
      "doubleSided": true,
      "extensions": {
        "KHR_materials_specular": {
          "specularColorFactor": [
            1.0,
            1.0,
            1.0
          ],
          "specularFactor": 0.29120079767915186
        }
      },
      "name": "Electricity_videos_modelsshelf_texture",
      "pbrMetallicRoughness": {
        "baseColorFactor": [
          0.0523,
          0.0,
          0.0,
          1.0
        ],
        "metallicFactor": 0.0,
        "roughnessFactor": 0.43695303102847743
      }
    },
    {
      "doubleSided": true,
      "name": "Electricity_videos_modelsyellow_file_texture",
      "pbrMetallicRoughness": {
        "baseColorTexture": {
          "index": 3
        },
        "metallicFactor": 0.0,
        "roughnessFactor": 0.6
      }
    }
  ],
  "meshes": [
    {
      "name": "Electricity_videos_models:green_file_Electricity_videos_models:red_file_texture_0",
      "primitives": [
        {
          "attributes": {
            "NORMAL": 1,
            "POSITION": 0,
            "TEXCOORD_0": 2
          },
          "indices": 3,
          "material": 0,
          "mode": 4
        }
      ]
    },
    {
      "name": "Electricity_videos_models:blue_file_Electricity_videos_models:blue_file_texture_0",
      "primitives": [
        {
          "attributes": {
            "NORMAL": 5,
            "POSITION": 4,
            "TEXCOORD_0": 6
          },
          "indices": 7,
          "material": 1,
          "mode": 4
        }
      ]
    },
    {
      "name": "Electricity_videos_models:red_file_Electricity_videos_models:red_file_texture1_0",
      "primitives": [
        {
          "attributes": {
            "NORMAL": 9,
            "POSITION": 8,
            "TEXCOORD_0": 10
          },
          "indices": 11,
          "material": 2,
          "mode": 4
        }
      ]
    },
    {
      "name": "Electricity_videos_models:shelf_Electricity_videos_models:shelf_texture_0",
      "primitives": [
        {
          "attributes": {
            "NORMAL": 13,
            "POSITION": 12,
            "TEXCOORD_0": 14
          },
          "indices": 15,
          "material": 3,
          "mode": 4
        }
      ]
    },
    {
      "name": "Electricity_videos_models:yellow_file_Electricity_videos_models:yellow_file_texture_0",
      "primitives": [
        {
          "attributes": {
            "NORMAL": 17,
            "POSITION": 16,
            "TEXCOORD_0": 18
          },
          "indices": 19,
          "material": 4,
          "mode": 4
        }
      ]
    },
    {
      "name": "Electricity_videos_models:yellow_file12_Electricity_videos_models:yellow_file_texture_0",
      "primitives": [
        {
          "attributes": {
            "NORMAL": 21,
            "POSITION": 20,
            "TEXCOORD_0": 22
          },
          "indices": 23,
          "material": 4,
          "mode": 4
        }
      ]
    },
    {
      "name": "Electricity_videos_models:green_file11_Electricity_videos_models:yellow_file_texture_0",
      "primitives": [
        {
          "attributes": {
            "NORMAL": 25,
            "POSITION": 24,
            "TEXCOORD_0": 26
          },
          "indices": 27,
          "material": 4,
          "mode": 4
        }
      ]
    },
    {
      "name": "Electricity_videos_models:yellow_file13_Electricity_videos_models:yellow_file_texture_0",
      "primitives": [
        {
          "attributes": {
            "NORMAL": 29,
            "POSITION": 28,
            "TEXCOORD_0": 30
          },
          "indices": 31,
          "material": 4,
          "mode": 4
        }
      ]
    },
    {
      "name": "Electricity_videos_models:blue_file12_Electricity_videos_models:blue_file_texture_0",
      "primitives": [
        {
          "attributes": {
            "NORMAL": 33,
            "POSITION": 32,
            "TEXCOORD_0": 34
          },
          "indices": 35,
          "material": 1,
          "mode": 4
        }
      ]
    },
    {
      "name": "Electricity_videos_models:blue_file11_Electricity_videos_models:blue_file_texture_0",
      "primitives": [
        {
          "attributes": {
            "NORMAL": 37,
            "POSITION": 36,
            "TEXCOORD_0": 38
          },
          "indices": 39,
          "material": 1,
          "mode": 4
        }
      ]
    },
    {
      "name": "Electricity_videos_models:green_file7_Electricity_videos_models:yellow_file_texture_0",
      "primitives": [
        {
          "attributes": {
            "NORMAL": 41,
            "POSITION": 40,
            "TEXCOORD_0": 42
          },
          "indices": 43,
          "material": 4,
          "mode": 4
        }
      ]
    },
    {
      "name": "Electricity_videos_models:green_file9_Electricity_videos_models:red_file_texture_0",
      "primitives": [
        {
          "attributes": {
            "NORMAL": 45,
            "POSITION": 44,
            "TEXCOORD_0": 46
          },
          "indices": 47,
          "material": 0,
          "mode": 4
        }
      ]
    },
    {
      "name": "Electricity_videos_models:green_file8_Electricity_videos_models:red_file_texture_0",
      "primitives": [
        {
          "attributes": {
            "NORMAL": 49,
            "POSITION": 48,
            "TEXCOORD_0": 50
          },
          "indices": 51,
          "material": 0,
          "mode": 4
        }
      ]
    },
    {
      "name": "Electricity_videos_models:blue_file8_Electricity_videos_models:blue_file_texture_0",
      "primitives": [
        {
          "attributes": {
            "NORMAL": 53,
            "POSITION": 52,
            "TEXCOORD_0": 54
          },
          "indices": 55,
          "material": 1,
          "mode": 4
        }
      ]
    },
    {
      "name": "Electricity_videos_models:blue_file6_Electricity_videos_models:blue_file_texture_0",
      "primitives": [
        {
          "attributes": {
            "NORMAL": 57,
            "POSITION": 56,
            "TEXCOORD_0": 58
          },
          "indices": 59,
          "material": 1,
          "mode": 4
        }
      ]
    },
    {
      "name": "Electricity_videos_models:yellow_file14_Electricity_videos_models:blue_file_texture_0",
      "primitives": [
        {
          "attributes": {
            "NORMAL": 61,
            "POSITION": 60,
            "TEXCOORD_0": 62
          },
          "indices": 63,
          "material": 1,
          "mode": 4
        }
      ]
    },
    {
      "name": "Electricity_videos_models:green_file4_Electricity_videos_models:red_file_texture_0",
      "primitives": [
        {
          "attributes": {
            "NORMAL": 65,
            "POSITION": 64,
            "TEXCOORD_0": 66
          },
          "indices": 67,
          "material": 0,
          "mode": 4
        }
      ]
    },
    {
      "name": "Electricity_videos_models:green_file3_Electricity_videos_models:red_file_texture_0",
      "primitives": [
        {
          "attributes": {
            "NORMAL": 69,
            "POSITION": 68,
            "TEXCOORD_0": 70
          },
          "indices": 71,
          "material": 0,
          "mode": 4
        }
      ]
    },
    {
      "name": "Electricity_videos_models:green_file5_Electricity_videos_models:red_file_texture_0",
      "primitives": [
        {
          "attributes": {
            "NORMAL": 73,
            "POSITION": 72,
            "TEXCOORD_0": 74
          },
          "indices": 75,
          "material": 0,
          "mode": 4
        }
      ]
    },
    {
      "name": "Electricity_videos_models:blue_file3_Electricity_videos_models:blue_file_texture_0",
      "primitives": [
        {
          "attributes": {
            "NORMAL": 77,
            "POSITION": 76,
            "TEXCOORD_0": 78
          },
          "indices": 79,
          "material": 1,
          "mode": 4
        }
      ]
    },
    {
      "name": "Electricity_videos_models:blue_file2_Electricity_videos_models:blue_file_texture_0",
      "primitives": [
        {
          "attributes": {
            "NORMAL": 81,
            "POSITION": 80,
            "TEXCOORD_0": 82
          },
          "indices": 83,
          "material": 1,
          "mode": 4
        }
      ]
    },
    {
      "name": "Electricity_videos_models:blue_file5_Electricity_videos_models:yellow_file_texture_0",
      "primitives": [
        {
          "attributes": {
            "NORMAL": 85,
            "POSITION": 84,
            "TEXCOORD_0": 86
          },
          "indices": 87,
          "material": 4,
          "mode": 4
        }
      ]
    },
    {
      "name": "Electricity_videos_models:blue_file4_Electricity_videos_models:blue_file_texture_0",
      "primitives": [
        {
          "attributes": {
            "NORMAL": 89,
            "POSITION": 88,
            "TEXCOORD_0": 90
          },
          "indices": 91,
          "material": 1,
          "mode": 4
        }
      ]
    },
    {
      "name": "Electricity_videos_models:blue_file1_Electricity_videos_models:blue_file_texture_0",
      "primitives": [
        {
          "attributes": {
            "NORMAL": 93,
            "POSITION": 92,
            "TEXCOORD_0": 94
          },
          "indices": 95,
          "material": 1,
          "mode": 4
        }
      ]
    },
    {
      "name": "Electricity_videos_models:green_file1_Electricity_videos_models:red_file_texture_0",
      "primitives": [
        {
          "attributes": {
            "NORMAL": 97,
            "POSITION": 96,
            "TEXCOORD_0": 98
          },
          "indices": 99,
          "material": 0,
          "mode": 4
        }
      ]
    },
    {
      "name": "Electricity_videos_models:green_file2_Electricity_videos_models:yellow_file_texture_0",
      "primitives": [
        {
          "attributes": {
            "NORMAL": 101,
            "POSITION": 100,
            "TEXCOORD_0": 102
          },
          "indices": 103,
          "material": 4,
          "mode": 4
        }
      ]
    },
    {
      "name": "Electricity_videos_models:yellow_file3_Electricity_videos_models:yellow_file_texture_0",
      "primitives": [
        {
          "attributes": {
            "NORMAL": 105,
            "POSITION": 104,
            "TEXCOORD_0": 106
          },
          "indices": 107,
          "material": 4,
          "mode": 4
        }
      ]
    },
    {
      "name": "Electricity_videos_models:yellow_file5_Electricity_videos_models:yellow_file_texture_0",
      "primitives": [
        {
          "attributes": {
            "NORMAL": 109,
            "POSITION": 108,
            "TEXCOORD_0": 110
          },
          "indices": 111,
          "material": 4,
          "mode": 4
        }
      ]
    },
    {
      "name": "Electricity_videos_models:yellow_file4_Electricity_videos_models:yellow_file_texture_0",
      "primitives": [
        {
          "attributes": {
            "NORMAL": 113,
            "POSITION": 112,
            "TEXCOORD_0": 114
          },
          "indices": 115,
          "material": 4,
          "mode": 4
        }
      ]
    },
    {
      "name": "Electricity_videos_models:red_file5_Electricity_videos_models:red_file_texture1_0",
      "primitives": [
        {
          "attributes": {
            "NORMAL": 117,
            "POSITION": 116,
            "TEXCOORD_0": 118
          },
          "indices": 119,
          "material": 2,
          "mode": 4
        }
      ]
    },
    {
      "name": "Electricity_videos_models:red_file4_Electricity_videos_models:red_file_texture1_0",
      "primitives": [
        {
          "attributes": {
            "NORMAL": 121,
            "POSITION": 120,
            "TEXCOORD_0": 122
          },
          "indices": 123,
          "material": 2,
          "mode": 4
        }
      ]
    },
    {
      "name": "Electricity_videos_models:red_file3_Electricity_videos_models:red_file_texture1_0",
      "primitives": [
        {
          "attributes": {
            "NORMAL": 125,
            "POSITION": 124,
            "TEXCOORD_0": 126
          },
          "indices": 127,
          "material": 2,
          "mode": 4
        }
      ]
    },
    {
      "name": "Electricity_videos_models:yellow_file2_Electricity_videos_models:yellow_file_texture_0",
      "primitives": [
        {
          "attributes": {
            "NORMAL": 129,
            "POSITION": 128,
            "TEXCOORD_0": 130
          },
          "indices": 131,
          "material": 4,
          "mode": 4
        }
      ]
    },
    {
      "name": "Electricity_videos_models:yellow_file1_Electricity_videos_models:yellow_file_texture_0",
      "primitives": [
        {
          "attributes": {
            "NORMAL": 133,
            "POSITION": 132,
            "TEXCOORD_0": 134
          },
          "indices": 135,
          "material": 4,
          "mode": 4
        }
      ]
    },
    {
      "name": "Electricity_videos_models:red_file1_Electricity_videos_models:red_file_texture1_0",
      "primitives": [
        {
          "attributes": {
            "NORMAL": 137,
            "POSITION": 136,
            "TEXCOORD_0": 138
          },
          "indices": 139,
          "material": 2,
          "mode": 4
        }
      ]
    },
    {
      "name": "Electricity_videos_models:red_file6_Electricity_videos_models:red_file_texture1_0",
      "primitives": [
        {
          "attributes": {
            "NORMAL": 141,
            "POSITION": 140,
            "TEXCOORD_0": 142
          },
          "indices": 143,
          "material": 2,
          "mode": 4
        }
      ]
    },
    {
      "name": "Electricity_videos_models:red_file2_Electricity_videos_models:red_file_texture1_0",
      "primitives": [
        {
          "attributes": {
            "NORMAL": 145,
            "POSITION": 144,
            "TEXCOORD_0": 146
          },
          "indices": 147,
          "material": 2,
          "mode": 4
        }
      ]
    },
    {
      "name": "blue_file8_Electricity_videos_models:blue_file_texture_0",
      "primitives": [
        {
          "attributes": {
            "NORMAL": 149,
            "POSITION": 148,
            "TEXCOORD_0": 150
          },
          "indices": 151,
          "material": 1,
          "mode": 4
        }
      ]
    },
    {
      "name": "green_file8_Electricity_videos_models:yellow_file_texture_0",
      "primitives": [
        {
          "attributes": {
            "NORMAL": 153,
            "POSITION": 152,
            "TEXCOORD_0": 154
          },
          "indices": 155,
          "material": 4,
          "mode": 4
        }
      ]
    },
    {
      "name": "green_file9_Electricity_videos_models:red_file_texture_0",
      "primitives": [
        {
          "attributes": {
            "NORMAL": 157,
            "POSITION": 156,
            "TEXCOORD_0": 158
          },
          "indices": 159,
          "material": 0,
          "mode": 4
        }
      ]
    },
    {
      "name": "yellow_file14_Electricity_videos_models:blue_file_texture_0",
      "primitives": [
        {
          "attributes": {
            "NORMAL": 161,
            "POSITION": 160,
            "TEXCOORD_0": 162
          },
          "indices": 163,
          "material": 1,
          "mode": 4
        }
      ]
    },
    {
      "name": "blue_file12_Electricity_videos_models:blue_file_texture_0",
      "primitives": [
        {
          "attributes": {
            "NORMAL": 165,
            "POSITION": 164,
            "TEXCOORD_0": 166
          },
          "indices": 167,
          "material": 1,
          "mode": 4
        }
      ]
    },
    {
      "name": "green_file7_Electricity_videos_models:yellow_file_texture_0",
      "primitives": [
        {
          "attributes": {
            "NORMAL": 169,
            "POSITION": 168,
            "TEXCOORD_0": 170
          },
          "indices": 171,
          "material": 4,
          "mode": 4
        }
      ]
    },
    {
      "name": "blue_file11_Electricity_videos_models:yellow_file_texture_0",
      "primitives": [
        {
          "attributes": {
            "NORMAL": 173,
            "POSITION": 172,
            "TEXCOORD_0": 174
          },
          "indices": 175,
          "material": 4,
          "mode": 4
        }
      ]
    },
    {
      "name": "yellow_file13_Electricity_videos_models:yellow_file_texture_0",
      "primitives": [
        {
          "attributes": {
            "NORMAL": 177,
            "POSITION": 176,
            "TEXCOORD_0": 178
          },
          "indices": 179,
          "material": 4,
          "mode": 4
        }
      ]
    },
    {
      "name": "green_file11_Electricity_videos_models:red_file_texture_0",
      "primitives": [
        {
          "attributes": {
            "NORMAL": 181,
            "POSITION": 180,
            "TEXCOORD_0": 182
          },
          "indices": 183,
          "material": 0,
          "mode": 4
        }
      ]
    }
  ],
  "nodes": [
    {
      "children": [
        1
      ],
      "matrix": [
        0.8695651888847351,
        0.0,
        0.0,
        0.0,
        0.0,
        1.9308225882247123e-16,
        -0.8695651888847351,
        0.0,
        0.0,
        0.8695651888847351,
        1.9308225882247123e-16,
        0.0,
        0.0,
        0.0,
        0.0,
        1.0
      ],
      "name": "Sketchfab_model"
    },
    {
      "children": [
        2
      ],
      "matrix": [
        0.009999999776482582,
        0.0,
        0.0,
        0.0,
        0.0,
        0.0,
        0.009999999776482582,
        0.0,
        0.0,
        -0.009999999776482582,
        0.0,
        0.0,
        0.0,
        0.0,
        0.0,
        1.0
      ],
      "name": "8dc7183109254f0a987cdb18f4f072cd.fbx"
    },
    {
      "children": [
        3
      ],
      "name": "RootNode"
    },
    {
      "children": [
        4,
        6,
        8,
        10,
        12,
        14,
        16,
        18,
        20,
        22,
        24,
        26,
        28,
        30,
        32,
        34,
        36,
        38,
        40,
        42,
        44,
        46,
        48,
        50,
        52,
        54,
        56,
        58,
        60,
        62,
        64,
        66,
        68,
        70,
        72,
        74,
        76,
        78,
        80,
        82,
        84,
        86,
        88,
        90,
        92,
        94
      ],
      "name": "office_shelf"
    },
    {
      "children": [
        5
      ],
      "matrix": [
        -1.356055215796933e-14,
        -2.2273712074744765,
        -8.435354962487828,
        0.0,
        -5.962521778464275e-15,
        29.67194083957839,
        -7.834931308743761,
        0.0,
        30.688926696777344,
        -5.962521778464275e-15,
        -4.77001742277142e-14,
        0.0,
        12.445440292358398,
        141.3134765625,
        61.8206672668457,
        1.0
      ],
      "name": "Electricity_videos_models:green_file"
    },
    {
      "mesh": 0,
      "name": "Electricity_videos_models:green_file_Electricity_videos_models:red_file_texture_0"
    },
    {
      "children": [
        7
      ],
      "matrix": [
        -1.356055215796933e-14,
        -2.2273712074744765,
        -8.435354962487828,
        0.0,
        -5.962521778464275e-15,
        29.67194083957839,
        -7.834931308743761,
        0.0,
        30.688926696777344,
        -5.962521778464275e-15,
        -4.77001742277142e-14,
        0.0,
        12.445440292358398,
        141.3134765625,
        50.654693603515625,
        1.0
      ],
      "name": "Electricity_videos_models:blue_file"
    },
    {
      "mesh": 1,
      "name": "Electricity_videos_models:blue_file_Electricity_videos_models:blue_file_texture_0"
    },
    {
      "children": [
        9
      ],
      "matrix": [
        7.748886947411045e-15,
        1.7138809182458565,
        -8.554472984183601,
        0.0,
        1.2308348528401253e-12,
        30.090946667833677,
        6.0286939243722095,
        0.0,
        30.688926696777344,
        -1.2120954986792376e-12,
        -2.1805793932669348e-13,
        0.0,
        12.445440292358398,
        43.689453125,
        57.41041946411133,
        1.0
      ],
      "name": "Electricity_videos_models:red_file"
    },
    {
      "mesh": 2,
      "name": "Electricity_videos_models:red_file_Electricity_videos_models:red_file_texture1_0"
    },
    {
      "children": [
        11
      ],
      "matrix": [
        60.74713134765625,
        0.0,
        0.0,
        0.0,
        0.0,
        214.48878479003906,
        0.0,
        0.0,
        0.0,
        0.0,
        154.83677673339844,
        0.0,
        0.0,
        104.7155990600586,
        1.7432054281234741,
        1.0
      ],
      "name": "Electricity_videos_models:shelf"
    },
    {
      "mesh": 3,
      "name": "Electricity_videos_models:shelf_Electricity_videos_models:shelf_texture_0"
    },
    {
      "children": [
        13
      ],
      "matrix": [
        7.748886947411045e-15,
        1.7138809182458565,
        -8.554472984183601,
        0.0,
        1.2308348528401253e-12,
        30.090946667833677,
        6.0286939243722095,
        0.0,
        30.688926696777344,
        -1.2120954986792376e-12,
        -2.1805793932669348e-13,
        0.0,
        12.445440292358398,
        43.689453125,
        68.27691650390625,
        1.0
      ],
      "name": "Electricity_videos_models:yellow_file"
    },
    {
      "mesh": 4,
      "name": "Electricity_videos_models:yellow_file_Electricity_videos_models:yellow_file_texture_0"
    },
    {
      "children": [
        15
      ],
      "matrix": [
        1.9372217368527614e-15,
        8.724469244104368,
        -0.005678708596302481,
        0.0,
        1.2197615981086917e-12,
        0.01997524778316723,
        30.688920195889093,
        0.0,
        30.688926696777344,
        -1.3628621207918343e-14,
        -1.2265759087126508e-12,
        0.0,
        12.445440292358398,
        170.74288940429688,
        32.74491500854492,
        1.0
      ],
      "name": "Electricity_videos_models:yellow_file12"
    },
    {
      "mesh": 5,
      "name": "Electricity_videos_models:yellow_file12_Electricity_videos_models:yellow_file_texture_0"
    },
    {
      "children": [
        17
      ],
      "matrix": [
        -1.356055215796933e-14,
        -2.2273712074744765,
        -8.435354962487828,
        0.0,
        -5.962521778464275e-15,
        29.67194083957839,
        -7.834931308743761,
        0.0,
        30.688926696777344,
        -5.962521778464275e-15,
        -4.77001742277142e-14,
        0.0,
        12.445440292358398,
        190.0184326171875,
        -22.729970932006836,
        1.0
      ],
      "name": "Electricity_videos_models:green_file11"
    },
    {
      "mesh": 6,
      "name": "Electricity_videos_models:green_file11_Electricity_videos_models:yellow_file_texture_0"
    },
    {
      "children": [
        19
      ],
      "matrix": [
        1.9372217368527614e-15,
        8.724469244104368,
        -0.005678708596302481,
        0.0,
        1.2197615981086917e-12,
        0.01997524778316723,
        30.688920195889093,
        0.0,
        30.688926696777344,
        -1.3628621207918343e-14,
        -1.2265759087126508e-12,
        0.0,
        12.445440292358398,
        179.85462951660156,
        37.76914596557617,
        1.0
      ],
      "name": "Electricity_videos_models:yellow_file13"
    },
    {
      "mesh": 7,
      "name": "Electricity_videos_models:yellow_file13_Electricity_videos_models:yellow_file_texture_0"
    },
    {
      "children": [
        21
      ],
      "matrix": [
        -1.356055215796933e-14,
        -2.2273712074744765,
        -8.435354962487828,
        0.0,
        -5.962521778464275e-15,
        29.67194083957839,
        -7.834931308743761,
        0.0,
        30.688926696777344,
        -5.962521778464275e-15,
        -4.77001742277142e-14,
        0.0,
        12.445440292358398,
        190.0184326171875,
        -2.036284923553467,
        1.0
      ],
      "name": "Electricity_videos_models:blue_file12"
    },
    {
      "mesh": 8,
      "name": "Electricity_videos_models:blue_file12_Electricity_videos_models:blue_file_texture_0"
    },
    {
      "children": [
        23
      ],
      "matrix": [
        -1.356055215796933e-14,
        -2.2273712074744765,
        -8.435354962487828,
        0.0,
        -5.962521778464275e-15,
        29.67194083957839,
        -7.834931308743761,
        0.0,
        30.688926696777344,
        -5.962521778464275e-15,
        -4.77001742277142e-14,
        0.0,
        12.445440292358398,
        190.0184326171875,
        -12.364416122436523,
        1.0
      ],
      "name": "Electricity_videos_models:blue_file11"
    },
    {
      "mesh": 9,
      "name": "Electricity_videos_models:blue_file11_Electricity_videos_models:blue_file_texture_0"
    },
    {
      "children": [
        25
      ],
      "matrix": [
        -1.356055215796933e-14,
        -2.2273712074744765,
        -8.435354962487828,
        0.0,
        -5.962521778464275e-15,
        29.67194083957839,
        -7.834931308743761,
        0.0,
        30.688926696777344,
        -5.962521778464275e-15,
        -4.77001742277142e-14,
        0.0,
        12.445440292358398,
        190.0184326171875,
        -43.89422607421875,
        1.0
      ],
      "name": "Electricity_videos_models:green_file7"
    },
    {
      "mesh": 10,
      "name": "Electricity_videos_models:green_file7_Electricity_videos_models:yellow_file_texture_0"
    },
    {
      "children": [
        27
      ],
      "matrix": [
        -1.356055215796933e-14,
        -2.2273712074744765,
        -8.435354962487828,
        0.0,
        -5.962521778464275e-15,
        29.67194083957839,
        -7.834931308743761,
        0.0,
        30.688926696777344,
        -5.962521778464275e-15,
        -4.77001742277142e-14,
        0.0,
        12.445440292358398,
        190.0184326171875,
        -54.507476806640625,
        1.0
      ],
      "name": "Electricity_videos_models:green_file9"
    },
    {
      "mesh": 11,
      "name": "Electricity_videos_models:green_file9_Electricity_videos_models:red_file_texture_0"
    },
    {
      "children": [
        29
      ],
      "matrix": [
        -1.356055215796933e-14,
        -2.2273712074744765,
        -8.435354962487828,
        0.0,
        -5.962521778464275e-15,
        29.67194083957839,
        -7.834931308743761,
        0.0,
        30.688926696777344,
        -5.962521778464275e-15,
        -4.77001742277142e-14,
        0.0,
        12.445440292358398,
        190.0184326171875,
        -33.58420944213867,
        1.0
      ],
      "name": "Electricity_videos_models:green_file8"
    },
    {
      "mesh": 12,
      "name": "Electricity_videos_models:green_file8_Electricity_videos_models:red_file_texture_0"
    },
    {
      "children": [
        31
      ],
      "matrix": [
        -1.356055215796933e-14,
        -2.2273712074744765,
        -8.435354962487828,
        0.0,
        -5.962521778464275e-15,
        29.67194083957839,
        -7.834931308743761,
        0.0,
        30.688926696777344,
        -5.962521778464275e-15,
        -4.77001742277142e-14,
        0.0,
        12.445440292358398,
        190.0184326171875,
        -64.27914428710938,
        1.0
      ],
      "name": "Electricity_videos_models:blue_file8"
    },
    {
      "mesh": 13,
      "name": "Electricity_videos_models:blue_file8_Electricity_videos_models:blue_file_texture_0"
    },
    {
      "children": [
        33
      ],
      "matrix": [
        -1.356055215796933e-14,
        -2.2273712074744765,
        -8.435354962487828,
        0.0,
        -5.962521778464275e-15,
        29.67194083957839,
        -7.834931308743761,
        0.0,
        30.688926696777344,
        -5.962521778464275e-15,
        -4.77001742277142e-14,
        0.0,
        12.445440292358398,
        141.3134765625,
        -64.27914428710938,
        1.0
      ],
      "name": "Electricity_videos_models:blue_file6"
    },
    {
      "mesh": 14,
      "name": "Electricity_videos_models:blue_file6_Electricity_videos_models:blue_file_texture_0"
    },
    {
      "children": [
        35
      ],
      "matrix": [
        1.9372217368527614e-15,
        8.724469244104368,
        -0.005678708596302481,
        0.0,
        1.2197615981086917e-12,
        0.01997524778316723,
        30.688920195889093,
        0.0,
        30.688926696777344,
        -1.3628621207918343e-14,
        -1.2265759087126508e-12,
        0.0,
        12.445440292358398,
        188.8812255859375,
        36.57695770263672,
        1.0
      ],
      "name": "Electricity_videos_models:yellow_file14"
    },
    {
      "mesh": 15,
      "name": "Electricity_videos_models:yellow_file14_Electricity_videos_models:blue_file_texture_0"
    },
    {
      "children": [
        37
      ],
      "matrix": [
        -1.356055215796933e-14,
        -2.2273712074744765,
        -8.435354962487828,
        0.0,
        -5.962521778464275e-15,
        29.67194083957839,
        -7.834931308743761,
        0.0,
        30.688926696777344,
        -5.962521778464275e-15,
        -4.77001742277142e-14,
        0.0,
        12.445440292358398,
        141.3134765625,
        -43.89422607421875,
        1.0
      ],
      "name": "Electricity_videos_models:green_file4"
    },
    {
      "mesh": 16,
      "name": "Electricity_videos_models:green_file4_Electricity_videos_models:red_file_texture_0"
    },
    {
      "children": [
        39
      ],
      "matrix": [
        -1.356055215796933e-14,
        -2.2273712074744765,
        -8.435354962487828,
        0.0,
        -5.962521778464275e-15,
        29.67194083957839,
        -7.834931308743761,
        0.0,
        30.688926696777344,
        -5.962521778464275e-15,
        -4.77001742277142e-14,
        0.0,
        12.445440292358398,
        141.3134765625,
        -33.58420944213867,
        1.0
      ],
      "name": "Electricity_videos_models:green_file3"
    },
    {
      "mesh": 17,
      "name": "Electricity_videos_models:green_file3_Electricity_videos_models:red_file_texture_0"
    },
    {
      "children": [
        41
      ],
      "matrix": [
        -1.356055215796933e-14,
        -2.2273712074744765,
        -8.435354962487828,
        0.0,
        -5.962521778464275e-15,
        29.67194083957839,
        -7.834931308743761,
        0.0,
        30.688926696777344,
        -5.962521778464275e-15,
        -4.77001742277142e-14,
        0.0,
        12.445440292358398,
        141.3134765625,
        -54.507476806640625,
        1.0
      ],
      "name": "Electricity_videos_models:green_file5"
    },
    {
      "mesh": 18,
      "name": "Electricity_videos_models:green_file5_Electricity_videos_models:red_file_texture_0"
    },
    {
      "children": [
        43
      ],
      "matrix": [
        -1.356055215796933e-14,
        -2.2273712074744765,
        -8.435354962487828,
        0.0,
        -5.962521778464275e-15,
        29.67194083957839,
        -7.834931308743761,
        0.0,
        30.688926696777344,
        -5.962521778464275e-15,
        -4.77001742277142e-14,
        0.0,
        12.445440292358398,
        141.3134765625,
        8.291847229003906,
        1.0
      ],
      "name": "Electricity_videos_models:blue_file3"
    },
    {
      "mesh": 19,
      "name": "Electricity_videos_models:blue_file3_Electricity_videos_models:blue_file_texture_0"
    },
    {
      "children": [
        45
      ],
      "matrix": [
        -1.356055215796933e-14,
        -2.2273712074744765,
        -8.435354962487828,
        0.0,
        -5.962521778464275e-15,
        29.67194083957839,
        -7.834931308743761,
        0.0,
        30.688926696777344,
        -5.962521778464275e-15,
        -4.77001742277142e-14,
        0.0,
        12.445440292358398,
        141.3134765625,
        18.619977951049805,
        1.0
      ],
      "name": "Electricity_videos_models:blue_file2"
    },
    {
      "mesh": 20,
      "name": "Electricity_videos_models:blue_file2_Electricity_videos_models:blue_file_texture_0"
    },
    {
      "children": [
        47
      ],
      "matrix": [
        -1.356055215796933e-14,
        -2.2273712074744765,
        -8.435354962487828,
        0.0,
        -5.962521778464275e-15,
        29.67194083957839,
        -7.834931308743761,
        0.0,
        30.688926696777344,
        -5.962521778464275e-15,
        -4.77001742277142e-14,
        0.0,
        12.445440292358398,
        141.3134765625,
        -12.364416122436523,
        1.0
      ],
      "name": "Electricity_videos_models:blue_file5"
    },
    {
      "mesh": 21,
      "name": "Electricity_videos_models:blue_file5_Electricity_videos_models:yellow_file_texture_0"
    },
    {
      "children": [
        49
      ],
      "matrix": [
        -1.356055215796933e-14,
        -2.2273712074744765,
        -8.435354962487828,
        0.0,
        -5.962521778464275e-15,
        29.67194083957839,
        -7.834931308743761,
        0.0,
        30.688926696777344,
        -5.962521778464275e-15,
        -4.77001742277142e-14,
        0.0,
        12.445440292358398,
        141.3134765625,
        -2.036284923553467,
        1.0
      ],
      "name": "Electricity_videos_models:blue_file4"
    },
    {
      "mesh": 22,
      "name": "Electricity_videos_models:blue_file4_Electricity_videos_models:blue_file_texture_0"
    },
    {
      "children": [
        51
      ],
      "matrix": [
        -1.356055215796933e-14,
        -2.2273712074744765,
        -8.435354962487828,
        0.0,
        -5.962521778464275e-15,
        29.67194083957839,
        -7.834931308743761,
        0.0,
        30.688926696777344,
        -5.962521778464275e-15,
        -4.77001742277142e-14,
        0.0,
        12.445440292358398,
        141.3134765625,
        29.1231632232666,
        1.0
      ],
      "name": "Electricity_videos_models:blue_file1"
    },
    {
      "mesh": 23,
      "name": "Electricity_videos_models:blue_file1_Electricity_videos_models:blue_file_texture_0"
    },
    {
      "children": [
        53
      ],
      "matrix": [
        -1.356055215796933e-14,
        -2.2273712074744765,
        -8.435354962487828,
        0.0,
        -5.962521778464275e-15,
        29.67194083957839,
        -7.834931308743761,
        0.0,
        30.688926696777344,
        -5.962521778464275e-15,
        -4.77001742277142e-14,
        0.0,
        12.445440292358398,
        141.3134765625,
        40.28913879394531,
        1.0
      ],
      "name": "Electricity_videos_models:green_file1"
    },
    {
      "mesh": 24,
      "name": "Electricity_videos_models:green_file1_Electricity_videos_models:red_file_texture_0"
    },
    {
      "children": [
        55
      ],
      "matrix": [
        -1.356055215796933e-14,
        -2.2273712074744765,
        -8.435354962487828,
        0.0,
        -5.962521778464275e-15,
        29.67194083957839,
        -7.834931308743761,
        0.0,
        30.688926696777344,
        -5.962521778464275e-15,
        -4.77001742277142e-14,
        0.0,
        12.445440292358398,
        141.3134765625,
        -22.729970932006836,
        1.0
      ],
      "name": "Electricity_videos_models:green_file2"
    },
    {
      "mesh": 25,
      "name": "Electricity_videos_models:green_file2_Electricity_videos_models:yellow_file_texture_0"
    },
    {
      "children": [
        57
      ],
      "matrix": [
        7.748886947411045e-15,
        1.7138809182458565,
        -8.554472984183601,
        0.0,
        1.2308348528401253e-12,
        30.090946667833677,
        6.0286939243722095,
        0.0,
        30.688926696777344,
        -1.2120954986792376e-12,
        -2.1805793932669348e-13,
        0.0,
        12.445440292358398,
        43.689453125,
        -23.86594581604004,
        1.0
      ],
      "name": "Electricity_videos_models:yellow_file3"
    },
    {
      "mesh": 26,
      "name": "Electricity_videos_models:yellow_file3_Electricity_videos_models:yellow_file_texture_0"
    },
    {
      "children": [
        59
      ],
      "matrix": [
        7.748886947411045e-15,
        1.7138809182458565,
        -8.554472984183601,
        0.0,
        1.2308348528401253e-12,
        30.090946667833677,
        6.0286939243722095,
        0.0,
        30.688926696777344,
        -1.2120954986792376e-12,
        -2.1805793932669348e-13,
        0.0,
        12.445440292358398,
        43.689453125,
        -43.40517044067383,
        1.0
      ],
      "name": "Electricity_videos_models:yellow_file5"
    },
    {
      "mesh": 27,
      "name": "Electricity_videos_models:yellow_file5_Electricity_videos_models:yellow_file_texture_0"
    },
    {
      "children": [
        61
      ],
      "matrix": [
        7.748886947411045e-15,
        1.7138809182458565,
        -8.554472984183601,
        0.0,
        1.2308348528401253e-12,
        30.090946667833677,
        6.0286939243722095,
        0.0,
        30.688926696777344,
        -1.2120954986792376e-12,
        -2.1805793932669348e-13,
        0.0,
        12.445440292358398,
        43.689453125,
        -33.532718658447266,
        1.0
      ],
      "name": "Electricity_videos_models:yellow_file4"
    },
    {
      "mesh": 28,
      "name": "Electricity_videos_models:yellow_file4_Electricity_videos_models:yellow_file_texture_0"
    },
    {
      "children": [
        63
      ],
      "matrix": [
        7.748886947411045e-15,
        1.7138809182458565,
        -8.554472984183601,
        0.0,
        1.2308348528401253e-12,
        30.090946667833677,
        6.0286939243722095,
        0.0,
        30.688926696777344,
        -1.2120954986792376e-12,
        -2.1805793932669348e-13,
        0.0,
        12.445440292358398,
        43.689453125,
        -13.342137336730957,
        1.0
      ],
      "name": "Electricity_videos_models:red_file5"
    },
    {
      "mesh": 29,
      "name": "Electricity_videos_models:red_file5_Electricity_videos_models:red_file_texture1_0"
    },
    {
      "children": [
        65
      ],
      "matrix": [
        7.748886947411045e-15,
        1.7138809182458565,
        -8.554472984183601,
        0.0,
        1.2308348528401253e-12,
        30.090946667833677,
        6.0286939243722095,
        0.0,
        30.688926696777344,
        -1.2120954986792376e-12,
        -2.1805793932669348e-13,
        0.0,
        12.445440292358398,
        43.689453125,
        -3.2640111446380615,
        1.0
      ],
      "name": "Electricity_videos_models:red_file4"
    },
    {
      "mesh": 30,
      "name": "Electricity_videos_models:red_file4_Electricity_videos_models:red_file_texture1_0"
    },
    {
      "children": [
        67
      ],
      "matrix": [
        7.748886947411045e-15,
        1.7138809182458565,
        -8.554472984183601,
        0.0,
        1.2308348528401253e-12,
        30.090946667833677,
        6.0286939243722095,
        0.0,
        30.688926696777344,
        -1.2120954986792376e-12,
        -2.1805793932669348e-13,
        0.0,
        12.445440292358398,
        43.689453125,
        6.608438491821289,
        1.0
      ],
      "name": "Electricity_videos_models:red_file3"
    },
    {
      "mesh": 31,
      "name": "Electricity_videos_models:red_file3_Electricity_videos_models:red_file_texture1_0"
    },
    {
      "children": [
        69
      ],
      "matrix": [
        7.748886947411045e-15,
        1.7138809182458565,
        -8.554472984183601,
        0.0,
        1.2308348528401253e-12,
        30.090946667833677,
        6.0286939243722095,
        0.0,
        30.688926696777344,
        -1.2120954986792376e-12,
        -2.1805793932669348e-13,
        0.0,
        12.445440292358398,
        43.689453125,
        17.06358528137207,
        1.0
      ],
      "name": "Electricity_videos_models:yellow_file2"
    },
    {
      "mesh": 32,
      "name": "Electricity_videos_models:yellow_file2_Electricity_videos_models:yellow_file_texture_0"
    },
    {
      "children": [
        71
      ],
      "matrix": [
        7.748886947411045e-15,
        1.7138809182458565,
        -8.554472984183601,
        0.0,
        1.2308348528401253e-12,
        30.090946667833677,
        6.0286939243722095,
        0.0,
        30.688926696777344,
        -1.2120954986792376e-12,
        -2.1805793932669348e-13,
        0.0,
        12.445440292358398,
        43.689453125,
        27.347387313842773,
        1.0
      ],
      "name": "Electricity_videos_models:yellow_file1"
    },
    {
      "mesh": 33,
      "name": "Electricity_videos_models:yellow_file1_Electricity_videos_models:yellow_file_texture_0"
    },
    {
      "children": [
        73
      ],
      "matrix": [
        7.748886947411045e-15,
        1.7138809182458565,
        -8.554472984183601,
        0.0,
        1.2308348528401253e-12,
        30.090946667833677,
        6.0286939243722095,
        0.0,
        30.688926696777344,
        -1.2120954986792376e-12,
        -2.1805793932669348e-13,
        0.0,
        12.445440292358398,
        43.689453125,
        47.53797149658203,
        1.0
      ],
      "name": "Electricity_videos_models:red_file1"
    },
    {
      "mesh": 34,
      "name": "Electricity_videos_models:red_file1_Electricity_videos_models:red_file_texture1_0"
    },
    {
      "children": [
        75
      ],
      "matrix": [
        7.748886947411045e-15,
        1.7138809182458565,
        -8.554472984183601,
        0.0,
        1.2308348528401253e-12,
        30.090946667833677,
        6.0286939243722095,
        0.0,
        30.688926696777344,
        -1.2120954986792376e-12,
        -2.1805793932669348e-13,
        0.0,
        12.445440292358398,
        43.689453125,
        -53.66750717163086,
        1.0
      ],
      "name": "Electricity_videos_models:red_file6"
    },
    {
      "mesh": 35,
      "name": "Electricity_videos_models:red_file6_Electricity_videos_models:red_file_texture1_0"
    },
    {
      "children": [
        77
      ],
      "matrix": [
        7.748886947411045e-15,
        1.7138809182458565,
        -8.554472984183601,
        0.0,
        1.2308348528401253e-12,
        30.090946667833677,
        6.0286939243722095,
        0.0,
        30.688926696777344,
        -1.2120954986792376e-12,
        -2.1805793932669348e-13,
        0.0,
        12.445440292358398,
        43.689453125,
        37.459842681884766,
        1.0
      ],
      "name": "Electricity_videos_models:red_file2"
    },
    {
      "mesh": 36,
      "name": "Electricity_videos_models:red_file2_Electricity_videos_models:red_file_texture1_0"
    },
    {
      "children": [
        79
      ],
      "matrix": [
        -1.356055215796933e-14,
        -2.2273712074744765,
        -8.435354962487828,
        0.0,
        -5.962521778464275e-15,
        29.67194083957839,
        -7.834931308743761,
        0.0,
        30.688926696777344,
        -5.962521778464275e-15,
        -4.77001742277142e-14,
        0.0,
        12.445440292358398,
        92.11872863769531,
        -64.27914428710938,
        1.0
      ],
      "name": "blue_file8"
    },
    {
      "mesh": 37,
      "name": "blue_file8_Electricity_videos_models:blue_file_texture_0"
    },
    {
      "children": [
        81
      ],
      "matrix": [
        -1.356055215796933e-14,
        -2.2273712074744765,
        -8.435354962487828,
        0.0,
        -5.962521778464275e-15,
        29.67194083957839,
        -7.834931308743761,
        0.0,
        30.688926696777344,
        -5.962521778464275e-15,
        -4.77001742277142e-14,
        0.0,
        12.445440292358398,
        92.11872863769531,
        -33.58420944213867,
        1.0
      ],
      "name": "green_file8"
    },
    {
      "mesh": 38,
      "name": "green_file8_Electricity_videos_models:yellow_file_texture_0"
    },
    {
      "children": [
        83
      ],
      "matrix": [
        -1.356055215796933e-14,
        -2.2273712074744765,
        -8.435354962487828,
        0.0,
        -5.962521778464275e-15,
        29.67194083957839,
        -7.834931308743761,
        0.0,
        30.688926696777344,
        -5.962521778464275e-15,
        -4.77001742277142e-14,
        0.0,
        12.445440292358398,
        92.11872863769531,
        -54.507476806640625,
        1.0
      ],
      "name": "green_file9"
    },
    {
      "mesh": 39,
      "name": "green_file9_Electricity_videos_models:red_file_texture_0"
    },
    {
      "children": [
        85
      ],
      "matrix": [
        1.9372217368527614e-15,
        8.724469244104368,
        -0.005678708596302481,
        0.0,
        1.2197615981086917e-12,
        0.01997524778316723,
        30.688920195889093,
        0.0,
        30.688926696777344,
        -1.3628621207918343e-14,
        -1.2265759087126508e-12,
        0.0,
        12.445440292358398,
        82.77198791503906,
        36.57695770263672,
        1.0
      ],
      "name": "yellow_file14"
    },
    {
      "mesh": 40,
      "name": "yellow_file14_Electricity_videos_models:blue_file_texture_0"
    },
    {
      "children": [
        87
      ],
      "matrix": [
        -1.356055215796933e-14,
        -2.2273712074744765,
        -8.435354962487828,
        0.0,
        -5.962521778464275e-15,
        29.67194083957839,
        -7.834931308743761,
        0.0,
        30.688926696777344,
        -5.962521778464275e-15,
        -4.77001742277142e-14,
        0.0,
        12.445440292358398,
        92.11872863769531,
        -2.036284923553467,
        1.0
      ],
      "name": "blue_file12"
    },
    {
      "mesh": 41,
      "name": "blue_file12_Electricity_videos_models:blue_file_texture_0"
    },
    {
      "children": [
        89
      ],
      "matrix": [
        -1.356055215796933e-14,
        -2.2273712074744765,
        -8.435354962487828,
        0.0,
        -5.962521778464275e-15,
        29.67194083957839,
        -7.834931308743761,
        0.0,
        30.688926696777344,
        -5.962521778464275e-15,
        -4.77001742277142e-14,
        0.0,
        12.445440292358398,
        92.11872863769531,
        -43.89422607421875,
        1.0
      ],
      "name": "green_file7"
    },
    {
      "mesh": 42,
      "name": "green_file7_Electricity_videos_models:yellow_file_texture_0"
    },
    {
      "children": [
        91
      ],
      "matrix": [
        -1.356055215796933e-14,
        -2.2273712074744765,
        -8.435354962487828,
        0.0,
        -5.962521778464275e-15,
        29.67194083957839,
        -7.834931308743761,
        0.0,
        30.688926696777344,
        -5.962521778464275e-15,
        -4.77001742277142e-14,
        0.0,
        12.445440292358398,
        92.11872863769531,
        -12.364416122436523,
        1.0
      ],
      "name": "blue_file11"
    },
    {
      "mesh": 43,
      "name": "blue_file11_Electricity_videos_models:yellow_file_texture_0"
    },
    {
      "children": [
        93
      ],
      "matrix": [
        1.9372217368527614e-15,
        8.724469244104368,
        -0.005678708596302481,
        0.0,
        1.2197615981086917e-12,
        0.01997524778316723,
        30.688920195889093,
        0.0,
        30.688926696777344,
        -1.3628621207918343e-14,
        -1.2265759087126508e-12,
        0.0,
        12.445440292358398,
        73.74539947509766,
        37.76914596557617,
        1.0
      ],
      "name": "yellow_file13"
    },
    {
      "mesh": 44,
      "name": "yellow_file13_Electricity_videos_models:yellow_file_texture_0"
    },
    {
      "children": [
        95
      ],
      "matrix": [
        -1.356055215796933e-14,
        -2.2273712074744765,
        -8.435354962487828,
        0.0,
        -5.962521778464275e-15,
        29.67194083957839,
        -7.834931308743761,
        0.0,
        30.688926696777344,
        -5.962521778464275e-15,
        -4.77001742277142e-14,
        0.0,
        12.445440292358398,
        92.11872863769531,
        -22.729970932006836,
        1.0
      ],
      "name": "green_file11"
    },
    {
      "mesh": 45,
      "name": "green_file11_Electricity_videos_models:red_file_texture_0"
    }
  ],
  "samplers": [
    {
      "magFilter": 9729,
      "minFilter": 9987,
      "wrapS": 10497,
      "wrapT": 10497
    }
  ],
  "scene": 0,
  "scenes": [
    {
      "name": "Sketchfab_Scene",
      "nodes": [
        0
      ]
    }
  ],
  "textures": [
    {
      "sampler": 0,
      "source": 0
    },
    {
      "sampler": 0,
      "source": 1
    },
    {
      "sampler": 0,
      "source": 2
    },
    {
      "sampler": 0,
      "source": 3
    }
  ]
}
