{
  "accessors": [
    {
      "bufferView": 2,
      "componentType": 5126,
      "count": 1946,
      "max": [
        1.5027098655700684,
        0.5608406066894531,
        0.559946596622467
      ],
      "min": [
        -1.5998475551605225,
        -0.5330390930175781,
        -0.5182875394821167
      ],
      "type": "VEC3"
    },
    {
      "bufferView": 2,
      "byteOffset": 23352,
      "componentType": 5126,
      "count": 1946,
      "max": [
        0.9718227982521057,
        1.0,
        0.9630175828933716
      ],
      "min": [
        -0.9837992787361145,
        -1.0,
        -0.9803980588912964
      ],
      "type": "VEC3"
    },
    {
      "bufferView": 3,
      "componentType": 5126,
      "count": 1946,
      "max": [
        0.9628086686134338,
        0.9999521970748901,
        0.9962559342384338,
        1.0
      ],
      "min": [
        -0.9931961297988892,
        -0.9988532066345215,
        -0.9946818947792053,
        1.0
      ],
      "type": "VEC4"
    },
    {
      "bufferView": 1,
      "componentType": 5126,
      "count": 1946,
      "max": [
        0.9999999403953552,
        0.9564856886863708
      ],
      "min": [
        0.0,
        0.0
      ],
      "type": "VEC2"
    },
    {
      "bufferView": 0,
      "componentType": 5125,
      "count": 1956,
      "type": "SCALAR"
    },
    {
      "bufferView": 2,
      "byteOffset": 46704,
      "componentType": 5126,
      "count": 1890,
      "max": [
        1.5354633331298828,
        0.5663652420043945,
        -0.41634100675582886
      ],
      "min": [
        -1.6761456727981567,
        -0.5445976257324219,
        -0.5609915256500244
      ],
      "type": "VEC3"
    },
    {
      "bufferView": 2,
      "byteOffset": 69384,
      "componentType": 5126,
      "count": 1890,
      "max": [
        0.9503278732299805,
        0.999771237373352,
        0.9630221724510193
      ],
      "min": [
        -0.9744157195091248,
        -0.9975150227546692,
        -0.963019609451294
      ],
      "type": "VEC3"
    },
    {
      "bufferView": 3,
      "byteOffset": 31136,
      "componentType": 5126,
      "count": 1890,
      "max": [
        0.956625759601593,
        0.999935507774353,
        0.8025373220443726,
        1.0
      ],
      "min": [
        -0.9633499383926392,
        -0.995195209980011,
        -0.7364543080329895,
        1.0
      ],
      "type": "VEC4"
    },
    {
      "bufferView": 1,
      "byteOffset": 15568,
      "componentType": 5126,
      "count": 1890,
      "max": [
        0.9558741450309753,
        0.9056699275970459
      ],
      "min": [
        0.3208462595939636,
        0.42489904165267944
      ],
      "type": "VEC2"
    },
    {
      "bufferView": 0,
      "byteOffset": 7824,
      "componentType": 5125,
      "count": 1896,
      "type": "SCALAR"
    },
    {
      "bufferView": 2,
      "byteOffset": 92064,
      "componentType": 5126,
      "count": 116,
      "max": [
        1.0329694747924805,
        0.10045146942138672,
        0.2043798565864563
      ],
      "min": [
        0.47938060760498047,
        -0.4985628128051758,
        -0.06283706426620483
      ],
      "type": "VEC3"
    },
    {
      "bufferView": 2,
      "byteOffset": 93456,
      "componentType": 5126,
      "count": 116,
      "max": [
        0.8262933492660522,
        0.8726119995117188,
        0.9533002376556396
      ],
      "min": [
        -0.8262903690338135,
        -0.8726137280464172,
        -0.953299880027771
      ],
      "type": "VEC3"
    },
    {
      "bufferView": 3,
      "byteOffset": 61376,
      "componentType": 5126,
      "count": 116,
      "max": [
        0.9243614077568054,
        0.8727238774299622,
        0.8742849826812744,
        1.0
      ],
      "min": [
        0.2921566963195801,
        -0.4849390983581543,
        -0.9540966749191284,
        1.0
      ],
      "type": "VEC4"
    },
    {
      "bufferView": 1,
      "byteOffset": 30688,
      "componentType": 5126,
      "count": 116,
      "max": [
        0.9561252593994141,
        0.9370476603507996
      ],
      "min": [
        0.2908379137516022,
        0.12848183512687683
      ],
      "type": "VEC2"
    },
    {
      "bufferView": 0,
      "byteOffset": 15408,
      "componentType": 5125,
      "count": 174,
      "type": "SCALAR"
    },
    {
      "bufferView": 2,
      "byteOffset": 94848,
      "componentType": 5126,
      "count": 16,
      "max": [
        1.0051417350769043,
        0.06869316101074219,
        0.17560815811157227
      ],
      "min": [
        0.512751579284668,
        -0.4755706787109375,
        -0.03517049551010132
      ],
      "type": "VEC3"
    },
    {
      "bufferView": 2,
      "byteOffset": 95040,
      "componentType": 5126,
      "count": 16,
      "max": [
        0.8262907862663269,
        0.8828195333480835,
        0.28651782870292664
      ],
      "min": [
        -0.4966040551662445,
        -0.8620021939277649,
        -0.1016695499420166
      ],
      "type": "VEC3"
    },
    {
      "bufferView": 3,
      "byteOffset": 63232,
      "componentType": 5126,
      "count": 16,
      "max": [
        0.06729665398597717,
        0.09742920100688934,
        0.9534890055656433,
        1.0
      ],
      "min": [
        -0.31376931071281433,
        0.06004089489579201,
        -0.994803786277771,
        1.0
      ],
      "type": "VEC4"
    },
    {
      "bufferView": 1,
      "byteOffset": 31616,
      "componentType": 5126,
      "count": 16,
      "max": [
        0.9134126901626587,
        0.9724071025848389
      ],
      "min": [
        0.14569759368896484,
        0.1584608554840088
      ],
      "type": "VEC2"
    },
    {
      "bufferView": 0,
      "byteOffset": 16104,
      "componentType": 5125,
      "count": 30,
      "type": "SCALAR"
    },
    {
      "bufferView": 2,
      "byteOffset": 95232,
      "componentType": 5126,
      "count": 50,
      "max": [
        0.05218803882598877,
        0.1632518768310547,
        0.5576913952827454
      ],
      "min": [
        -0.2907707691192627,
        -0.26772403717041016,
        0.17880380153656006
      ],
      "type": "VEC3"
    },
    {
      "bufferView": 2,
      "byteOffset": 95832,
      "componentType": 5126,
      "count": 50,
      "max": [
        0.8205330967903137,
        0.8963173627853394,
        0.9407851696014404
      ],
      "min": [
        -0.8205330967903137,
        -0.8709097504615784,
        -0.9407864809036255
      ],
      "type": "VEC3"
    },
    {
      "bufferView": 3,
      "byteOffset": 63488,
      "componentType": 5126,
      "count": 50,
      "max": [
        0.820688009262085,
        0.4911712408065796,
        0.5404064059257507,
        1.0
      ],
      "min": [
        -0.9093133807182312,
        -0.8372209072113037,
        -0.9515498876571655,
        1.0
      ],
      "type": "VEC4"
    },
    {
      "bufferView": 1,
      "byteOffset": 31744,
      "componentType": 5126,
      "count": 50,
      "max": [
        0.995116651058197,
        0.9673888683319092
      ],
      "min": [
        0.5933672189712524,
        0.0
      ],
      "type": "VEC2"
    },
    {
      "bufferView": 0,
      "byteOffset": 16224,
      "componentType": 5125,
      "count": 90,
      "type": "SCALAR"
    },
    {
      "bufferView": 2,
      "byteOffset": 96432,
      "componentType": 5126,
      "count": 1433,
      "max": [
        0.318889856338501,
        0.24846172332763672,
        0.7788224816322327
      ],
      "min": [
        -0.5135984420776367,
        -0.4598731994628906,
        0.14700311422348022
      ],
      "type": "VEC3"
    },
    {
      "bufferView": 2,
      "byteOffset": 113628,
      "componentType": 5126,
      "count": 1433,
      "max": [
        0.9416087865829468,
        0.9972244501113892,
        0.9941743016242981
      ],
      "min": [
        -0.9516373872756958,
        -0.9995040893554688,
        -0.994219958782196
      ],
      "type": "VEC3"
    },
    {
      "bufferView": 3,
      "byteOffset": 64288,
      "componentType": 5126,
      "count": 1433,
      "max": [
        0.9400085210800171,
        0.9810926914215088,
        0.9928792715072632,
        1.0
      ],
      "min": [
        -0.9594314098358154,
        -0.9949453473091125,
        -0.9983890056610107,
        -1.0
      ],
      "type": "VEC4"
    },
    {
      "bufferView": 1,
      "byteOffset": 32144,
      "componentType": 5126,
      "count": 1433,
      "max": [
        0.9943158626556396,
        0.9729735851287842
      ],
      "min": [
        0.0,
        0.0
      ],
      "type": "VEC2"
    },
    {
      "bufferView": 0,
      "byteOffset": 16584,
      "componentType": 5125,
      "count": 1857,
      "type": "SCALAR"
    },
    {
      "bufferView": 2,
      "byteOffset": 130824,
      "componentType": 5126,
      "count": 411,
      "max": [
        0.2656536102294922,
        0.04229545593261719,
        0.7123866677284241
      ],
      "min": [
        -0.09835660457611084,
        -0.3614330291748047,
        0.30280494689941406
      ],
      "type": "VEC3"
    },
    {
      "bufferView": 2,
      "byteOffset": 135756,
      "componentType": 5126,
      "count": 411,
      "max": [
        0.9253420233726501,
        -0.31092408299446106,
        0.48294302821159363
      ],
      "min": [
        -0.48044702410697937,
        -0.8782342672348022,
        -0.10670401155948639
      ],
      "type": "VEC3"
    },
    {
      "bufferView": 3,
      "byteOffset": 87216,
      "componentType": 5126,
      "count": 411,
      "max": [
        -0.14973750710487366,
        0.48007991909980774,
        0.9855048060417175,
        1.0
      ],
      "min": [
        -0.7902190089225769,
        -0.07974440604448318,
        -0.39755183458328247,
        1.0
      ],
      "type": "VEC4"
    },
    {
      "bufferView": 1,
      "byteOffset": 43608,
      "componentType": 5126,
      "count": 411,
      "max": [
        0.9333999156951904,
        0.9696694612503052
      ],
      "min": [
        0.5257367491722107,
        0.6839675903320313
      ],
      "type": "VEC2"
    },
    {
      "bufferView": 0,
      "byteOffset": 24012,
      "componentType": 5125,
      "count": 411,
      "type": "SCALAR"
    }
  ],
  "asset": {
    "extras": {
      "author": "CatgirlNotLive (https://sketchfab.com/CatgirlNotLive)",
      "license": "CC-BY-4.0 (http://creativecommons.org/licenses/by/4.0/)",
      "source": "https://sketchfab.com/3d-models/broken-table-044cb616f3334308b474e6418aadaa58",
      "title": "Broken Table"
    },
    "generator": "Sketchfab-14.86.0",
    "version": "2.0"
  },
  "bufferViews": [
    {
      "buffer": 0,
      "byteLength": 25656,
      "name": "floatBufferViews",
      "target": 34963
    },
    {
      "buffer": 0,
      "byteLength": 46896,
      "byteOffset": 25656,
      "byteStride": 8,
      "name": "floatBufferViews",
      "target": 34962
    },
    {
      "buffer": 0,
      "byteLength": 140688,
      "byteOffset": 72552,
      "byteStride": 12,
      "name": "floatBufferViews",
      "target": 34962
    },
    {
      "buffer": 0,
      "byteLength": 93792,
      "byteOffset": 213240,
      "byteStride": 16,
      "name": "floatBufferViews",
      "target": 34962
    }
  ],
  "buffers": [
    {
      "byteLength": 307032,
      "uri": "scene.bin"
    }
  ],
  "images": [
    {
      "uri": "textures/WOOD_baseColor.png"
    },
    {
      "uri": "textures/WOOD_metallicRoughness.png"
    },
    {
      "uri": "textures/WOOD_normal.png"
    },
    {
      "uri": "textures/Rubber_baseColor.png"
    },
    {
      "uri": "textures/Rubber_metallicRoughness.png"
    },
    {
      "uri": "textures/Rubber_normal.png"
    },
    {
      "uri": "textures/Book_case_baseColor.png"
    },
    {
      "uri": "textures/Book_case_metallicRoughness.png"
    },
    {
      "uri": "textures/Book_case_normal.png"
    },
    {
      "uri": "textures/Paper_baseColor.png"
    },
    {
      "uri": "textures/Paper_metallicRoughness.png"
    },
    {
      "uri": "textures/Paper_normal.png"
    },
    {
      "uri": "textures/Wiring_baseColor.png"
    },
    {
      "uri": "textures/Wiring_metallicRoughness.png"
    },
    {
      "uri": "textures/Wiring_normal.png"
    },
    {
      "uri": "textures/CRT_monitor_baseColor.png"
    },
    {
      "uri": "textures/CRT_monitor_metallicRoughness.png"
    },
    {
      "uri": "textures/CRT_monitor_normal.png"
    },
    {
      "uri": "textures/Screen_baseColor.png"
    },
    {
      "uri": "textures/Screen_metallicRoughness.png"
    },
    {
      "uri": "textures/Screen_normal.png"
    }
  ],
  "materials": [
    {
      "doubleSided": true,
      "name": "WOOD",
      "normalTexture": {
        "index": 2
      },
      "occlusionTexture": {
        "index": 1
      },
      "pbrMetallicRoughness": {
        "baseColorTexture": {
          "index": 0
        },
        "metallicRoughnessTexture": {
          "index": 1
        }
      }
    },
    {
      "doubleSided": true,
      "name": "Rubber",
      "normalTexture": {
        "index": 5
      },
      "occlusionTexture": {
        "index": 4
      },
      "pbrMetallicRoughness": {
        "baseColorTexture": {
          "index": 3
        },
        "metallicRoughnessTexture": {
          "index": 4
        }
      }
    },
    {
      "doubleSided": true,
      "name": "Book_case",
      "normalTexture": {
        "index": 8
      },
      "occlusionTexture": {
        "index": 7
      },
      "pbrMetallicRoughness": {
        "baseColorTexture": {
          "index": 6
        },
        "metallicRoughnessTexture": {
          "index": 7
        }
      }
    },
    {
      "doubleSided": true,
      "name": "Paper",
      "normalTexture": {
        "index": 11
      },
      "occlusionTexture": {
        "index": 10
      },
      "pbrMetallicRoughness": {
        "baseColorTexture": {
          "index": 9
        },
        "metallicRoughnessTexture": {
          "index": 10
        }
      }
    },
    {
      "doubleSided": true,
      "name": "Wiring",
      "normalTexture": {
        "index": 14
      },
      "occlusionTexture": {
        "index": 13
      },
      "pbrMetallicRoughness": {
        "baseColorTexture": {
          "index": 12
        },
        "metallicRoughnessTexture": {
          "index": 13
        }
      }
    },
    {
      "doubleSided": true,
      "name": "CRT_monitor",
      "normalTexture": {
        "index": 17
      },
      "occlusionTexture": {
        "index": 16
      },
      "pbrMetallicRoughness": {
        "baseColorTexture": {
          "index": 15
        },
        "metallicRoughnessTexture": {
          "index": 16
        }
      }
    },
    {
      "doubleSided": true,
      "name": "Screen",
      "normalTexture": {
        "index": 20
      },
      "occlusionTexture": {
        "index": 19
      },
      "pbrMetallicRoughness": {
        "baseColorTexture": {
          "index": 18
        },
        "metallicRoughnessTexture": {
          "index": 19
        }
      }
    }
  ],
  "meshes": [
    {
      "name": "Table_WOOD_0",
      "primitives": [
        {
          "attributes": {
            "NORMAL": 1,
            "POSITION": 0,
            "TANGENT": 2,
            "TEXCOORD_0": 3
          },
          "indices": 4,
          "material": 0,
          "mode": 4
        }
      ]
    },
    {
      "name": "Table_Rubber_0",
      "primitives": [
        {
          "attributes": {
            "NORMAL": 6,
            "POSITION": 5,
            "TANGENT": 7,
            "TEXCOORD_0": 8
          },
          "indices": 9,
          "material": 1,
          "mode": 4
        }
      ]
    },
    {
      "name": "Table_Book case_0",
      "primitives": [
        {
          "attributes": {
            "NORMAL": 11,
            "POSITION": 10,
            "TANGENT": 12,
            "TEXCOORD_0": 13
          },
          "indices": 14,
          "material": 2,
          "mode": 4
        }
      ]
    },
    {
      "name": "Table_Paper_0",
      "primitives": [
        {
          "attributes": {
            "NORMAL": 16,
            "POSITION": 15,
            "TANGENT": 17,
            "TEXCOORD_0": 18
          },
          "indices": 19,
          "material": 3,
          "mode": 4
        }
      ]
    },
    {
      "name": "Table_Wiring_0",
      "primitives": [
        {
          "attributes": {
            "NORMAL": 21,
            "POSITION": 20,
            "TANGENT": 22,
            "TEXCOORD_0": 23
          },
          "indices": 24,
          "material": 4,
          "mode": 4
        }
      ]
    },
    {
      "name": "Table_CRT monitor_0",
      "primitives": [
        {
          "attributes": {
            "NORMAL": 26,
            "POSITION": 25,
            "TANGENT": 27,
            "TEXCOORD_0": 28
          },
          "indices": 29,
          "material": 5,
          "mode": 4
        }
      ]
    },
    {
      "name": "Table_Screen_0",
      "primitives": [
        {
          "attributes": {
            "NORMAL": 31,
            "POSITION": 30,
            "TANGENT": 32,
            "TEXCOORD_0": 33
          },
          "indices": 34,
          "material": 6,
          "mode": 4
        }
      ]
    }
  ],
  "nodes": [
    {
      "children": [
        1
      ],
      "matrix": [
        1.0,
        0.0,
        0.0,
        0.0,
        0.0,
        2.220446049250313e-16,
        -1.0,
        0.0,
        0.0,
        1.0,
        2.220446049250313e-16,
        0.0,
        0.0,
        0.0,
        0.0,
        1.0
      ],
      "name": "Sketchfab_model"
    },
    {
      "children": [
        2
      ],
      "matrix": [
        0.009999999776482582,
        0.0,
        0.0,
        0.0,
        0.0,
        0.0,
        0.009999999776482582,
        0.0,
        0.0,
        -0.009999999776482582,
        0.0,
        0.0,
        0.0,
        0.0,
        0.0,
        1.0
      ],
      "name": "a8249b272dc64b5488f14019df5ed905.fbx"
    },
    {
      "children": [
        3
      ],
      "name": "RootNode"
    },
    {
      "children": [
        4,
        5,
        6,
        7,
        8,
        9,
        10
      ],
      "matrix": [
        100.0,
        0.0,
        0.0,
        0.0,
        0.0,
        -1.629206793918314e-05,
        -99.99999999999868,
        0.0,
        0.0,
        99.99999999999868,
        -1.629206793918314e-05,
        0.0,
        0.0,
        54.41682434082031,
        0.0,
        1.0
      ],
      "name": "Table"
    },
    {
      "mesh": 0,
      "name": "Table_WOOD_0"
    },
    {
      "mesh": 1,
      "name": "Table_Rubber_0"
    },
    {
      "mesh": 2,
      "name": "Table_Book case_0"
    },
    {
      "mesh": 3,
      "name": "Table_Paper_0"
    },
    {
      "mesh": 4,
      "name": "Table_Wiring_0"
    },
    {
      "mesh": 5,
      "name": "Table_CRT monitor_0"
    },
    {
      "mesh": 6,
      "name": "Table_Screen_0"
    }
  ],
  "samplers": [
    {
      "magFilter": 9729,
      "minFilter": 9987,
      "wrapS": 10497,
      "wrapT": 10497
    }
  ],
  "scene": 0,
  "scenes": [
    {
      "name": "Sketchfab_Scene",
      "nodes": [
        0
      ]
    }
  ],
  "textures": [
    {
      "sampler": 0,
      "source": 0
    },
    {
      "sampler": 0,
      "source": 1
    },
    {
      "sampler": 0,
      "source": 2
    },
    {
      "sampler": 0,
      "source": 3
    },
    {
      "sampler": 0,
      "source": 4
    },
    {
      "sampler": 0,
      "source": 5
    },
    {
      "sampler": 0,
      "source": 6
    },
    {
      "sampler": 0,
      "source": 7
    },
    {
      "sampler": 0,
      "source": 8
    },
    {
      "sampler": 0,
      "source": 9
    },
    {
      "sampler": 0,
      "source": 10
    },
    {
      "sampler": 0,
      "source": 11
    },
    {
      "sampler": 0,
      "source": 12
    },
    {
      "sampler": 0,
      "source": 13
    },
    {
      "sampler": 0,
      "source": 14
    },
    {
      "sampler": 0,
      "source": 15
    },
    {
      "sampler": 0,
      "source": 16
    },
    {
      "sampler": 0,
      "source": 17
    },
    {
      "sampler": 0,
      "source": 18
    },
    {
      "sampler": 0,
      "source": 19
    },
    {
      "sampler": 0,
      "source": 20
    }
  ]
}
