{
  "accessors": [
    {
      "bufferView": 2,
      "componentType": 5126,
      "count": 7175,
      "max": [
        -4.973127841949463,
        9.912878036499023,
        3.336864471435547
      ],
      "min": [
        -27.926616668701172,
        -9.95197868347168,
        -39.8863410949707
      ],
      "type": "VEC3"
    },
    {
      "bufferView": 2,
      "byteOffset": 86100,
      "componentType": 5126,
      "count": 7175,
      "max": [
        0.9999934434890747,
        0.9999825954437256,
        0.9999503493309021
      ],
      "min": [
        -0.9999790787696838,
        -0.9988349676132202,
        -0.99978107213974
      ],
      "type": "VEC3"
    },
    {
      "bufferView": 3,
      "componentType": 5126,
      "count": 7175,
      "max": [
        0.9999273419380188,
        0.9974302649497986,
        0.9999529719352722,
        1.0
      ],
      "min": [
        -0.9988965392112732,
        -0.9999086260795593,
        -1.0,
        -1.0
      ],
      "type": "VEC4"
    },
    {
      "bufferView": 1,
      "componentType": 5126,
      "count": 7175,
      "max": [
        0.9948276877403259,
        0.9915993213653564
      ],
      "min": [
        0.0013953569578006864,
        0.010325677692890167
      ],
      "type": "VEC2"
    },
    {
      "bufferView": 1,
      "byteOffset": 57400,
      "componentType": 5126,
      "count": 7175,
      "max": [
        0.9948276877403259,
        0.9915993213653564
      ],
      "min": [
        0.0013953569578006864,
        0.010325677692890167
      ],
      "type": "VEC2"
    },
    {
      "bufferView": 0,
      "componentType": 5125,
      "count": 33525,
      "type": "SCALAR"
    },
    {
      "bufferView": 2,
      "byteOffset": 172200,
      "componentType": 5126,
      "count": 14859,
      "max": [
        23.37542152404785,
        9.995078086853027,
        37.63153076171875
      ],
      "min": [
        -19.300804138183594,
        -9.995077133178711,
        -4.341737270355225
      ],
      "type": "VEC3"
    },
    {
      "bufferView": 2,
      "byteOffset": 350508,
      "componentType": 5126,
      "count": 14859,
      "max": [
        0.9988475441932678,
        1.0,
        0.9997882843017578
      ],
      "min": [
        -0.9998213648796082,
        -1.0,
        -0.9998905658721924
      ],
      "type": "VEC3"
    },
    {
      "bufferView": 3,
      "byteOffset": 114800,
      "componentType": 5126,
      "count": 14859,
      "max": [
        0.999405562877655,
        0.9998735785484314,
        0.9999242424964905,
        1.0
      ],
      "min": [
        -0.9997866153717041,
        -0.9999971985816956,
        -0.9998565316200256,
        -1.0
      ],
      "type": "VEC4"
    },
    {
      "bufferView": 1,
      "byteOffset": 114800,
      "componentType": 5126,
      "count": 14859,
      "max": [
        0.9953922629356384,
        0.9916273355484009
      ],
      "min": [
        0.00038219988346099854,
        0.009950242936611176
      ],
      "type": "VEC2"
    },
    {
      "bufferView": 0,
      "byteOffset": 134100,
      "componentType": 5125,
      "count": 64830,
      "type": "SCALAR"
    }
  ],
  "asset": {
    "extras": {
      "author": "Samad.Ahmed (https://sketchfab.com/Samad.Ahmed)",
      "license": "CC-BY-4.0 (http://creativecommons.org/licenses/by/4.0/)",
      "source": "https://sketchfab.com/3d-models/old-tool-box-low-poly-5da7e8eef53b4c79923497d683069cdc",
      "title": "Old Tool Box Low Poly"
    },
    "generator": "Sketchfab-15.53.0",
    "version": "2.0"
  },
  "bufferViews": [
    {
      "buffer": 0,
      "byteLength": 393420,
      "name": "floatBufferViews",
      "target": 34963
    },
    {
      "buffer": 0,
      "byteLength": 233672,
      "byteOffset": 393420,
      "byteStride": 8,
      "name": "floatBufferViews",
      "target": 34962
    },
    {
      "buffer": 0,
      "byteLength": 528816,
      "byteOffset": 627092,
      "byteStride": 12,
      "name": "floatBufferViews",
      "target": 34962
    },
    {
      "buffer": 0,
      "byteLength": 352544,
      "byteOffset": 1155908,
      "byteStride": 16,
      "name": "floatBufferViews",
      "target": 34962
    }
  ],
  "buffers": [
    {
      "byteLength": 1508452,
      "uri": "scene.bin"
    }
  ],
  "extensionsUsed": [
    "KHR_materials_specular"
  ],
  "images": [
    {
      "uri": "textures/Material_0_baseColor.jpeg"
    },
    {
      "uri": "textures/Material_0_normal.png"
    }
  ],
  "materials": [
    {
      "doubleSided": true,
      "extensions": {
        "KHR_materials_specular": {
          "specularColorFactor": [
            1.0,
            1.0,
            1.0
          ],
          "specularFactor": 0.010666699174702246
        }
      },
      "name": "Material_0",
      "normalTexture": {
        "index": 1
      },
      "pbrMetallicRoughness": {
        "baseColorTexture": {
          "index": 0
        },
        "metallicFactor": 0.0,
        "roughnessFactor": 0.18742914264119662
      }
    }
  ],
  "meshes": [
    {
      "name": "Retopo_Mesh_12_Material_0_0",
      "primitives": [
        {
          "attributes": {
            "NORMAL": 1,
            "POSITION": 0,
            "TANGENT": 2,
            "TEXCOORD_0": 3,
            "TEXCOORD_1": 4
          },
          "indices": 5,
          "material": 0,
          "mode": 4
        }
      ]
    },
    {
      "name": "Mesh_0_Material_0_0",
      "primitives": [
        {
          "attributes": {
            "NORMAL": 7,
            "POSITION": 6,
            "TANGENT": 8,
            "TEXCOORD_0": 9
          },
          "indices": 10,
          "material": 0,
          "mode": 4
        }
      ]
    }
  ],
  "nodes": [
    {
      "children": [
        1
      ],
      "matrix": [
        1.0,
        0.0,
        0.0,
        0.0,
        0.0,
        2.220446049250313e-16,
        -1.0,
        0.0,
        0.0,
        1.0,
        2.220446049250313e-16,
        0.0,
        0.0,
        0.0,
        0.0,
        1.0
      ],
      "name": "Sketchfab_model"
    },
    {
      "children": [
        2
      ],
      "matrix": [
        0.009999999776482582,
        0.0,
        0.0,
        0.0,
        0.0,
        0.0,
        0.009999999776482582,
        0.0,
        0.0,
        -0.009999999776482582,
        0.0,
        0.0,
        0.0,
        0.0,
        0.0,
        1.0
      ],
      "name": "ceb6a62c5c6f4a3193033b23e9912d0b.fbx"
    },
    {
      "children": [
        3
      ],
      "name": "RootNode"
    },
    {
      "children": [
        4
      ],
      "name": "group1"
    },
    {
      "children": [
        5,
        7
      ],
      "matrix": [
        1.0,
        0.0,
        0.0,
        0.0,
        0.0,
        1.0,
        0.0,
        0.0,
        0.0,
        0.0,
        1.0,
        0.0,
        2.275596857070923,
        -4.76837158203125e-07,
        1.1274049282073975,
        1.0
      ],
      "name": "group2"
    },
    {
      "children": [
        6
      ],
      "name": "Retopo_Mesh_12"
    },
    {
      "mesh": 0,
      "name": "Retopo_Mesh_12_Material_0_0"
    },
    {
      "children": [
        8
      ],
      "name": "Mesh_0"
    },
    {
      "mesh": 1,
      "name": "Mesh_0_Material_0_0"
    }
  ],
  "samplers": [
    {
      "magFilter": 9729,
      "minFilter": 9987,
      "wrapS": 10497,
      "wrapT": 10497
    }
  ],
  "scene": 0,
  "scenes": [
    {
      "name": "Sketchfab_Scene",
      "nodes": [
        0
      ]
    }
  ],
  "textures": [
    {
      "sampler": 0,
      "source": 0
    },
    {
      "sampler": 0,
      "source": 1
    }
  ]
}
