{
  "accessors": [
    {
      "bufferView": 2,
      "componentType": 5126,
      "count": 204,
      "max": [
        1.1991904973983765,
        1.309834599494934,
        4.382322788238525
      ],
      "min": [
        -1.2182031869888306,
        0.617003858089447,
        2.9136571884155273
      ],
      "type": "VEC3"
    },
    {
      "bufferView": 2,
      "byteOffset": 2448,
      "componentType": 5126,
      "count": 204,
      "max": [
        0.9941359162330627,
        0.9607300758361816,
        0.9587164521217346
      ],
      "min": [
        -0.9941359758377075,
        -0.9610294699668884,
        -0.9567667841911316
      ],
      "type": "VEC3"
    },
    {
      "bufferView": 3,
      "componentType": 5126,
      "count": 204,
      "max": [
        0.9999998211860657,
        0.9592183828353882,
        0.8827152848243713,
        1.0
      ],
      "min": [
        -0.9999998807907104,
        -0.5313448309898376,
        -0.8827154040336609,
        1.0
      ],
      "type": "VEC4"
    },
    {
      "bufferView": 1,
      "componentType": 5126,
      "count": 204,
      "max": [
        0.9941146969795227,
        0.9813874363899231
      ],
      "min": [
        0.10728691518306732,
        0.30485811829566956
      ],
      "type": "VEC2"
    },
    {
      "bufferView": 0,
      "componentType": 5125,
      "count": 756,
      "type": "SCALAR"
    },
    {
      "bufferView": 2,
      "byteOffset": 4896,
      "componentType": 5126,
      "count": 156,
      "max": [
        0.8571211695671082,
        1.013812780380249,
        3.957604169845581
      ],
      "min": [
        -0.84621661901474,
        0.7126054763793945,
        3.2039639949798584
      ],
      "type": "VEC3"
    },
    {
      "bufferView": 2,
      "byteOffset": 6768,
      "componentType": 5126,
      "count": 156,
      "max": [
        0.9724061489105225,
        0.47472143173217773,
        0.9565452933311462
      ],
      "min": [
        -0.9724050760269165,
        -0.9302516579627991,
        -0.956546425819397
      ],
      "type": "VEC3"
    },
    {
      "bufferView": 3,
      "byteOffset": 3264,
      "componentType": 5126,
      "count": 156,
      "max": [
        0.9724072813987732,
        0.47472870349884033,
        0.9565654993057251,
        1.0
      ],
      "min": [
        -0.9724064469337463,
        -0.47472691535949707,
        -0.9565462470054626,
        1.0
      ],
      "type": "VEC4"
    },
    {
      "bufferView": 1,
      "byteOffset": 1632,
      "componentType": 5126,
      "count": 156,
      "max": [
        1.7817504405975342,
        0.8222954273223877
      ],
      "min": [
        0.15533576905727386,
        0.4049447774887085
      ],
      "type": "VEC2"
    },
    {
      "bufferView": 0,
      "byteOffset": 3024,
      "componentType": 5125,
      "count": 432,
      "type": "SCALAR"
    },
    {
      "bufferView": 2,
      "byteOffset": 8640,
      "componentType": 5126,
      "count": 204,
      "max": [
        1.3466180562973022,
        0.8233752846717834,
        2.7003393173217773
      ],
      "min": [
        -1.3601768016815186,
        -1.2374744415283203,
        2.3870224952697754
      ],
      "type": "VEC3"
    },
    {
      "bufferView": 2,
      "byteOffset": 11088,
      "componentType": 5126,
      "count": 204,
      "max": [
        0.9814742803573608,
        0.9990503787994385,
        0.9985722899436951
      ],
      "min": [
        -0.9814743995666504,
        -0.9996337294578552,
        -0.9984077215194702
      ],
      "type": "VEC3"
    },
    {
      "bufferView": 3,
      "byteOffset": 5760,
      "componentType": 5126,
      "count": 204,
      "max": [
        1.0,
        0.9858174324035645,
        0.9774140119552612,
        1.0
      ],
      "min": [
        -1.0,
        -0.9858174920082092,
        -0.18596187233924866,
        1.0
      ],
      "type": "VEC4"
    },
    {
      "bufferView": 1,
      "byteOffset": 2880,
      "componentType": 5126,
      "count": 204,
      "max": [
        0.9941279292106628,
        0.9222242832183838
      ],
      "min": [
        0.00586313009262085,
        0.005855548195540905
      ],
      "type": "VEC2"
    },
    {
      "bufferView": 0,
      "byteOffset": 4752,
      "componentType": 5125,
      "count": 756,
      "type": "SCALAR"
    },
    {
      "bufferView": 2,
      "byteOffset": 13536,
      "componentType": 5126,
      "count": 380,
      "max": [
        1.3596742153167725,
        1.1604925394058228,
        3.9771549701690674
      ],
      "min": [
        -1.3777766227722168,
        -1.1407766342163086,
        0.27225375175476074
      ],
      "type": "VEC3"
    },
    {
      "bufferView": 2,
      "byteOffset": 18096,
      "componentType": 5126,
      "count": 380,
      "max": [
        0.9882161617279053,
        0.9999529719352722,
        0.9876635074615479
      ],
      "min": [
        -0.9892163872718811,
        -0.9984962940216064,
        -0.9876533150672913
      ],
      "type": "VEC3"
    },
    {
      "bufferView": 3,
      "byteOffset": 9024,
      "componentType": 5126,
      "count": 380,
      "max": [
        0.9876797199249268,
        0.9999920725822449,
        0.9892098307609558,
        1.0
      ],
      "min": [
        -0.9908656477928162,
        -0.9999995827674866,
        -0.9877297282218933,
        1.0
      ],
      "type": "VEC4"
    },
    {
      "bufferView": 1,
      "byteOffset": 4512,
      "componentType": 5126,
      "count": 380,
      "max": [
        0.9916832447052002,
        0.9685178399085999
      ],
      "min": [
        0.005862285383045673,
        0.005854626186192036
      ],
      "type": "VEC2"
    },
    {
      "bufferView": 0,
      "byteOffset": 7776,
      "componentType": 5125,
      "count": 960,
      "type": "SCALAR"
    },
    {
      "bufferView": 2,
      "byteOffset": 22656,
      "componentType": 5126,
      "count": 320,
      "max": [
        1.0825484991073608,
        1.006223440170288,
        2.1126368045806885
      ],
      "min": [
        -1.079642415046692,
        -1.0320172309875488,
        1.6798620223999023
      ],
      "type": "VEC3"
    },
    {
      "bufferView": 2,
      "byteOffset": 26496,
      "componentType": 5126,
      "count": 320,
      "max": [
        0.13842160999774933,
        0.9990807771682739,
        0.9998453855514526
      ],
      "min": [
        -0.13842159509658813,
        -0.9981963038444519,
        -0.9999029636383057
      ],
      "type": "VEC3"
    },
    {
      "bufferView": 3,
      "byteOffset": 15104,
      "componentType": 5126,
      "count": 320,
      "max": [
        0.9998495578765869,
        0.09551014751195908,
        0.9990330338478088,
        1.0
      ],
      "min": [
        -0.17490161955356598,
        -0.9999995827674866,
        -0.9981423020362854,
        1.0
      ],
      "type": "VEC4"
    },
    {
      "bufferView": 1,
      "byteOffset": 7552,
      "componentType": 5126,
      "count": 320,
      "max": [
        0.9863043427467346,
        0.9527285695075989
      ],
      "min": [
        0.00585600733757019,
        0.0058549558743834496
      ],
      "type": "VEC2"
    },
    {
      "bufferView": 0,
      "byteOffset": 11616,
      "componentType": 5125,
      "count": 1080,
      "type": "SCALAR"
    }
  ],
  "asset": {
    "extras": {
      "author": "Mary_247hard (https://sketchfab.com/Mary_247hard)",
      "license": "CC-BY-4.0 (http://creativecommons.org/licenses/by/4.0/)",
      "source": "https://sketchfab.com/3d-models/wooden-chair-d8a14f3e1c3b4ff1b482e7f96b0de688",
      "title": "Wooden chair"
    },
    "generator": "Sketchfab-15.1.0",
    "version": "2.0"
  },
  "bufferViews": [
    {
      "buffer": 0,
      "byteLength": 15936,
      "name": "floatBufferViews",
      "target": 34963
    },
    {
      "buffer": 0,
      "byteLength": 10112,
      "byteOffset": 15936,
      "byteStride": 8,
      "name": "floatBufferViews",
      "target": 34962
    },
    {
      "buffer": 0,
      "byteLength": 30336,
      "byteOffset": 26048,
      "byteStride": 12,
      "name": "floatBufferViews",
      "target": 34962
    },
    {
      "buffer": 0,
      "byteLength": 20224,
      "byteOffset": 56384,
      "byteStride": 16,
      "name": "floatBufferViews",
      "target": 34962
    }
  ],
  "buffers": [
    {
      "byteLength": 76608,
      "uri": "scene.bin"
    }
  ],
  "extensionsUsed": [
    "KHR_materials_specular"
  ],
  "images": [
    {
      "uri": "textures/Plane_Low__0_baseColor.png"
    },
    {
      "uri": "textures/Plane_Low__0_metallicRoughness.png"
    },
    {
      "uri": "textures/Plane_Low__0_normal.png"
    }
  ],
  "materials": [
    {
      "doubleSided": true,
      "extensions": {
        "KHR_materials_specular": {
          "specularColorFactor": [
            1.0,
            1.0,
            1.0
          ],
          "specularFactor": 0.12038131925735392
        }
      },
      "name": "Plane_Low__0",
      "normalTexture": {
        "index": 2
      },
      "pbrMetallicRoughness": {
        "baseColorTexture": {
          "index": 0
        },
        "metallicRoughnessTexture": {
          "index": 1
        }
      }
    },
    {
      "doubleSided": true,
      "name": "Material_1",
      "normalTexture": {
        "index": 2
      },
      "pbrMetallicRoughness": {
        "baseColorTexture": {
          "index": 0
        },
        "metallicRoughnessTexture": {
          "index": 1
        }
      }
    }
  ],
  "meshes": [
    {
      "name": "Plane_Low__0",
      "primitives": [
        {
          "attributes": {
            "NORMAL": 1,
            "POSITION": 0,
            "TANGENT": 2,
            "TEXCOORD_0": 3
          },
          "indices": 4,
          "material": 0,
          "mode": 4
        }
      ]
    },
    {
      "name": "Screw_low_Material_1_0",
      "primitives": [
        {
          "attributes": {
            "NORMAL": 6,
            "POSITION": 5,
            "TANGENT": 7,
            "TEXCOORD_0": 8
          },
          "indices": 9,
          "material": 1,
          "mode": 4
        }
      ]
    },
    {
      "name": "Seat_Low__0",
      "primitives": [
        {
          "attributes": {
            "NORMAL": 11,
            "POSITION": 10,
            "TANGENT": 12,
            "TEXCOORD_0": 13
          },
          "indices": 14,
          "material": 0,
          "mode": 4
        }
      ]
    },
    {
      "name": "Leg _Low__0",
      "primitives": [
        {
          "attributes": {
            "NORMAL": 16,
            "POSITION": 15,
            "TANGENT": 17,
            "TEXCOORD_0": 18
          },
          "indices": 19,
          "material": 0,
          "mode": 4
        }
      ]
    },
    {
      "name": "Brige_low__0",
      "primitives": [
        {
          "attributes": {
            "NORMAL": 21,
            "POSITION": 20,
            "TANGENT": 22,
            "TEXCOORD_0": 23
          },
          "indices": 24,
          "material": 0,
          "mode": 4
        }
      ]
    }
  ],
  "nodes": [
    {
      "children": [
        1
      ],
      "matrix": [
        1.0,
        0.0,
        0.0,
        0.0,
        0.0,
        2.220446049250313e-16,
        -1.0,
        0.0,
        0.0,
        1.0,
        2.220446049250313e-16,
        0.0,
        0.0,
        0.0,
        0.0,
        1.0
      ],
      "name": "Sketchfab_model"
    },
    {
      "children": [
        2
      ],
      "matrix": [
        0.009999999776482582,
        0.0,
        0.0,
        0.0,
        0.0,
        0.0,
        0.009999999776482582,
        0.0,
        0.0,
        -0.009999999776482582,
        0.0,
        0.0,
        0.0,
        0.0,
        0.0,
        1.0
      ],
      "name": "Chair final_low .fbx"
    },
    {
      "children": [
        3,
        5,
        7,
        9,
        11
      ],
      "name": "RootNode"
    },
    {
      "children": [
        4
      ],
      "matrix": [
        100.0,
        0.0,
        0.0,
        0.0,
        0.0,
        -1.629206793918314e-05,
        -99.99999999999868,
        0.0,
        0.0,
        99.99999999999868,
        -1.629206793918314e-05,
        0.0,
        0.0,
        0.0,
        0.0,
        1.0
      ],
      "name": "Plane_Low"
    },
    {
      "mesh": 0,
      "name": "Plane_Low__0"
    },
    {
      "children": [
        6
      ],
      "matrix": [
        100.0,
        0.0,
        0.0,
        0.0,
        0.0,
        -1.629206793918314e-05,
        -99.99999999999868,
        0.0,
        0.0,
        99.99999999999868,
        -1.629206793918314e-05,
        0.0,
        0.0,
        0.0,
        0.0,
        1.0
      ],
      "name": "Screw_low"
    },
    {
      "mesh": 1,
      "name": "Screw_low_Material_1_0"
    },
    {
      "children": [
        8
      ],
      "matrix": [
        100.0,
        0.0,
        0.0,
        0.0,
        0.0,
        -1.629206793918314e-05,
        -99.99999999999868,
        0.0,
        0.0,
        99.99999999999868,
        -1.629206793918314e-05,
        0.0,
        0.0,
        0.0,
        0.0,
        1.0
      ],
      "name": "Seat_Low"
    },
    {
      "mesh": 2,
      "name": "Seat_Low__0"
    },
    {
      "children": [
        10
      ],
      "matrix": [
        100.0,
        0.0,
        0.0,
        0.0,
        0.0,
        -1.629206793918314e-05,
        -99.99999999999868,
        0.0,
        0.0,
        99.99999999999868,
        -1.629206793918314e-05,
        0.0,
        0.0,
        0.0,
        0.0,
        1.0
      ],
      "name": "Leg _Low"
    },
    {
      "mesh": 3,
      "name": "Leg _Low__0"
    },
    {
      "children": [
        12
      ],
      "matrix": [
        100.0,
        0.0,
        0.0,
        0.0,
        0.0,
        -1.629206793918314e-05,
        -99.99999999999868,
        0.0,
        0.0,
        99.99999999999868,
        -1.629206793918314e-05,
        0.0,
        0.0,
        0.0,
        0.0,
        1.0
      ],
      "name": "Brige_low"
    },
    {
      "mesh": 4,
      "name": "Brige_low__0"
    }
  ],
  "samplers": [
    {
      "magFilter": 9729,
      "minFilter": 9987,
      "wrapS": 10497,
      "wrapT": 10497
    }
  ],
  "scene": 0,
  "scenes": [
    {
      "name": "Sketchfab_Scene",
      "nodes": [
        0
      ]
    }
  ],
  "textures": [
    {
      "sampler": 0,
      "source": 0
    },
    {
      "sampler": 0,
      "source": 1
    },
    {
      "sampler": 0,
      "source": 2
    }
  ]
}
