{
  "accessors": [
    {
      "bufferView": 2,
      "componentType": 5126,
      "count": 1646,
      "max": [
        362.0332336425781,
        900.2471923828125,
        411.6799011230469
      ],
      "min": [
        -362.0332336425781,
        0.339202880859375,
        -267.4162902832031
      ],
      "type": "VEC3"
    },
    {
      "bufferView": 2,
      "byteOffset": 19752,
      "componentType": 5126,
      "count": 1646,
      "max": [
        1.0,
        1.0,
        0.9999967813491821
      ],
      "min": [
        -1.0,
        -1.0,
        -1.0
      ],
      "type": "VEC3"
    },
    {
      "bufferView": 3,
      "componentType": 5126,
      "count": 1646,
      "max": [
        0.999952495098114,
        1.0,
        0.9999972581863403,
        1.0
      ],
      "min": [
        -1.0,
        -1.0,
        -0.9999963045120239,
        1.0
      ],
      "type": "VEC4"
    },
    {
      "bufferView": 1,
      "componentType": 5126,
      "count": 1646,
      "max": [
        0.9997674822807312,
        0.9993709325790405
      ],
      "min": [
        0.0009405612945556641,
        0.0004543944960460067
      ],
      "type": "VEC2"
    },
    {
      "bufferView": 1,
      "byteOffset": 13168,
      "componentType": 5126,
      "count": 1646,
      "max": [
        0.9685810208320618,
        0.9995004534721375
      ],
      "min": [
        0.0314599871635437,
        0.0004994869232177734
      ],
      "type": "VEC2"
    },
    {
      "bufferView": 0,
      "componentType": 5125,
      "count": 5586,
      "type": "SCALAR"
    }
  ],
  "asset": {
    "extras": {
      "author": "hintarose (https://sketchfab.com/hintarose)",
      "license": "CC-BY-4.0 (http://creativecommons.org/licenses/by/4.0/)",
      "source": "https://sketchfab.com/3d-models/office-chair-4b552e4d543645118bc679c8602cfede",
      "title": "office chair"
    },
    "generator": "Sketchfab-16.25.0",
    "version": "2.0"
  },
  "bufferViews": [
    {
      "buffer": 0,
      "byteLength": 22344,
      "name": "floatBufferViews",
      "target": 34963
    },
    {
      "buffer": 0,
      "byteLength": 26336,
      "byteOffset": 22344,
      "byteStride": 8,
      "name": "floatBufferViews",
      "target": 34962
    },
    {
      "buffer": 0,
      "byteLength": 39504,
      "byteOffset": 48680,
      "byteStride": 12,
      "name": "floatBufferViews",
      "target": 34962
    },
    {
      "buffer": 0,
      "byteLength": 26336,
      "byteOffset": 88184,
      "byteStride": 16,
      "name": "floatBufferViews",
      "target": 34962
    }
  ],
  "buffers": [
    {
      "byteLength": 114520,
      "uri": "scene.bin"
    }
  ],
  "images": [
    {
      "uri": "textures/Chair_154_mat_baseColor.png"
    },
    {
      "uri": "textures/Chair_154_mat_metallicRoughness.png"
    },
    {
      "uri": "textures/Chair_154_mat_normal.png"
    }
  ],
  "materials": [
    {
      "doubleSided": true,
      "name": "Chair_154_mat",
      "normalTexture": {
        "index": 2
      },
      "pbrMetallicRoughness": {
        "baseColorTexture": {
          "index": 0
        },
        "metallicRoughnessTexture": {
          "index": 1
        }
      }
    }
  ],
  "meshes": [
    {
      "name": "chair_154_Chair_154_mat_0",
      "primitives": [
        {
          "attributes": {
            "NORMAL": 1,
            "POSITION": 0,
            "TANGENT": 2,
            "TEXCOORD_0": 3,
            "TEXCOORD_1": 4
          },
          "indices": 5,
          "material": 0,
          "mode": 4
        }
      ]
    }
  ],
  "nodes": [
    {
      "children": [
        1
      ],
      "matrix": [
        1.0,
        0.0,
        0.0,
        0.0,
        0.0,
        2.220446049250313e-16,
        -1.0,
        0.0,
        0.0,
        1.0,
        2.220446049250313e-16,
        0.0,
        0.0,
        0.0,
        0.0,
        1.0
      ],
      "name": "Sketchfab_model"
    },
    {
      "children": [
        2
      ],
      "matrix": [
        0.009999999776482582,
        0.0,
        0.0,
        0.0,
        0.0,
        0.0,
        0.009999999776482582,
        0.0,
        0.0,
        -0.009999999776482582,
        0.0,
        0.0,
        0.0,
        0.0,
        0.0,
        1.0
      ],
      "name": "model.fbx"
    },
    {
      "children": [
        3
      ],
      "name": "RootNode"
    },
    {
      "children": [
        4
      ],
      "name": "chair_154"
    },
    {
      "mesh": 0,
      "name": "chair_154_Chair_154_mat_0"
    }
  ],
  "samplers": [
    {
      "magFilter": 9729,
      "minFilter": 9987,
      "wrapS": 10497,
      "wrapT": 10497
    }
  ],
  "scene": 0,
  "scenes": [
    {
      "name": "Sketchfab_Scene",
      "nodes": [
        0
      ]
    }
  ],
  "textures": [
    {
      "sampler": 0,
      "source": 0
    },
    {
      "sampler": 0,
      "source": 1
    },
    {
      "sampler": 0,
      "source": 2
    }
  ]
}
