g Seaport_Generator_A
v -1.036224 -0.3055685 -5.432129E-05
v 1.055837 -0.3055685 -5.432129E-05
v -1.036224 -0.2371756 -5.432129E-05
v 1.055837 -0.2371756 -5.432129E-05
v -1.036224 -0.3055685 0.1333237
v 1.055837 -0.3055685 0.1333237
v -1.036224 -0.2371756 0.1333237
v 1.055837 -0.2371756 0.1333237
v 1.055837 0.4249869 -5.432129E-05
v -1.036224 0.4249864 -5.432129E-05
v 1.055837 0.3565938 -5.432129E-05
v -1.036224 0.3565936 -5.432129E-05
v 1.055837 0.4249869 0.1333237
v -1.036224 0.4249864 0.1333237
v 1.055837 0.3565938 0.1333237
v -1.036224 0.3565936 0.1333237
v 0.05825912 -0.2118094 0.1307407
v 0.9205834 -0.2121783 0.1307407
v 0.05825912 0.3329433 0.1307407
v 0.9205834 0.3329433 0.1307407
v 0.05825912 -0.3561473 0.4226319
v 0.9205834 -0.3561473 0.4226319
v 0.05825912 0.4769122 0.4226319
v 0.9205834 0.4769122 0.4226319
v 0.05825912 -0.1308884 0.9884278
v 0.9205834 -0.2029442 0.9341326
v 0.05825912 0.3237091 0.9341326
v 0.9205834 0.3237091 0.9341326
v 0.05825912 -0.2029442 0.9341326
v 0.9205834 -0.1308884 0.9884278
v 0.05825912 0.2516534 0.9884278
v 0.9205834 0.2516534 0.9884278
v -0.09983741 -0.2117505 0.1303824
v -0.09983741 0.3332993 0.1303824
v -0.09983741 -0.2117505 0.6539784
v 0.05865232 -0.2117505 0.6970677
v -0.09983741 0.3332993 0.6539783
v 0.05865232 0.3332993 0.6970677
v 0.8204596 -0.2935116 0.1334088
v 0.882912 -0.2935116 0.1334088
v 0.8204597 -0.209569 0.1334088
v 0.882912 -0.209569 0.1334088
v 0.8204597 -0.2412939 0.1927837
v 0.882912 -0.2412939 0.1927837
v 0.9263818 -0.2682404 0.2491455
v 1.161 -0.3114823 0.2861914
v 0.9263818 0.4285412 0.2861914
v 1.161 0.4285412 0.2861914
v 0.9263818 -0.2682404 1.01262
v 1.161 -0.3114823 0.9755744
v 0.9263818 0.4285412 0.9755744
v 1.161 0.4285412 0.9755744
v 0.9263818 -0.3114823 0.2861914
v 1.161 -0.2682404 0.2491455
v 0.9263818 0.3852994 0.2491455
v 1.161 0.3852994 0.2491455
v 0.9263818 -0.3114823 0.9755744
v 1.161 -0.2682404 1.01262
v 0.9263818 0.3852994 1.01262
v 1.161 0.3852994 1.01262
v -0.2792155 0.04059913 0.9650111
v -0.2460171 0.04059913 0.9693816
v -0.2194519 0.04059913 0.9489974
v -0.2150812 0.04059913 0.915799
v -0.2354655 0.04059913 0.8892338
v -0.2686639 0.04059913 0.8848632
v -0.2952291 0.04059913 0.9052474
v -0.2995998 0.04059913 0.9384458
v -0.279544 -0.1874532 0.9655799
v -0.246335 -0.1856978 0.9699321
v -0.219744 -0.1814597 0.9495032
v -0.2153476 -0.1772217 0.9162603
v -0.2357212 -0.1754663 0.8896766
v -0.2689302 -0.1772217 0.8853243
v -0.2955212 -0.1814597 0.9057533
v -0.2999175 -0.1856978 0.9389962
v -0.2703023 -0.2508947 0.9495728
v -0.2379354 -0.2433586 0.9553835
v -0.2133773 -0.2251648 0.9384758
v -0.2110139 -0.206971 0.9087542
v -0.2322295 -0.1994349 0.8836289
v -0.2645965 -0.206971 0.8778182
v -0.2891545 -0.2251648 0.8947259
v -0.2915179 -0.2433586 0.9244477
v -0.2405249 -0.2976595 0.8979969
v -0.2111142 -0.2854806 0.908928
v -0.1936933 -0.2560781 0.9043821
v -0.1984669 -0.2266756 0.8870223
v -0.2226389 -0.2144967 0.8670174
v -0.2520495 -0.2266756 0.8560862
v -0.2694705 -0.2560781 0.8606321
v -0.2646968 -0.2854806 0.877992
v -0.03573227 -0.3115534 0.579771
v -0.0058535 -0.298597 0.5885902
v 0.0064085 -0.2676024 0.5922095
v -0.00612915 -0.2367258 0.5885085
v -0.03612205 -0.2240543 0.5796555
v -0.03424881 -0.2370107 0.5708363
v -0.07826286 -0.2680053 0.5672171
v -0.06572517 -0.2988819 0.5709179
v -0.01483444 -0.3115534 0.4966224
v 0.01606769 -0.298597 0.4988345
v 0.02874967 -0.2676024 0.4997424
v 0.01578259 -0.2367258 0.4988139
v -0.01523766 -0.2240543 0.4965931
v -0.04613975 -0.2370107 0.4943809
v -0.05882172 -0.2680053 0.4934731
v -0.04585464 -0.2988819 0.4944016
v -0.01624 -0.3056409 0.2793254
v 0.01462727 -0.2928271 0.2820758
v 0.02727646 -0.262217 0.2886457
v 0.01429783 -0.2317417 0.2951866
v -0.01670589 -0.2192532 0.297867
v -0.04757316 -0.2320669 0.2951165
v -0.06022232 -0.262677 0.2885466
v -0.04724369 -0.2931523 0.2820056
v -0.01623978 -0.2849235 0.2227071
v 0.01462742 -0.2740621 0.230793
v 0.0272765 -0.2481157 0.2501082
v 0.01429775 -0.2222834 0.2693382
v -0.01670586 -0.2114622 0.2770424
v -0.04757324 -0.2225587 0.2691322
v -0.06022228 -0.2485052 0.249817
v -0.04724354 -0.2743375 0.2305871
v -0.01624008 -0.2454143 0.1931844
v 0.01462719 -0.2403425 0.2055964
v 0.02727646 -0.2282283 0.2352476
v 0.01429794 -0.2161683 0.2647686
v -0.04757301 -0.2162988 0.2644545
v -0.06022228 -0.228413 0.2348033
v -0.04724377 -0.240473 0.2052823
v -0.01624027 -0.2112488 0.1885792
v 0.01462707 -0.2095151 0.2014413
v 0.02727648 -0.2053732 0.232167
v 0.01429808 -0.2012495 0.2627576
v -0.01670555 -0.1995597 0.2752937
v -0.0475729 -0.2012935 0.2624316
v -0.06022232 -0.2054353 0.2317059
v -0.04724388 -0.209559 0.2011152
v -0.2613859 0.03921425 0.926608
v -0.2613859 0.03921425 1.075565
v -0.1738315 0.03921425 1.047116
v -0.1197199 0.03921425 0.9726381
v -0.1197199 0.03921425 0.8805779
v -0.1738315 0.03921425 0.8060998
v -0.2613859 0.03921425 0.7776515
v -0.3489403 0.03921425 0.8060998
v -0.4030518 0.03921425 0.8805779
v -0.4030519 0.03921425 0.9726381
v -0.3489402 0.03921425 1.047116
v -0.2613859 0.4010689 1.075565
v -0.1738315 0.4010689 1.047116
v -0.1197199 0.4010689 0.972638
v -0.1197199 0.4010689 0.8805779
v -0.1738315 0.4010689 0.8060998
v -0.2613859 0.4010689 0.7776515
v -0.3489403 0.4010687 0.8060998
v -0.4030519 0.4010689 0.8805779
v -0.4030519 0.4010689 0.972638
v -0.3489403 0.4010689 1.047116
v -0.2613859 0.4423923 0.926608
v -0.2613859 0.4423923 1.036295
v -0.1570674 0.4423923 0.9605032
v -0.1969135 0.4423923 0.8378695
v -0.3258583 0.4423923 0.8378693
v -0.3657044 0.4423923 0.9605032
v -0.2613799 0.1806043 1.075594
v -0.1999945 0.206031 1.100029
v -0.2613799 0.1806043 1.100029
v -0.1999945 0.206031 1.055573
v -0.1745678 0.2674165 1.100029
v -0.1745678 0.2674165 1.047395
v -0.1999944 0.328802 1.100029
v -0.1999945 0.328802 1.055573
v -0.2613799 0.3542286 1.100029
v -0.2613799 0.3542286 1.075594
v -0.3227654 0.328802 1.100029
v -0.3227654 0.328802 1.055573
v -0.3481921 0.2674165 1.100029
v -0.3481921 0.2674165 1.047395
v -0.3227654 0.206031 1.100029
v -0.3227654 0.206031 1.055573
v -0.2613799 0.2674165 1.099949
v -0.2613799 0.1427766 1.099949
v -0.1732462 0.1792828 1.099949
v -0.13674 0.2674165 1.099949
v -0.1732462 0.3555502 1.099949
v -0.2613799 0.3920564 1.099949
v -0.3495136 0.3555502 1.099949
v -0.3860198 0.2674165 1.099949
v -0.3495136 0.1792828 1.099949
v -0.2613799 0.1427766 1.134549
v -0.1732462 0.1792828 1.134549
v -0.13674 0.2674165 1.134549
v -0.1732462 0.3555502 1.134549
v -0.2613799 0.3920564 1.134549
v -0.3495136 0.3555502 1.134549
v -0.3860198 0.2674165 1.134549
v -0.3495136 0.1792828 1.134549
v -0.3373353 0.2674165 1.164827
v -0.2613799 0.1914611 1.164827
v -0.1854245 0.2674165 1.164827
v -0.2613799 0.343372 1.164827
v -0.1407517 0.3506642 0.6337987
v -0.3734364 0.3506642 0.6337987
v -0.1407517 0.318426 0.6904052
v -0.3734364 0.318426 0.6904052
v -0.1407517 0.3490654 0.8459647
v -0.3734364 0.3490654 0.8459647
v -0.1407517 0.1549161 0.7596943
v -0.3734364 0.1549162 0.7596943
v -0.3734364 0.1549908 0.8459647
v -0.1407517 0.1549908 0.8459647
v -0.4130643 0.06297585 0.7870779
v -0.4130643 0.198596 0.7631645
v -0.4130642 -0.3275267 0.4594069
v -0.4130642 0.3178583 0.694308
v -0.4130642 0.4063781 0.5888144
v -0.4130642 0.4534785 0.4594071
v -0.4130642 0.4534784 0.3216947
v -0.4130642 0.4063781 0.1922874
v -0.4130642 0.3178583 0.08679378
v -0.4130642 0.198596 0.01755585
v -0.4130642 -0.0726442 0.01755585
v -0.4130642 -0.1919066 0.08679374
v -0.4130642 -0.2804263 0.1922874
v -0.4130642 -0.3275267 0.3216946
v -0.4130642 -0.2804264 0.5888142
v -0.4130642 -0.1919068 0.6943079
v -0.4130643 -0.07264458 0.7631643
v -0.09956085 0.06297585 0.7870779
v -0.09956085 0.198596 0.7631645
v -0.09956085 0.3178583 0.6943082
v -0.09956077 0.4063781 0.5888145
v -0.09956077 0.4534785 0.4594071
v -0.09956077 0.4534784 0.3216948
v -0.09956092 0.4063781 0.1922875
v -0.09956085 0.3178583 0.0867939
v -0.09956085 0.198596 0.017556
v -0.09956085 -0.0726442 0.017556
v -0.09956085 -0.1919066 0.08679378
v -0.09956092 -0.2804262 0.1922874
v -0.09956077 -0.3275267 0.3216946
v -0.09956077 -0.3275267 0.4594069
v -0.09956077 -0.2804264 0.5888143
v -0.09956085 -0.1919068 0.694308
v -0.09956085 -0.07264458 0.7631643
v -1.053888 -0.2130455 0.4454047
v -1.161 0.2564416 0.4456564
v -1.053888 0.3389973 0.3480648
v -1.053888 0.3057051 0.2565951
v -1.161 0.1353672 0.181571
v -1.053888 -0.03288528 0.1330885
v -1.161 -0.0918991 0.2569681
v -1.161 -0.1304896 0.3481943
v -1.053888 0.2431361 0.1820283
v -1.053888 -0.1171842 0.1820282
v -0.6254076 0.06297592 0.6770145
v -0.6254076 0.1588372 0.6601115
v -0.6254076 0.2431361 0.6114414
v -0.6254076 0.3057051 0.5368747
v -0.6254076 0.3389973 0.4454049
v -0.41072 0.3389973 0.3480648
v -0.41072 0.3057051 0.256595
v -0.41072 -0.1797532 0.256595
v -0.41072 -0.2130455 0.3480647
v -0.6254076 -0.2130456 0.4454047
v -0.6254076 -0.1797534 0.5368745
v -0.6254076 -0.1171844 0.6114413
v -0.6254076 -0.03288551 0.6601114
v -0.41072 0.06297592 0.6770145
v -0.41072 0.1588372 0.6601115
v -0.41072 0.2431361 0.6114414
v -0.41072 0.3057051 0.5368747
v -0.41072 0.3389973 0.4454049
v -0.4107201 0.2431361 0.1820283
v -0.4107201 0.1588372 0.1330884
v -0.4107201 -0.03288528 0.1330884
v -0.4107201 -0.1171842 0.1820282
v -0.41072 -0.2130455 0.4454048
v -0.41072 -0.1797533 0.5368745
v -0.41072 -0.1171844 0.6114414
v -0.41072 -0.03288551 0.6601114
v -1.161 -0.1304898 0.8266633
v -1.053888 0.3389973 0.8274375
v -0.6254076 -0.2130457 0.8274375
v -0.6254076 0.3389973 0.8274375
v -1.161 -0.1304897 0.4456564
v -1.053888 0.3389973 0.4454049
v -1.161 0.2564415 0.3481944
v -1.161 0.217851 0.2569682
v -1.053888 0.1588372 0.1330885
v -1.161 -0.009415283 0.181571
v -1.053888 -0.1797532 0.256595
v -1.053888 -0.2130455 0.3480647
v -1.053888 -0.2130457 0.8274375
v -1.161 0.2564416 0.8266633
v -1.089137 -0.1498504 0.8293678
v -0.7654493 -0.1498504 0.8293678
v -1.089137 0.05578468 0.8293678
v -0.7654493 0.05578468 0.8293678
v -1.089137 -0.03231651 1.103645
v -0.7654493 -0.03231651 1.103645
v -1.089137 0.05578468 1.103645
v -0.7654493 0.05578468 1.103645
v 0.02385826 0.4106956 0.4689545
v 0.01160187 0.4402852 0.4689545
v -0.01798767 0.4525416 0.4689545
v -0.04757722 0.4402852 0.4689545
v -0.0598336 0.4106956 0.4689545
v -0.04757721 0.3811061 0.4689545
v -0.01798767 0.3688497 0.4689545
v 0.01160187 0.3811061 0.4689545
v 0.02385826 0.4106956 0.8082857
v 0.01160187 0.4402852 0.8082857
v -0.01798767 0.4525416 0.8082857
v -0.04757722 0.4402852 0.8082857
v -0.0598336 0.4106956 0.8082857
v -0.04757721 0.3811061 0.8082857
v -0.01798767 0.3688497 0.8082857
v 0.01160187 0.3811061 0.8082857
v 0.02358261 0.395678 0.4350055
v 0.01140694 0.4195224 0.4231126
v -0.01798767 0.4305914 0.4164321
v -0.04738229 0.4195224 0.4231126
v -0.05955794 0.395678 0.4350055
v -0.04698839 0.2985637 0.4194173
v -0.01798767 0.2877796 0.4329032
v 0.01101305 0.2985637 0.4194173
v 0.02302555 0.3128108 0.3960511
v 0.01101305 0.3273112 0.3709357
v -0.01798767 0.3333174 0.3605326
v -0.04698839 0.3273112 0.3709357
v -0.05900089 0.3128108 0.3960511
v -0.01794372 0.4110762 0.8082781
v 0.02750408 0.3656284 0.8082781
v -0.01794372 0.3468032 0.8082781
v 0.04632917 0.4110762 0.8082781
v 0.02750408 0.4565239 0.8082781
v -0.01794372 0.4753489 0.8082781
v -0.06339151 0.4565239 0.8082781
v -0.08221662 0.4110762 0.8082781
v -0.06339151 0.3656284 0.8082781
v 0.02750408 0.3656284 0.8295197
v -0.01794372 0.3468032 0.8295197
v 0.04632917 0.4110762 0.8295197
v 0.02750408 0.4565239 0.8295197
v -0.01794372 0.4753489 0.8295197
v -0.06339151 0.4565239 0.8295197
v -0.08221662 0.4110762 0.8295197
v -0.06339151 0.3656284 0.8295197
v -0.05711157 0.4110762 0.8481076
v -0.01794372 0.3719082 0.8481076
v 0.02122412 0.4110762 0.8481076
v -0.01794372 0.450244 0.8481076
v 0.3639429 -0.3403779 0.4740966
v 0.1856948 -0.3403778 0.4740966
v 0.3639428 -0.4812177 0.4740966
v 0.2346948 -0.5302176 0.4740966
v 0.3639429 -0.2883802 0.6451692
v 0.1856948 -0.2883802 0.6451692
v 0.3149428 -0.5146937 0.612204
v 0.1856948 -0.4664381 0.6207127
v 0.3149428 -0.5302177 0.4740966
v 0.1856948 -0.4812177 0.4740966
v 0.3639428 -0.4664382 0.6207127
v 0.2346948 -0.5146937 0.612204
v 0.2724663 -0.4425681 0.3037155
v 0.2006749 -0.4425681 0.3037155
v 0.2217021 -0.4933323 0.3037155
v 0.2724663 -0.5143595 0.3037155
v 0.3266063 -0.4933324 0.3037155
v 0.3476335 -0.4425681 0.3037155
v 0.3266063 -0.3918039 0.3037155
v 0.2724663 -0.3707767 0.3037155
v 0.2217021 -0.3918039 0.3037155
v 0.1939086 -0.4425681 0.4770918
v 0.2169176 -0.4981168 0.4770918
v 0.2724663 -0.5211258 0.4770918
v 0.3313908 -0.4981168 0.4770918
v 0.3543998 -0.4425681 0.4770918
v 0.3313908 -0.3870194 0.4770918
v 0.2724663 -0.3640104 0.4770918
v 0.2169176 -0.3870194 0.4770918
v 0.1006851 -0.2935116 0.1334088
v 0.1631375 -0.2935116 0.1334088
v 0.1631375 -0.2412939 0.1927837
v 0.1006852 -0.2412939 0.1927837
v 0.1631376 -0.209569 0.1334088
v 0.1006852 -0.209569 0.1334088
v 0.1631377 0.4145094 0.1334088
v 0.1006853 0.4145094 0.1334088
v 0.1006853 0.3622916 0.1927837
v 0.1631377 0.3622916 0.1927837
v 0.1006853 0.3305668 0.1334088
v 0.1631377 0.3305668 0.1334088
v 0.8829122 0.4145093 0.1334088
v 0.8204598 0.4145093 0.1334088
v 0.8204598 0.3622915 0.1927837
v 0.8829121 0.3622915 0.1927837
v 0.8204597 0.3305667 0.1334088
v 0.8829121 0.3305667 0.1334088
v -0.7157116 0.4153314 0.1334088
v -0.778164 0.4153316 0.1334088
v -0.7157116 0.1659129 0.1334088
v -0.778164 0.1659129 0.1334088
v -0.7157116 0.2518152 0.1927837
v -0.778164 0.2518152 0.1927837
v -0.8069462 0.4153314 0.1334088
v -0.8693985 0.4153316 0.1334088
v -0.8693985 0.2518152 0.1927837
v -0.8069462 0.2518152 0.1927837
v -0.8693985 0.1659129 0.1334088
v -0.8069462 0.1659129 0.1334088
v -0.8568127 0.340378 0.4369552
v -0.8078126 0.5302177 0.4369552
v -0.7309403 0.5302177 0.4369552
v -0.6819403 0.4812177 0.4369552
v -0.6819404 0.3403779 0.4369552
v -0.8568127 0.301111 0.5716933
v -0.6819404 0.3011109 0.5716933
v -0.6819403 0.4791688 0.5472367
v -0.7309403 0.5274245 0.538728
v -0.8568125 0.479169 0.5472367
v -0.8078126 0.5274245 0.538728
v -0.8568125 0.4812178 0.4369552
v -0.7687119 0.4425682 0.2665741
v -0.7179476 0.4933324 0.2665741
v -0.6969204 0.4425682 0.2665741
v -0.7687119 0.5143596 0.2665741
v -0.819476 0.4933325 0.2665741
v -0.8405032 0.4425682 0.2665741
v -0.819476 0.391804 0.2665741
v -0.7687119 0.3707767 0.2665741
v -0.7179476 0.3918039 0.2665741
v -0.7131631 0.4981169 0.4399504
v -0.6901541 0.4425682 0.4399504
v -0.7687119 0.5211259 0.4399504
v -0.8242605 0.4981169 0.4399504
v -0.8472695 0.4425682 0.4399504
v -0.8242605 0.3870195 0.4399504
v -0.7687119 0.3640105 0.4399504
v -0.7131631 0.3870195 0.4399504
v -0.8693985 -0.2824007 0.1334088
v -0.8069462 -0.2824008 0.1334088
v -0.8693985 -0.03298203 0.1334088
v -0.8069462 -0.03298203 0.1334088
v -0.8693985 -0.1188843 0.1927837
v -0.8069462 -0.1188843 0.1927837
v -0.778164 -0.2824007 0.1334088
v -0.7157117 -0.2824008 0.1334088
v -0.7157116 -0.1188843 0.1927837
v -0.778164 -0.1188843 0.1927837
v -0.7157116 -0.03298203 0.1334088
v -0.778164 -0.03298203 0.1334088
v 1.055837 -0.3055685 0.1333237
v -1.036224 -0.3055685 0.1333237
v 1.055837 -0.3055685 -5.432129E-05
v 1.055837 -0.2371756 0.1333237
v 1.055837 -0.3055685 0.1333237
v 1.055837 -0.2371756 -5.432129E-05
v -1.036224 -0.2371756 0.1333237
v 1.055837 -0.2371756 0.1333237
v -1.036224 -0.2371756 -5.432129E-05
v -1.036224 -0.3055685 0.1333237
v -1.036224 -0.3055685 -5.432129E-05
v -1.036224 -0.2371756 0.1333237
v -1.036224 0.4249864 0.1333237
v 1.055837 0.4249869 0.1333237
v -1.036224 0.4249864 -5.432129E-05
v -1.036224 0.3565936 0.1333237
v -1.036224 0.4249864 0.1333237
v -1.036224 0.3565936 -5.432129E-05
v 1.055837 0.3565938 0.1333237
v -1.036224 0.3565936 0.1333237
v 1.055837 0.3565938 -5.432129E-05
v 1.055837 0.4249869 0.1333237
v 1.055837 0.4249869 -5.432129E-05
v 1.055837 0.3565938 0.1333237
v 0.9205834 -0.2121783 0.1307407
v 0.9205834 -0.3561473 0.4226319
v 0.9205834 0.3329433 0.1307407
v 0.9205834 0.4769122 0.4226319
v 0.05825912 -0.3561473 0.4226319
v 0.9205834 -0.3561473 0.4226319
v 0.9205834 0.2516534 0.9884278
v 0.9205834 -0.2029442 0.9341326
v 0.9205834 0.4769122 0.4226319
v 0.05825912 0.4769122 0.4226319
v 0.9205834 0.3237091 0.9341326
v 0.9205834 -0.1308884 0.9884278
v 0.05825912 -0.2029442 0.9341326
v 0.9205834 -0.2029442 0.9341326
v 0.05825912 0.3237091 0.9341326
v 0.9205834 0.3237091 0.9341326
v 0.05865232 -0.2117505 0.6970677
v 0.05825912 -0.2118094 0.1307407
v -0.09983741 -0.2117505 0.6539784
v 0.05825912 0.3329433 0.1307407
v -0.09983741 0.3332993 0.6539783
v 0.05865232 0.3332993 0.6970677
v 0.05825912 -0.2029442 0.9341326
v 0.05865232 0.3332993 0.6970677
v 0.05825912 0.3237091 0.9341326
v 0.05865232 -0.2117505 0.6970677
v 0.05825912 -0.1308884 0.9884278
v 0.05825912 0.2516534 0.9884278
v 0.05825912 -0.3561473 0.4226319
v 0.05825912 -0.2118094 0.1307407
v 0.05825912 0.3329433 0.1307407
v 0.05825912 0.4769122 0.4226319
v 0.882912 -0.2935116 0.1334088
v 0.882912 -0.2412939 0.1927837
v 0.8204596 -0.2935116 0.1334088
v 0.8204597 -0.2412939 0.1927837
v 1.161 0.3852994 1.01262
v 1.161 -0.3114823 0.2861914
v 1.161 -0.3114823 0.9755744
v 1.161 0.4285412 0.2861914
v 1.161 0.4285412 0.9755744
v 0.9263818 -0.3114823 0.9755744
v 0.9263818 -0.3114823 0.2861914
v 0.9263818 -0.2682404 1.01262
v 0.9263818 0.4285412 0.2861914
v 0.9263818 0.4285412 0.9755744
v 1.161 -0.2682404 1.01262
v 0.9263818 0.3852994 1.01262
v 0.9263818 0.3852994 0.2491455
v 1.161 0.3852994 0.2491455
v 0.9263818 0.4285412 0.2861914
v 1.161 0.4285412 0.2861914
v 0.9263818 -0.3114823 0.2861914
v 1.161 -0.3114823 0.2861914
v 0.9263818 -0.2682404 0.2491455
v 1.161 -0.2682404 0.2491455
v 0.9263818 0.4285412 0.9755744
v 1.161 0.4285412 0.9755744
v -0.2150812 0.04059913 0.915799
v -0.2153476 -0.1772217 0.9162603
v -0.2110139 -0.206971 0.9087542
v -0.1984669 -0.2266756 0.8870223
v -0.00612915 -0.2367258 0.5885085
v 0.01578259 -0.2367258 0.4988139
v 0.01429783 -0.2317417 0.2951866
v 0.01429775 -0.2222834 0.2693382
v 0.01429794 -0.2161683 0.2647686
v 0.01429808 -0.2012495 0.2627576
v -0.2613859 0.03921425 1.075565
v -0.1738315 0.03921425 1.047116
v -0.1197199 0.03921425 0.9726381
v -0.1197199 0.03921425 0.8805779
v -0.1738315 0.03921425 0.8060998
v -0.2613859 0.03921425 0.7776515
v -0.2613859 0.03921425 0.7776515
v -0.2613859 0.4010689 0.7776515
v -0.3489403 0.03921425 0.8060998
v -0.4030518 0.03921425 0.8805779
v -0.4030519 0.03921425 0.9726381
v -0.3489402 0.03921425 1.047116
v -0.2613859 0.4010689 1.075565
v -0.2613859 0.03921425 1.075565
v -0.2613859 0.4010689 1.075565
v -0.1738315 0.4010689 1.047116
v -0.1197199 0.4010689 0.972638
v -0.1197199 0.4010689 0.8805779
v -0.1738315 0.4010689 0.8060998
v -0.2613859 0.4010689 0.7776515
v -0.3489403 0.4010687 0.8060998
v -0.4030519 0.4010689 0.8805779
v -0.4030519 0.4010689 0.972638
v -0.3489403 0.4010689 1.047116
v -0.2613799 0.3542286 1.075594
v -0.2613799 0.3542286 1.100029
v -0.2613799 0.1806043 1.100029
v -0.2613799 0.1806043 1.075594
v -0.2613799 0.1427766 1.099949
v -0.1732462 0.1792828 1.099949
v -0.13674 0.2674165 1.099949
v -0.1732462 0.3555502 1.099949
v -0.2613799 0.3920564 1.099949
v -0.2613799 0.3920564 1.099949
v -0.2613799 0.3920564 1.134549
v -0.3495136 0.3555502 1.099949
v -0.3860198 0.2674165 1.099949
v -0.3495136 0.1792828 1.099949
v -0.2613799 0.1427766 1.134549
v -0.2613799 0.1427766 1.099949
v -0.1732462 0.1792828 1.134549
v -0.2613799 0.1427766 1.134549
v -0.13674 0.2674165 1.134549
v -0.1732462 0.3555502 1.134549
v -0.2613799 0.3920564 1.134549
v -0.3495136 0.3555502 1.134549
v -0.3860198 0.2674165 1.134549
v -0.3495136 0.1792828 1.134549
v -0.3734364 0.3506642 0.6337987
v -0.3734364 0.3490654 0.8459647
v -0.1407517 0.3506642 0.6337987
v -0.1407517 0.3490654 0.8459647
v -0.1407517 0.1549908 0.8459647
v -0.3734364 0.1549162 0.7596943
v -0.3734364 0.1549908 0.8459647
v -0.1407517 0.1549161 0.7596943
v -0.4130643 0.198596 0.7631645
v -0.4130643 0.06297585 0.7870779
v -0.4130642 0.3178583 0.694308
v -0.4130642 0.4063781 0.5888144
v -0.4130642 0.4534785 0.4594071
v -0.4130642 0.4534784 0.3216947
v -0.4130642 0.4063781 0.1922874
v -0.4130642 0.3178583 0.08679378
v -0.4130642 0.198596 0.01755585
v -0.4130642 -0.1919066 0.08679374
v -0.4130642 -0.0726442 0.01755585
v -0.4130642 -0.2804263 0.1922874
v -0.4130642 -0.3275267 0.3216946
v -0.4130642 -0.3275267 0.4594069
v -0.4130642 -0.2804264 0.5888142
v -0.4130642 -0.1919068 0.6943079
v -0.4130643 -0.07264458 0.7631643
v -0.4130643 0.06297585 0.7870779
v -0.09956085 0.06297585 0.7870779
v -0.09956085 0.198596 0.7631645
v -0.09956085 0.3178583 0.6943082
v -0.09956085 -0.07264458 0.7631643
v -0.09956077 0.4063781 0.5888145
v -0.09956077 -0.2804264 0.5888143
v -0.09956077 -0.3275267 0.4594069
v -0.09956077 0.4534785 0.4594071
v -0.09956077 0.4534784 0.3216948
v -0.09956092 0.4063781 0.1922875
v -0.09956077 -0.3275267 0.3216946
v -0.09956085 0.3178583 0.0867939
v -0.09956092 -0.2804262 0.1922874
v -0.09956085 0.198596 0.017556
v -0.09956085 -0.1919066 0.08679378
v -0.09956085 -0.0726442 0.017556
v -0.09956085 -0.1919068 0.694308
v -0.09956085 0.06297585 0.7870779
v -0.6254076 0.3389973 0.4454049
v -0.41072 0.3389973 0.4454049
v -0.41072 -0.2130455 0.4454048
v -0.6254076 -0.2130456 0.4454047
v -0.6254076 0.06297592 0.6770145
v -0.6254076 0.3389973 0.8274375
v -0.6254076 0.1588372 0.6601115
v -0.6254076 -0.2130457 0.8274375
v -0.6254076 0.2431361 0.6114414
v -0.6254076 0.3057051 0.5368747
v -0.6254076 0.3389973 0.4454049
v -0.6254076 0.3389973 0.4454049
v -1.053888 0.3389973 0.8274375
v -0.6254076 0.3389973 0.8274375
v -0.6254076 -0.2130457 0.8274375
v -0.6254076 -0.2130456 0.4454047
v -1.053888 -0.2130457 0.8274375
v -0.6254076 -0.2130456 0.4454047
v -0.6254076 -0.1797534 0.5368745
v -0.6254076 -0.1171844 0.6114413
v -0.6254076 -0.03288551 0.6601114
v -1.161 -0.1304898 0.8266633
v -1.161 0.2564416 0.8266633
v -1.161 0.2564416 0.4456564
v -1.161 0.2564415 0.3481944
v -1.053888 0.3389973 0.4454049
v -1.053888 0.3389973 0.3480648
v -1.161 0.217851 0.2569682
v -1.053888 0.3057051 0.2565951
v -1.053888 -0.2130455 0.4454047
v -1.053888 -0.2130455 0.3480647
v -1.161 -0.1304897 0.4456564
v -1.161 -0.1304896 0.3481943
v -1.161 0.1353672 0.181571
v -1.161 -0.009415283 0.181571
v -1.161 -0.0918991 0.2569681
v -1.053888 -0.1797532 0.256595
v -1.161 -0.1304898 0.8266633
v -1.053888 -0.2130457 0.8274375
v -1.053888 0.3389973 0.8274375
v -1.161 0.2564416 0.8266633
v -0.7654493 -0.03231651 1.103645
v -1.089137 -0.03231651 1.103645
v -0.7654493 -0.1498504 0.8293678
v -0.7654493 0.05578468 1.103645
v -0.7654493 -0.03231651 1.103645
v -0.7654493 0.05578468 0.8293678
v -1.089137 0.05578468 1.103645
v -0.7654493 0.05578468 1.103645
v -1.089137 0.05578468 0.8293678
v -1.089137 -0.03231651 1.103645
v -1.089137 -0.1498504 0.8293678
v -1.089137 0.05578468 1.103645
v -0.01798767 0.3688497 0.4689545
v -0.01798767 0.3688497 0.8082857
v -0.01798767 0.2877796 0.4329032
v -0.01794372 0.3468032 0.8082781
v 0.02750408 0.3656284 0.8082781
v 0.04632917 0.4110762 0.8082781
v 0.02750408 0.4565239 0.8082781
v -0.01794372 0.4753489 0.8082781
v -0.01794372 0.4753489 0.8082781
v -0.01794372 0.4753489 0.8295197
v -0.06339151 0.4565239 0.8082781
v -0.08221662 0.4110762 0.8082781
v -0.06339151 0.3656284 0.8082781
v -0.01794372 0.3468032 0.8295197
v -0.01794372 0.3468032 0.8082781
v 0.02750408 0.3656284 0.8295197
v -0.01794372 0.3468032 0.8295197
v 0.04632917 0.4110762 0.8295197
v 0.02750408 0.4565239 0.8295197
v -0.01794372 0.4753489 0.8295197
v -0.06339151 0.4565239 0.8295197
v -0.08221662 0.4110762 0.8295197
v -0.06339151 0.3656284 0.8295197
v -1.053888 0.2431361 0.1820283
v 0.1856948 -0.3403778 0.4740966
v 0.1856948 -0.4664381 0.6207127
v 0.1856948 -0.4812177 0.4740966
v 0.1856948 -0.2883802 0.6451692
v 0.2346948 -0.5302176 0.4740966
v 0.3149428 -0.5302177 0.4740966
v 0.2346948 -0.5146937 0.612204
v 0.3639429 -0.2883802 0.6451692
v 0.3639429 -0.3403779 0.4740966
v 0.3639428 -0.4664382 0.6207127
v 0.3639428 -0.4812177 0.4740966
v 0.3149428 -0.5146937 0.612204
v 0.2006749 -0.4425681 0.3037155
v 0.2217021 -0.4933323 0.3037155
v 0.2724663 -0.5143595 0.3037155
v 0.2724663 -0.5143595 0.3037155
v 0.2724663 -0.5211258 0.4770918
v 0.3266063 -0.4933324 0.3037155
v 0.3476335 -0.4425681 0.3037155
v 0.3266063 -0.3918039 0.3037155
v 0.2724663 -0.3707767 0.3037155
v 0.2724663 -0.3707767 0.3037155
v 0.2724663 -0.3640104 0.4770918
v 0.2217021 -0.3918039 0.3037155
v -1.053888 -0.1171842 0.1820282
v -1.053888 0.1588372 0.1330885
v -1.053888 -0.03288528 0.1330885
v 0.1631375 -0.2935116 0.1334088
v 0.1631375 -0.2412939 0.1927837
v 0.1006851 -0.2935116 0.1334088
v 0.1006852 -0.2412939 0.1927837
v 0.1006853 0.4145094 0.1334088
v 0.1006853 0.3622916 0.1927837
v 0.1631377 0.4145094 0.1334088
v 0.1631377 0.3622916 0.1927837
v 0.8204598 0.4145093 0.1334088
v 0.8204598 0.3622915 0.1927837
v 0.8829122 0.4145093 0.1334088
v 0.8829121 0.3622915 0.1927837
v -0.778164 0.4153316 0.1334088
v -0.778164 0.2518152 0.1927837
v -0.7157116 0.4153314 0.1334088
v -0.7157116 0.2518152 0.1927837
v -0.8693985 0.4153316 0.1334088
v -0.8693985 0.2518152 0.1927837
v -0.8069462 0.4153314 0.1334088
v -0.8069462 0.2518152 0.1927837
v -0.6819404 0.3403779 0.4369552
v -0.6819403 0.4791688 0.5472367
v -0.6819403 0.4812177 0.4369552
v -0.6819404 0.3011109 0.5716933
v -0.7309403 0.5302177 0.4369552
v -0.8078126 0.5302177 0.4369552
v -0.7309403 0.5274245 0.538728
v -0.8568127 0.301111 0.5716933
v -0.8568127 0.340378 0.4369552
v -0.8568125 0.479169 0.5472367
v -0.8568125 0.4812178 0.4369552
v -0.8078126 0.5274245 0.538728
v -0.6969204 0.4425682 0.2665741
v -0.7179476 0.4933324 0.2665741
v -0.7687119 0.5143596 0.2665741
v -0.7687119 0.5143596 0.2665741
v -0.7687119 0.5211259 0.4399504
v -0.819476 0.4933325 0.2665741
v -0.8405032 0.4425682 0.2665741
v -0.819476 0.391804 0.2665741
v -0.7687119 0.3707767 0.2665741
v -0.7687119 0.3707767 0.2665741
v -0.7687119 0.3640105 0.4399504
v -0.7179476 0.3918039 0.2665741
v -0.8069462 -0.2824008 0.1334088
v -0.8069462 -0.1188843 0.1927837
v -0.8693985 -0.2824007 0.1334088
v -0.8693985 -0.1188843 0.1927837
v -0.7157117 -0.2824008 0.1334088
v -0.7157116 -0.1188843 0.1927837
v -0.778164 -0.2824007 0.1334088
v -0.778164 -0.1188843 0.1927837
vt 0.08293885 0.02139335
vt 0.08293891 0.7471616
vt 0.08293918 0.7471616
vt 0.08307607 0.7471616
vt 0.03506135 0.02139335
vt 0.03506142 0.7471616
vt 0.0167953 0.02139335
vt 0.01679537 0.7471616
vt 0.08293858 0.02139335
vt 0.08293866 0.7471616
vt 0.08293918 0.7471616
vt 0.08307607 0.7471616
vt 0.03506108 0.02139335
vt 0.03506115 0.7471616
vt 0.01679504 0.02139335
vt 0.01679511 0.7471616
vt 0.1100069 0.0170972
vt 0.3356532 0.0170972
vt 0.1100069 0.0170972
vt 0.3795587 0.01602972
vt 0.1100069 0.09848066
vt 0.3356532 0.09848066
vt 0.1100069 0.09848066
vt 0.3446084 0.08381638
vt 0.1100069 0.2714608
vt 0.3356532 0.2410944
vt 0.1100069 0.2410944
vt 0.3818006 0.2026035
vt 0.1100069 0.2410944
vt 0.3356533 0.2714609
vt 0.1100069 0.4019328
vt 0.3356533 0.4019329
vt 0.393937 0.8469798
vt 0.393937 0.8469798
vt 0.3940547 0.8450501
vt 0.3940507 0.8036819
vt 0.5334403 0.8450501
vt 0.5334403 0.8036819
vt 0.06623903 0.8914346
vt 0.09862617 0.8914748
vt 0.03351507 0.9197075
vt 0.1312778 0.919829
vt 0.06618796 0.9318194
vt 0.09857403 0.9318596
vt 0.7621762 0.01204574
vt 0.9819376 0.3899801
vt 0.9290288 0.3899801
vt 0.5553967 0.2483476
vt 0.9290288 0.5624951
vt 0.9819376 0.550141
vt 0.9290288 0.5501483
vt 0.5553967 0.4436525
vt 0.9290288 0.3899801
vt 0.7621762 0.2378522
vt 0.5682295 0.01204574
vt 0.5682295 0.2378522
vt 0.9290288 0.550141
vt 0.9819376 0.5624951
vt 0.9290288 0.7018217
vt 0.9819376 0.7018217
vt 0.160391 0.8232663
vt 0.1706626 0.823266
vt 0.1806585 0.823266
vt 0.1914362 0.8232659
vt 0.1208769 0.8232639
vt 0.1310213 0.8232648
vt 0.1409845 0.8232655
vt 0.1511313 0.823266
vt 0.160391 0.753554
vt 0.1706626 0.753554
vt 0.1806585 0.753554
vt 0.1914362 0.753554
vt 0.1208769 0.753554
vt 0.1310213 0.753554
vt 0.1409845 0.753554
vt 0.1511313 0.753554
vt 0.160391 0.7383723
vt 0.1706626 0.7383723
vt 0.1806585 0.7383723
vt 0.1914362 0.7383723
vt 0.1208769 0.7383723
vt 0.1310213 0.7383723
vt 0.1409845 0.7383723
vt 0.1511313 0.7383723
vt 0.160391 0.7185904
vt 0.1706626 0.7185904
vt 0.1806585 0.7185906
vt 0.1914362 0.7185906
vt 0.1208769 0.7185906
vt 0.1310213 0.7185906
vt 0.1409845 0.7185906
vt 0.1511316 0.7185906
vt 0.160391 0.6027211
vt 0.1706626 0.6027211
vt 0.1806585 0.6027211
vt 0.1914362 0.6027211
vt 0.1208769 0.6027211
vt 0.1310213 0.6027211
vt 0.1409845 0.6027211
vt 0.1511321 0.6027211
vt 0.160391 0.5767148
vt 0.1706626 0.5767146
vt 0.1806585 0.5767146
vt 0.1914362 0.5767148
vt 0.1208769 0.5767146
vt 0.1310213 0.5767148
vt 0.1409845 0.5767149
vt 0.1511321 0.5767149
vt 0.160391 0.501281
vt 0.1706626 0.501281
vt 0.1806585 0.501281
vt 0.1914362 0.501281
vt 0.1208769 0.501281
vt 0.1310213 0.501281
vt 0.1409845 0.501281
vt 0.1511326 0.501281
vt 0.160391 0.4836915
vt 0.1706626 0.4836915
vt 0.1806585 0.4836915
vt 0.1914362 0.4836915
vt 0.1208769 0.4836915
vt 0.1310213 0.4836915
vt 0.1409845 0.4836915
vt 0.1511326 0.4836915
vt 0.160391 0.4598424
vt 0.1706626 0.4602187
vt 0.1806585 0.4658459
vt 0.1914362 0.4735461
vt 0.1310213 0.4780647
vt 0.1409845 0.4709693
vt 0.1511324 0.4641096
vt 0.160391 0.4484212
vt 0.1706626 0.4488188
vt 0.1806585 0.4568827
vt 0.1914362 0.4665414
vt 0.1208769 0.4771871
vt 0.1310213 0.4732989
vt 0.1409845 0.4646817
vt 0.1511316 0.4552979
vt 0.619904 0.517821
vt 0.619904 0.5667583
vt 0.6506125 0.5574123
vt 0.6695918 0.5329435
vt 0.6695918 0.5026985
vt 0.6506125 0.4782297
vt 0.619904 0.4688837
vt 0.5891952 0.4782297
vt 0.5702162 0.5026985
vt 0.5702162 0.5329435
vt 0.5891952 0.5574123
vt 0.7916009 0.4347773
vt 0.7916009 0.4056826
vt 0.7916009 0.3751789
vt 0.7916009 0.3428783
vt 0.7916009 0.3123746
vt 0.7916009 0.2832801
vt 0.7916009 0.3123746
vt 0.7916009 0.3428783
vt 0.7916009 0.3751789
vt 0.7916009 0.4056826
vt 0.9142771 0.7750491
vt 0.9142771 0.8084557
vt 0.8815941 0.7854067
vt 0.8941206 0.7479915
vt 0.9344335 0.7479915
vt 0.9469602 0.7854067
vt 0.407813 0.7863529
vt 0.3773462 0.774632
vt 0.407813 0.774632
vt 0.3773462 0.7959572
vt 0.3431449 0.774632
vt 0.3431449 0.79988
vt 0.3089432 0.774632
vt 0.3089432 0.7959572
vt 0.2784767 0.774632
vt 0.2784767 0.7863529
vt 0.3089432 0.774632
vt 0.3089432 0.7959572
vt 0.3431449 0.774632
vt 0.3431449 0.79988
vt 0.3773462 0.774632
vt 0.3773462 0.7959572
vt 0.510182 0.4704746
vt 0.510182 0.5043755
vt 0.534521 0.4944462
vt 0.5446026 0.4704746
vt 0.534521 0.4465031
vt 0.510182 0.4365737
vt 0.4858426 0.4465031
vt 0.4757613 0.4704746
vt 0.4858426 0.4944462
vt 0.5023401 0.521133
vt 0.5023401 0.5652784
vt 0.5023401 0.6145679
vt 0.5023401 0.6638578
vt 0.5023401 0.7080031
vt 0.5023401 0.6638578
vt 0.5023401 0.6145679
vt 0.5023401 0.5652784
vt 0.4459034 0.260038
vt 0.4779037 0.2919369
vt 0.4459034 0.3238361
vt 0.4139028 0.2919369
vt 0.4686758 0.7058999
vt 0.4167329 0.7058557
vt 0.4840328 0.7246997
vt 0.4013433 0.7246294
vt 0.4686263 0.7626649
vt 0.4166839 0.7626649
vt 0.5237257 0.7479215
vt 0.3616097 0.7477843
vt 0.361764 0.762665
vt 0.5235451 0.762665
vt 0.3446909 0.7186885
vt 0.2962166 0.7101448
vt 0.4842659 0.6016186
vt 0.2535893 0.6855437
vt 0.2219504 0.6478532
vt 0.2051153 0.6016186
vt 0.2051155 0.5524169
vt 0.2219504 0.5061824
vt 0.2535893 0.4684917
vt 0.2962166 0.4437543
vt 0.3931646 0.4437543
vt 0.4357919 0.4684915
vt 0.4674307 0.5061824
vt 0.4842659 0.5524169
vt 0.4674309 0.6478532
vt 0.4357919 0.6855437
vt 0.3931646 0.7101448
vt 0.4457073 0.904305
vt 0.4078515 0.904305
vt 0.3706412 0.904305
vt 0.3322318 0.9043048
vt 0.2961698 0.9043048
vt 0.2577931 0.9043048
vt 0.2203445 0.904305
vt 0.183322 0.904305
vt 0.1480846 0.904305
vt 0.1480846 0.904305
vt 0.183322 0.904305
vt 0.2203445 0.904305
vt 0.2577931 0.9043048
vt 0.2961698 0.9043048
vt 0.3322318 0.9043048
vt 0.3706412 0.904305
vt 0.4078515 0.904305
vt 0.7830856 0.145417
vt 0.7637511 0.560258
vt 0.7830856 0.1122512
vt 0.7830856 0.07662903
vt 0.8007235 0.4950773
vt 0.8527626 0.4634488
vt 0.8669423 0.5126834
vt 0.8788739 0.5349826
vt 0.7605637 0.4764195
vt 0.8828443 0.4781959
vt 0.9160585 0.2595355
vt 0.9160584 0.2878579
vt 0.9160579 0.3161801
vt 0.9160579 0.3445027
vt 0.9145964 0.1454171
vt 0.9805521 0.1122513
vt 0.9805521 0.07662903
vt 0.9805521 0.07662903
vt 0.9805521 0.1122512
vt 0.9145964 0.1454171
vt 0.9160592 0.1745678
vt 0.9160591 0.2028904
vt 0.916059 0.231213
vt 0.9794834 0.2595353
vt 0.9794833 0.2878579
vt 0.9794831 0.3161801
vt 0.9794829 0.3445025
vt 0.9794829 0.3728251
vt 0.9805521 0.04284667
vt 0.9805521 0.01477999
vt 0.9805521 0.01477999
vt 0.9805521 0.04284667
vt 0.9805521 0.1454171
vt 0.9794844 0.1745676
vt 0.9794841 0.2028904
vt 0.9794838 0.2312127
vt 0.8788741 0.6692181
vt 0.7006048 0.752481
vt 0.5353819 0.6379446
vt 0.7006048 0.6379446
vt 0.8788741 0.5602582
vt 0.7830856 0.1454171
vt 0.7637511 0.5349825
vt 0.7761497 0.512683
vt 0.7920523 0.4634485
vt 0.8422661 0.4950775
vt 0.7830856 0.07662903
vt 0.7830856 0.1122512
vt 0.5353819 0.752481
vt 0.7637509 0.6692142
vt 0.8306481 0.911983
vt 0.7191209 0.9119517
vt 0.8307072 0.6877551
vt 0.6540104 0.8844391
vt 0.8306879 0.8107191
vt 0.719162 0.8106984
vt 0.8306938 0.7808247
vt 0.7191704 0.7808164
vt 0.3232159 0.8340176
vt 0.3232159 0.8425738
vt 0.3232156 0.8515006
vt 0.323216 0.8596213
vt 0.323216 0.868057
vt 0.3232165 0.8762909
vt 0.3232165 0.8851758
vt 0.3232164 0.8250709
vt 0.2262509 0.834016
vt 0.2262503 0.8425727
vt 0.2262501 0.8515006
vt 0.2262504 0.8596229
vt 0.2262509 0.8680591
vt 0.2262509 0.8762925
vt 0.2262512 0.8851773
vt 0.2262509 0.8250688
vt 0.3309476 0.8340176
vt 0.333297 0.8425738
vt 0.3337311 0.8515006
vt 0.333032 0.8596213
vt 0.3300902 0.868057
vt 0.3540961 0.8762909
vt 0.3519038 0.8851768
vt 0.3534939 0.8250699
vt 0.3566109 0.8340165
vt 0.3615202 0.8425727
vt 0.3640978 0.8515006
vt 0.3633351 0.8596213
vt 0.3581394 0.8680575
vt 0.9459257 0.8658401
vt 0.96773 0.8443657
vt 0.9459257 0.8354703
vt 0.9767612 0.8658401
vt 0.96773 0.8873145
vt 0.9459257 0.8962095
vt 0.924122 0.8873145
vt 0.9150905 0.8658401
vt 0.924122 0.8443657
vt 0.5055531 0.7932956
vt 0.5330651 0.7932956
vt 0.4756012 0.7932956
vt 0.4456491 0.7932956
vt 0.418137 0.7932956
vt 0.4456491 0.7932956
vt 0.4756012 0.7932956
vt 0.5055531 0.7932956
vt 0.2196172 0.7194549
vt 0.2376184 0.7020186
vt 0.2556196 0.7194549
vt 0.2376184 0.7368917
vt 0.8431616 0.7210535
vt 0.8429779 0.6762108
vt 0.1494567 0.8822397
vt 0.8924563 0.6885784
vt 0.2652488 0.7553267
vt 0.2652248 0.8004367
vt 0.1261779 0.849924
vt 0.2181112 0.800422
vt 0.8925372 0.7082903
vt 0.8796476 0.6760648
vt 0.2181389 0.7553366
vt 0.2053227 0.7877957
vt 0.06023398 0.8065801
vt 0.0390757 0.8065801
vt 0.0452728 0.7918441
vt 0.06023398 0.7857403
vt 0.07519621 0.7918441
vt 0.08139332 0.8065801
vt 0.07519621 0.8213161
vt 0.06023398 0.8274196
vt 0.0452728 0.8213161
vt 0.5189447 0.9809405
vt 0.5424992 0.9809405
vt 0.5640886 0.9809405
vt 0.5424992 0.9809405
vt 0.5189447 0.9809405
vt 0.4953898 0.9809405
vt 0.4738006 0.9809405
vt 0.4953898 0.9809405
vt 0.06623903 0.8914346
vt 0.09862617 0.8914748
vt 0.09857403 0.9318596
vt 0.06618796 0.9318194
vt 0.1312778 0.919829
vt 0.03351507 0.9197075
vt 0.06623903 0.8914346
vt 0.09862617 0.8914748
vt 0.09857403 0.9318596
vt 0.06618796 0.9318194
vt 0.1312778 0.919829
vt 0.03351507 0.9197075
vt 0.06623903 0.8914346
vt 0.09862617 0.8914748
vt 0.09857403 0.9318596
vt 0.06618796 0.9318194
vt 0.1312778 0.919829
vt 0.03351507 0.9197075
vt 0.6277158 0.9160407
vt 0.5954793 0.9160407
vt 0.6716577 0.7968555
vt 0.5515382 0.7968545
vt 0.6277161 0.8276014
vt 0.5954793 0.8276014
vt 0.6277158 0.9160407
vt 0.5954793 0.9160407
vt 0.5954793 0.8276014
vt 0.6277161 0.8276014
vt 0.5515382 0.7968545
vt 0.6716577 0.7968555
vt 0.8431616 0.7210535
vt 0.8925372 0.7082903
vt 0.8924563 0.6885784
vt 0.8796476 0.6760648
vt 0.8429779 0.6762108
vt 0.2652488 0.7553267
vt 0.2652248 0.8004367
vt 0.2181112 0.800422
vt 0.2053227 0.7877957
vt 0.2181389 0.7553366
vt 0.1261779 0.849924
vt 0.1494567 0.8822397
vt 0.06023398 0.8065801
vt 0.0452728 0.7918441
vt 0.0390757 0.8065801
vt 0.06023398 0.7857403
vt 0.07519621 0.7918441
vt 0.08139332 0.8065801
vt 0.07519621 0.8213161
vt 0.06023398 0.8274196
vt 0.0452728 0.8213161
vt 0.5424992 0.9809405
vt 0.5189447 0.9809405
vt 0.5640886 0.9809405
vt 0.5424992 0.9809405
vt 0.5189447 0.9809405
vt 0.4953898 0.9809405
vt 0.4738006 0.9809405
vt 0.4953898 0.9809405
vt 0.6276253 0.9157052
vt 0.5955698 0.9157052
vt 0.6713198 0.7971904
vt 0.5518761 0.7971898
vt 0.6276253 0.8277638
vt 0.5955702 0.8277635
vt 0.6276253 0.9157052
vt 0.5955698 0.9157052
vt 0.5955702 0.8277635
vt 0.6276253 0.8277638
vt 0.5518761 0.7971898
vt 0.6713198 0.7971904
vt 0.03506142 0.7471616
vt 0.03506135 0.02139335
vt 0.08307607 0.7690914
vt 0.03519312 0.7471616
vt 0.03519312 0.7690914
vt 0.08293912 0.02139335
vt 0.03506102 0.7471616
vt 0.03506095 0.02139335
vt 0.08307607 0.7471616
vt 0.03519312 0.7690914
vt 0.08307607 0.7690914
vt 0.03519312 0.7471616
vt 0.03506115 0.7471616
vt 0.03506108 0.02139335
vt 0.08307607 0.7691145
vt 0.03519312 0.7471616
vt 0.03519312 0.7691145
vt 0.08293912 0.02139335
vt 0.03506102 0.7471616
vt 0.03506095 0.02139335
vt 0.08307607 0.7471616
vt 0.03519312 0.7691145
vt 0.08307607 0.7691145
vt 0.03519312 0.7471616
vt 0.5118946 0.01602972
vt 0.5468448 0.08381638
vt 0.3356532 0.0170972
vt 0.3356532 0.09848066
vt 0.1100069 0.09848066
vt 0.3356532 0.09848066
vt 0.3992928 0.2152125
vt 0.5096527 0.2026035
vt 0.3356532 0.09848066
vt 0.1100069 0.09848066
vt 0.3356532 0.2410944
vt 0.4921605 0.2152125
vt 0.1100069 0.2410944
vt 0.3356532 0.2410944
vt 0.1100069 0.4316294
vt 0.3356533 0.4316295
vt 0.5513863 0.890263
vt 0.393937 0.890263
vt 0.5393817 0.8469798
vt 0.393937 0.890263
vt 0.5393814 0.8469798
vt 0.5513863 0.890263
vt 0.5096527 0.4151701
vt 0.3794722 0.360116
vt 0.3818006 0.4151701
vt 0.5117907 0.360116
vt 0.4921605 0.4277792
vt 0.3992928 0.4277792
vt 0.5468448 0.2963831
vt 0.5118051 0.2285965
vt 0.3795587 0.2285965
vt 0.3446084 0.2963831
vt 0.09862617 0.8914748
vt 0.09857403 0.9318596
vt 0.06623903 0.8914346
vt 0.06618796 0.9318194
vt 0.5682295 0.4541478
vt 0.7750089 0.2483476
vt 0.7750089 0.4436525
vt 0.9819376 0.3899801
vt 0.9819376 0.5501483
vt 0.7750089 0.2178458
vt 0.7750089 0.02254096
vt 0.7621762 0.2283411
vt 0.5553967 0.02254096
vt 0.5553967 0.2178458
vt 0.7621762 0.4541478
vt 0.5682295 0.2283411
vt 0.9290288 0.390055
vt 0.9819376 0.390055
vt 0.9290288 0.377427
vt 0.9819376 0.377427
vt 0.9290288 0.3899801
vt 0.9819376 0.3899801
vt 0.9290288 0.3774152
vt 0.9819376 0.3774152
vt 0.9290288 0.7145572
vt 0.9819376 0.7145572
vt 0.1116092 0.8232636
vt 0.1116092 0.753554
vt 0.1116092 0.7383723
vt 0.1116092 0.7185906
vt 0.1116092 0.6027211
vt 0.1116092 0.5767146
vt 0.1116092 0.501281
vt 0.1116092 0.4836915
vt 0.1116092 0.4796841
vt 0.1116092 0.4743631
vt 0.8977313 0.4347773
vt 0.8977313 0.4056826
vt 0.8977313 0.375179
vt 0.8977313 0.3428783
vt 0.8977313 0.3123746
vt 0.8977313 0.2832801
vt 0.8977313 0.2832801
vt 0.7916009 0.2832801
vt 0.8977313 0.3123746
vt 0.8977313 0.3428783
vt 0.8977313 0.375179
vt 0.8977313 0.4056826
vt 0.7916009 0.4347773
vt 0.8977313 0.4347773
vt 0.9142771 0.8253653
vt 0.8840597 0.8157921
vt 0.8651558 0.790652
vt 0.8652644 0.7594263
vt 0.8840166 0.73427
vt 0.9142771 0.7247822
vt 0.9445376 0.73427
vt 0.9632899 0.7594265
vt 0.9633982 0.7906522
vt 0.9444945 0.8157922
vt 0.2784767 0.7863529
vt 0.2784767 0.774632
vt 0.407813 0.774632
vt 0.407813 0.7863529
vt 0.5179107 0.521133
vt 0.5179107 0.5652784
vt 0.5179107 0.6145679
vt 0.5179107 0.6638578
vt 0.5179107 0.7080031
vt 0.5179107 0.7080031
vt 0.5023401 0.7080031
vt 0.5179107 0.6638578
vt 0.5179107 0.6145679
vt 0.5179107 0.5652784
vt 0.5023401 0.521133
vt 0.5179107 0.521133
vt 0.4856735 0.3311345
vt 0.5019775 0.2919371
vt 0.4459034 0.3474368
vt 0.406133 0.3311345
vt 0.3898293 0.2919369
vt 0.406133 0.2527394
vt 0.4459034 0.2364374
vt 0.4856732 0.2527394
vt 0.4167329 0.7058557
vt 0.4166839 0.7626649
vt 0.4686758 0.7058999
vt 0.4686263 0.7626649
vt 0.3095888 0.7625498
vt 0.3616097 0.7477843
vt 0.361764 0.762665
vt 0.3095888 0.7477435
vt 0.4078515 0.9898012
vt 0.4457073 0.9898012
vt 0.370641 0.9898012
vt 0.3322318 0.9898012
vt 0.2961698 0.9898012
vt 0.2577931 0.9898012
vt 0.2203445 0.9898012
vt 0.183322 0.9898012
vt 0.1480846 0.9898009
vt 0.183322 0.9898009
vt 0.1480846 0.9898009
vt 0.2203445 0.9898009
vt 0.2577931 0.9898009
vt 0.2961698 0.9898009
vt 0.3322318 0.9898009
vt 0.370641 0.9898009
vt 0.4078515 0.9898012
vt 0.4457073 0.9898012
vt 0.4457073 0.904305
vt 0.2962166 0.7101451
vt 0.2535894 0.6855439
vt 0.3931646 0.7101448
vt 0.2219504 0.6478534
vt 0.4674309 0.6478532
vt 0.4842659 0.6016186
vt 0.2051155 0.6016186
vt 0.2051155 0.5524171
vt 0.2219504 0.5061824
vt 0.4842659 0.5524169
vt 0.2535894 0.4684917
vt 0.4674309 0.5061824
vt 0.2962166 0.4437546
vt 0.4357919 0.4684917
vt 0.3931646 0.4437546
vt 0.4357919 0.6855439
vt 0.3446909 0.718689
vt 0.9160577 0.3728251
vt 0.9805521 0.1454171
vt 0.9794844 0.1462449
vt 0.9160592 0.1462449
vt 0.6179932 0.5912666
vt 0.7006048 0.6379446
vt 0.6466837 0.5860215
vt 0.5353819 0.6379446
vt 0.671914 0.5709185
vt 0.6906405 0.5477794
vt 0.7006048 0.5193953
vt 0.9145964 0.1454171
vt 0.7830856 0.2755838
vt 0.9145964 0.2755838
vt 0.9145964 0.2755838
vt 0.9145964 0.1454171
vt 0.7830853 0.2755838
vt 0.5353822 0.5193953
vt 0.5453462 0.5477794
vt 0.5640727 0.5709185
vt 0.5893025 0.5860213
vt 0.5600905 0.7793338
vt 0.6758958 0.7793338
vt 0.7637511 0.560258
vt 0.7637511 0.5349825
vt 0.7221676 0.5579569
vt 0.7248289 0.5282155
vt 0.7761497 0.512683
vt 0.7380956 0.4998862
vt 0.919213 0.5581303
vt 0.917115 0.5288991
vt 0.8788741 0.5602582
vt 0.8788739 0.5349826
vt 0.8007235 0.4950773
vt 0.8422661 0.4950775
vt 0.8669423 0.5126834
vt 0.905212 0.5010225
vt 0.8788741 0.6692181
vt 0.919213 0.6683451
vt 0.7221673 0.6685576
vt 0.7637509 0.6692142
vt 0.719162 0.8106984
vt 0.8306879 0.8107191
vt 0.7191209 0.9119517
vt 0.6912702 0.7989086
vt 0.719162 0.8106984
vt 0.7191842 0.6877422
vt 0.8306938 0.7808247
vt 0.7191704 0.7808164
vt 0.8957762 0.8845209
vt 0.8306879 0.8107191
vt 0.8306481 0.911983
vt 0.8585951 0.798957
vt 0.3232164 0.8166027
vt 0.2262511 0.8166012
vt 0.3518723 0.8166027
vt 0.5330651 0.7822816
vt 0.5055531 0.7822816
vt 0.4756012 0.7822816
vt 0.4456491 0.7822816
vt 0.418137 0.7822816
vt 0.418137 0.7822816
vt 0.418137 0.7932956
vt 0.4456491 0.7822816
vt 0.4756012 0.7822816
vt 0.5055531 0.7822816
vt 0.5330651 0.7932956
vt 0.5330651 0.7822816
vt 0.2602238 0.6972113
vt 0.2376184 0.6881534
vt 0.2696078 0.7194549
vt 0.2602235 0.7416989
vt 0.2376184 0.7507565
vt 0.2150133 0.7416989
vt 0.205629 0.7194549
vt 0.2150133 0.6972113
vt 0.7830856 0.04284667
vt 0.03203628 0.8827004
vt 0.07817511 0.8473778
vt 0.07845712 0.8831881
vt 0.01956705 0.838822
vt 0.1012937 0.8833128
vt 0.1266286 0.8829764
vt 0.1008356 0.850262
vt 0.2070957 0.8363022
vt 0.1958499 0.8805008
vt 0.1487474 0.8464359
vt 0.8798307 0.7209064
vt 0.2053116 0.7679703
vt 0.5189447 0.9153246
vt 0.5404697 0.9153246
vt 0.5602003 0.9153246
vt 0.5602003 0.9153246
vt 0.5640886 0.9809405
vt 0.5404697 0.9153246
vt 0.5189447 0.9153246
vt 0.4974189 0.9153246
vt 0.4776888 0.9153246
vt 0.4776888 0.9153246
vt 0.4738006 0.9809405
vt 0.4974189 0.9153246
vt 0.7830856 0.04284667
vt 0.7830856 0.01477999
vt 0.7830856 0.01477999
vt 0.09862617 0.8914748
vt 0.09857403 0.9318596
vt 0.06623903 0.8914346
vt 0.06618796 0.9318194
vt 0.09862617 0.8914748
vt 0.09857403 0.9318596
vt 0.06623903 0.8914346
vt 0.06618796 0.9318194
vt 0.09862617 0.8914748
vt 0.09857403 0.9318596
vt 0.06623903 0.8914346
vt 0.06618796 0.9318194
vt 0.5954793 0.9160407
vt 0.5954793 0.8276014
vt 0.6277158 0.9160407
vt 0.6277161 0.8276014
vt 0.5954793 0.9160407
vt 0.5954793 0.8276014
vt 0.6277158 0.9160407
vt 0.6277161 0.8276014
vt 0.03203628 0.8827004
vt 0.07817511 0.8473778
vt 0.07845712 0.8831881
vt 0.01956705 0.838822
vt 0.1012937 0.8833128
vt 0.1266286 0.8829764
vt 0.1008356 0.850262
vt 0.2070957 0.8363022
vt 0.1958499 0.8805008
vt 0.1487474 0.8464359
vt 0.8798307 0.7209064
vt 0.2053116 0.7679703
vt 0.5189447 0.9153246
vt 0.5404697 0.9153246
vt 0.5602003 0.9153246
vt 0.5602003 0.9153246
vt 0.5640886 0.9809405
vt 0.5404697 0.9153246
vt 0.5189447 0.9153246
vt 0.4974189 0.9153246
vt 0.4776888 0.9153246
vt 0.4776888 0.9153246
vt 0.4738006 0.9809405
vt 0.4974189 0.9153246
vt 0.5955698 0.9157052
vt 0.5955702 0.8277635
vt 0.6276253 0.9157052
vt 0.6276253 0.8277638
vt 0.5955698 0.9157052
vt 0.5955702 0.8277635
vt 0.6276253 0.9157052
vt 0.6276253 0.8277638
vn 0 -1 0
vn 0 -1 0
vn 0 1 0
vn 1 0 0
vn 0 0 1
vn 0 0 1
vn 0 0 1
vn 0 0 1
vn 0 1 0
vn 0 1 0
vn 0 -1 0
vn -1 0 0
vn 0 0 1
vn 0 0 1
vn 0 0 1
vn 0 0 1
vn -9.536996E-05 -0.8964777 -0.4430889
vn -0.0007629562 -0.8968551 -0.4423239
vn 0 0.8968553 -0.442324
vn 1 0 0
vn 0 -0.8964019 -0.4432421
vn 0 -0.8967797 -0.4424774
vn 0 0.8967797 -0.4424774
vn 1 0 0
vn 0 -0.3172861 0.9483298
vn 0 -0.9579627 0.2868929
vn 0 0.9579627 0.2868929
vn 1 0 0
vn 0 -0.9579627 0.2868929
vn 0 -0.3172861 0.9483298
vn 0 0.3173719 0.9483012
vn 0 0.3173719 0.9483012
vn -0.0002860957 -1 9.536525E-05
vn 0.002289196 0.9999974 0
vn -0.2623186 0 0.9649814
vn -0.2622297 0 0.9650055
vn -0.2623186 0 0.9649814
vn -0.2622297 0 0.9650055
vn 0 -0.7509083 0.6604065
vn 0 -0.7509083 0.6604065
vn -1 0 0
vn 1 0 0
vn 0 -0.7509556 0.6603526
vn 0 -0.7509556 0.6603526
vn -1 0 0
vn 0 -1 0
vn 0 1 0
vn 1 0 0
vn 0 -0.3470223 0.9378569
vn 0 -0.9084165 0.4180662
vn 0 1 0
vn 1 0 0
vn 0 -1 0
vn 1 0 0
vn -1 0 0
vn 1 0 0
vn 0 -0.9084165 0.4180662
vn 0 -0.3470223 0.9378569
vn 0 0.3468544 0.9379189
vn 0 0.3468544 0.9379189
vn -0.4999736 0.002861352 0.8660359
vn 0.259371 0.001954819 0.9657758
vn 0.8661698 4.768607E-05 0.49975
vn 0.9657634 -0.001716743 -0.259419
vn 0.4999743 -0.002384463 -0.866037
vn -0.2584814 -0.001764541 -0.9660146
vn -0.8657439 4.768362E-05 -0.5004873
vn -0.9659792 0.002002524 0.2586116
vn -0.4951231 -0.1398017 0.8575013
vn 0.2429135 -0.1008644 0.9647898
vn 0.8483306 -0.004958767 0.5294437
vn 0.9697621 0.09613692 -0.2243195
vn 0.4949527 0.1401889 -0.8575365
vn -0.2904584 0.0961202 -0.9520476
vn -0.8826798 -0.004958875 -0.4699488
vn -0.9571049 -0.1008985 0.2716057
vn -0.4143262 -0.5602559 0.7172497
vn 0.2897931 -0.4088392 0.8653731
vn 0.8336515 -0.04043333 0.5508088
vn 0.9268321 0.364896 -0.08850589
vn 0.4143262 0.5602559 -0.7172497
vn -0.3869855 0.3648611 -0.8468286
vn -0.8935812 -0.04043527 -0.4470767
vn -0.8943934 -0.408762 0.1815872
vn -0.1775679 -0.93781 0.2982987
vn 0.4539637 -0.6874309 0.5668825
vn 0.8411246 -0.06351349 0.5370991
vn 0.7524564 0.6273331 0.200655
vn 0.1606149 0.9388914 -0.3044434
vn -0.5295208 0.6052483 -0.5943756
vn -0.8610953 -0.08086477 -0.5019718
vn -0.70873 -0.692137 -0.1365583
vn 0.03385379 -0.9986392 0.03967093
vn 0.6638591 -0.6864489 0.2967809
vn 0.9210346 0.0005722044 0.3894805
vn 0.6681971 0.6900595 0.2780837
vn -0.3588851 0.9233924 -0.1361913
vn -0.9212486 0.3530499 -0.1632689
vn -0.8671401 0.257877 -0.4261075
vn -0.6275529 -0.7335517 -0.2609201
vn 0.03619385 -0.9993126 -0.008011286
vn 0.7181249 -0.6918032 0.07553186
vn 0.993517 0.001144413 0.1136783
vn 0.7133575 0.6948445 0.09117091
vn 0.02481744 0.9995636 0.01602048
vn -0.7361374 0.6759608 0.0343321
vn -0.9973878 0.04863679 -0.05340509
vn -0.6782563 -0.7286106 -0.09536788
vn 0.004386658 -0.9820392 -0.1886263
vn 0.6937303 -0.707058 -0.1371391
vn 0.9994215 -0.03280622 -0.008964491
vn 0.7260745 0.6759593 0.1260748
vn -0.007331363 0.9820927 0.1882551
vn -0.7340935 0.6666209 0.1293187
vn -0.9989955 -0.04463293 -0.004005519
vn -0.6870475 -0.7141326 -0.1340906
vn 0.005126175 -0.8020676 -0.5972113
vn 0.6880014 -0.5821202 -0.4333477
vn 0.9980412 -0.05016313 -0.03738393
vn 0.7511749 0.5298625 0.3936775
vn -0.006712028 0.6281409 0.7780707
vn -0.7580186 0.5231792 0.3894757
vn -0.9973477 -0.05836459 -0.04348733
vn -0.6805945 -0.5876583 -0.4375488
vn 0.005126295 -0.378249 -0.9256896
vn 0.6893902 -0.2738917 -0.670615
vn 0.9984957 -0.02079007 -0.05073541
vn 0.7436119 0.2529131 0.6189316
vn -0.7514656 0.2491056 0.6109384
vn -0.9978787 -0.02460483 -0.06027231
vn -0.681955 -0.2765585 -0.6770914
vn 0.005316599 -0.133511 -0.991033
vn 0.7109246 -0.09403336 -0.6969532
vn 0.9999855 0.0007629472 0.005340631
vn 0.7032539 0.09498469 0.7045651
vn -0.003516904 0.1438235 0.9895971
vn -0.7119092 0.09517553 0.6957923
vn -0.9999855 -0.0007629472 -0.005340631
vn -0.7032659 -0.09498309 -0.7045533
vn 0 -1 0
vn 0 -1 0
vn 0 -1 0
vn 0 -1 0
vn 0 -1 0
vn 0 -1 0
vn 0 -1 0
vn 0 -1 0
vn 0 -1 0
vn 0 -1 0
vn 0 -1 0
vn 0 0 1
vn 0.5880923 0 0.8087938
vn 0.9510684 0 0.3089804
vn 0.9510684 0 -0.3089804
vn 0.5880923 0 -0.8087938
vn 0 0 -1
vn -0.5879675 0 -0.8088846
vn -0.9510593 0 -0.3090084
vn -0.9510593 0 0.3090084
vn -0.5879675 0 0.8088846
vn 0 1 0
vn 0 0.8941218 0.4478238
vn 0.4262453 0.8938848 0.1388707
vn 0.2633727 0.8940559 -0.362352
vn -0.2631952 0.8941008 -0.3623702
vn -0.4260219 0.8939977 0.138829
vn 0 -1 0
vn 0.7071068 -0.7071068 0
vn 0 -1 0
vn 0.7467459 -0.6651094 0
vn 1 0 0
vn 1 0 0
vn 0.7070114 0.7072021 0
vn 0.746925 0.6649082 0
vn 0 1 0
vn 0 1 0
vn -0.7071068 0.7071068 0
vn -0.746925 0.6649082 0
vn -1 0 0
vn -1 0 0
vn -0.7072021 -0.7070114 0
vn -0.7468303 -0.6650147 0
vn 0 0 -1
vn 0 0 -1
vn 0 0 -1
vn 0 0 -1
vn 0 0 -1
vn 0 0 -1
vn 0 0 -1
vn 0 0 -1
vn 0 0 -1
vn 0 -0.8971381 0.4417502
vn 0.6241359 -0.6241359 0.4700094
vn 0.8971381 0 0.4417502
vn 0.6241359 0.6241359 0.4700094
vn 0 0.8971567 0.4417124
vn -0.6241359 0.6241359 0.4700094
vn -0.8971567 0 0.4417124
vn -0.6241359 -0.6241359 0.4700094
vn -0.3219438 0 0.9467588
vn 0 -0.3219438 0.9467588
vn 0.3219438 0 0.9467588
vn 0 0.3219438 0.9467588
vn 0 0.9999709 0.007630453
vn 0 0.9999709 0.007630453
vn 1 0 0
vn -1 0 0
vn 0 0.9999709 0.007630453
vn 0 0.9999709 0.007630453
vn 1 0 0
vn -1 0 0
vn -1 0 0
vn 1 0 0
vn -1 0 0
vn -1 0 0
vn -1 0 0
vn -1 0 0
vn -1 0 0
vn -1 0 0
vn -1 0 0
vn -1 0 0
vn -1 0 0
vn -1 0 0
vn -1 0 0
vn -1 0 0
vn -1 0 0
vn -1 0 0
vn -1 0 0
vn -1 0 0
vn -1 0 0
vn 0 0 1
vn 0 0.3419115 0.9397321
vn 0 0.6428073 0.7660279
vn 0 0.8659568 0.5001187
vn 0 0.9848258 0.173546
vn 0 0.9848258 -0.173546
vn 0 0.8660395 -0.4999757
vn 0 0.6437421 -0.7652425
vn 0 0.5020176 -0.8648574
vn 0 -0.5020636 -0.8648307
vn 0 -0.6437421 -0.7652425
vn 0 -0.8660871 -0.4998931
vn 0 -0.9848258 -0.173546
vn 0 -0.9848258 0.173546
vn 0 -0.8659568 0.5001187
vn 0 -0.6428073 0.7660279
vn 0 -0.3418273 0.9397628
vn 0 -1 0
vn -1 0 0
vn 0 0.9848258 -0.173546
vn 0 0.8660871 -0.4998931
vn -1 0 0
vn -0.4440256 -0.243804 -0.8622069
vn -1 0 0
vn -1 0 0
vn -0.519594 0.5680437 -0.6382385
vn -0.5195377 -0.5681729 -0.6381693
vn 0 0 1
vn 0 0.3417431 0.9397934
vn 0 0.6428073 0.7660279
vn 0 0.8659568 0.5001187
vn 0 0.9932982 0.1155796
vn 0 0.9848258 -0.173546
vn 0 0.8660871 -0.4998931
vn 0 -0.8660871 -0.4998931
vn 0 -0.9848201 -0.1735786
vn 0 -0.9932982 0.1155796
vn 0 -0.8659568 0.5001187
vn 0 -0.6428073 0.7660279
vn 0 -0.3418062 0.9397705
vn 0 0 1
vn 0 0.3417431 0.9397934
vn 0 0.6428073 0.7660279
vn 0 0.8659568 0.5001187
vn 0 0.9848258 0.173546
vn 0 0.6437421 -0.7652425
vn 0 0.5021148 -0.8648009
vn 0 -0.502097 -0.8648113
vn 0 -0.6437421 -0.7652425
vn 0 -0.9848201 0.1735786
vn 0 -0.8659568 0.5001187
vn 0 -0.6428073 0.7660279
vn 0 -0.3418062 0.9397705
vn -1 0 0
vn 0 0 1
vn 0 0 1
vn 0 0 1
vn -1 0 0
vn 0 1 0
vn -1 0 0
vn -1 0 0
vn -0.4440205 0.2438488 -0.8621969
vn -1 0 0
vn 0 -0.8660871 -0.4998931
vn 0 -0.9848201 -0.1735786
vn 0 0 1
vn -1 0 0
vn 0 -0.9192485 0.3936775
vn 0 -0.9192485 0.3936775
vn 0 1 0
vn 1 0 0
vn 0 0 1
vn 0 0 1
vn 0 0 1
vn 0 0 1
vn 0.9984137 0.04997194 -0.02593963
vn 0.677033 0.7187225 -0.1583173
vn 0.00342069 0.9813447 -0.1922261
vn -0.6802794 0.7171376 -0.1514381
vn -0.9984037 0.04997264 -0.02632147
vn -0.785497 -0.5584739 0.2666484
vn -0.03457371 -0.8076417 0.588659
vn 0.7956151 -0.5405429 0.2735139
vn 1 0 0
vn 0.7069816 0.7072319 0
vn 0 1 0
vn -0.7069876 0.707226 0
vn -1 0 0
vn -0.7069876 -0.707226 0
vn 0 -1 0
vn 0.7069816 -0.7072319 0
vn 0.9893142 0.08201569 -0.120544
vn 0.6614264 0.5520013 -0.5077497
vn 0.005172525 0.7547596 -0.6559811
vn -0.6623645 0.5515969 -0.5069656
vn -0.9910626 0.08659401 -0.1014714
vn -0.7246702 -0.3025142 0.6191431
vn -0.03018629 -0.4511253 0.89195
vn 0.7505403 -0.3305481 0.5722126
vn 0.9996346 -0.004196139 0.0267027
vn 0.7059559 0.3494196 -0.6160618
vn 0.002348385 0.4955212 -0.8685926
vn -0.70061 0.3368345 -0.6290374
vn -0.99939 -0.0200269 0.02860986
vn 0 0 -1
vn 0 0 -1
vn 0 0 -1
vn 0 0 -1
vn 0 0 -1
vn 0 0 -1
vn 0 0 -1
vn 0 0 -1
vn 0 0 -1
vn 0.6342025 -0.6340118 0.4425112
vn 0 -0.9115644 0.4111575
vn 0.911532 0 0.4112289
vn 0.6342025 0.6340118 0.4425112
vn 0 0.9115644 0.4111575
vn -0.6342025 0.6340118 0.4425112
vn -0.911532 0 0.4112289
vn -0.6342025 -0.6340118 0.4425112
vn -0.3652982 0 0.9308905
vn 0 -0.3651329 0.9309554
vn 0.3652982 0 0.9308905
vn 0 0.3651329 0.9309554
vn 0 0 -1
vn 0 0 -1
vn 0.9131994 -0.4051035 0.0442486
vn 0 0 -1
vn -0.001525822 -0.1392313 0.9902587
vn 0 -0.135947 0.9907161
vn 0.3983214 -0.9118659 0.0991988
vn 0.01277948 -0.148776 0.9887883
vn 0 0 -1
vn 0 0 -1
vn -0.01182752 -0.1426933 0.9896963
vn 0.006293881 -0.1521975 0.9883301
vn 0 0 -1
vn 0 0 -1
vn 0 0 -1
vn 0 0 -1
vn 0 0 -1
vn 0 0 -1
vn 0 0 -1
vn 0 0 -1
vn 0 0 -1
vn -0.9992428 0 -0.03890925
vn -0.7065712 -0.7065712 -0.03891483
vn -0.01011018 -0.9991913 -0.03891467
vn 0.6992752 -0.7137719 -0.03929369
vn 0.9992424 0 -0.03891665
vn 0.6992856 0.7137825 -0.03891278
vn -0.01030092 0.9991894 -0.03891459
vn -0.7065712 0.7065712 -0.03891483
vn 0 -0.7509083 0.6604065
vn 0 -0.7509083 0.6604065
vn 0 -0.7509556 0.6603526
vn 0 -0.7509556 0.6603526
vn 1 0 0
vn -1 0 0
vn 0 0.7507779 0.6605548
vn 0 0.7507779 0.6605548
vn 0 0.7507779 0.6605548
vn 0 0.7507779 0.6605548
vn -1 0 0
vn 1 0 0
vn 0 0.7507779 0.6605548
vn 0 0.7507779 0.6605548
vn 0 0.7507779 0.6605548
vn 0 0.7507779 0.6605548
vn -1 0 0
vn 1 0 0
vn 0 0.3414061 0.9399158
vn 0 0.3414061 0.9399158
vn 1 0 0
vn -1 0 0
vn 0 0.3412376 0.939977
vn 0 0.3412376 0.939977
vn 0 0.3414061 0.9399158
vn 0 0.3414061 0.9399158
vn 0 0.3412376 0.939977
vn 0 0.3412376 0.939977
vn -1 0 0
vn 1 0 0
vn 0 0 -1
vn 0 0 -1
vn 0 0 -1
vn 0 0 -1
vn 0 0 -1
vn 0.001525822 0.1392313 0.9902587
vn 0 0.1359984 0.9907091
vn -0.01297092 0.1484026 0.988842
vn -0.006103165 0.1521977 0.9883313
vn 0.012209 0.1426926 0.9896918
vn -0.3960252 0.9179543 0.02289163
vn -0.9216294 0.3879541 0.009536727
vn 0 0 -1
vn 0 0 -1
vn 0 0 -1
vn 0 0 -1
vn 0 0 -1
vn 0 0 -1
vn 0 0 -1
vn 0 0 -1
vn 0 0 -1
vn 0.7065712 0.7065712 -0.03891483
vn 0.999243 0 -0.03890183
vn 0 0.9992424 -0.03891665
vn -0.7065712 0.7065712 -0.03891483
vn -0.999243 0 -0.03890183
vn -0.7065712 -0.7065712 -0.03891483
vn 0 -0.9992424 -0.03891665
vn 0.7065712 -0.7065712 -0.03891483
vn 0 -0.3412376 0.939977
vn 0 -0.3412376 0.939977
vn -1 0 0
vn 1 0 0
vn 0 -0.3413219 0.9399465
vn 0 -0.3413219 0.9399465
vn 0 -0.3412376 0.939977
vn 0 -0.3412376 0.939977
vn 0 -0.3413219 0.9399465
vn 0 -0.3413219 0.9399465
vn 1 0 0
vn -1 0 0
vn 0 -1 0
vn 0 -1 0
vn 1 0 0
vn 1 0 0
vn 1 0 0
vn 0 1 0
vn 0 1 0
vn 0 1 0
vn -1 0 0
vn -1 0 0
vn -1 0 0
vn -1 0 0
vn 0 1 0
vn 0 1 0
vn -1 0 0
vn -1 0 0
vn -1 0 0
vn 0 -1 0
vn 0 -1 0
vn 0 -1 0
vn 1 0 0
vn 1 0 0
vn 1 0 0
vn 1 0 0
vn 1 0 0
vn 1 0 0
vn 0 0.8968553 -0.442324
vn 0 0.8967797 -0.4424774
vn 0 -0.9579627 0.2868929
vn 0 -0.9579627 0.2868929
vn 1 0 0
vn 1 0 0
vn 0 0.9579627 0.2868929
vn 0 0.9579627 0.2868929
vn 0 0.9579627 0.2868929
vn 1 0 0
vn 0 -0.6017075 0.7987166
vn 0 -0.6017075 0.7987166
vn 0 0.6018291 0.7986249
vn 0 0.6018291 0.7986249
vn -9.536525E-05 -1 0
vn -0.000381461 -1 9.536525E-05
vn 0 -1 0
vn 0.001859974 0.9999983 -9.538328E-05
vn 0.000476917 0.9999996 -0.0007630672
vn 0.0001907668 0.9999998 -0.0007630673
vn -0.9999985 0.0009536965 -0.001525915
vn -0.9999915 -0.003814759 -0.001525904
vn -0.9999986 -0.0007629573 -0.001525915
vn -0.9999915 0.003814759 -0.001525904
vn -1 0 0
vn -1 0 0
vn -0.9999981 0.001907392 0.0003814785
vn -0.9999989 0.001335176 0.0006675879
vn -0.9999987 -0.001525915 0.0006675877
vn -0.9999981 -0.001907392 0.0003814785
vn 1 0 0
vn 1 0 0
vn -1 0 0
vn -1 0 0
vn 1 0 0
vn 1 0 0
vn 1 0 0
vn 0 1 0
vn 0 1 0
vn -1 0 0
vn -1 0 0
vn -1 0 0
vn -1 0 0
vn -1 0 0
vn 1 0 0
vn -1 0 0
vn 0 0.65076 -0.7592835
vn 0 0.65076 -0.7592835
vn 0 0.65076 -0.7592835
vn 0 0.65076 -0.7592835
vn 0 -0.6505557 -0.7594585
vn 0 -0.6505557 -0.7594585
vn 0 -0.6505557 -0.7594585
vn 0 -0.6505557 -0.7594585
vn 0 0.6508542 0.7592027
vn 0 0.6508542 0.7592027
vn 0.9657634 -0.001716743 -0.259419
vn 0.9697621 0.09613692 -0.2243195
vn 0.9268321 0.364896 -0.08850589
vn 0.7524564 0.6273331 0.200655
vn 0.6681971 0.6900595 0.2780837
vn 0.7133575 0.6948445 0.09117091
vn 0.7260745 0.6759593 0.1260748
vn 0.7511749 0.5298625 0.3936775
vn 0.7436119 0.2529131 0.6189316
vn 0.7032539 0.09498469 0.7045651
vn 0 0 1
vn 0.5880923 0 0.8087938
vn 0.9510684 0 0.3089804
vn 0.9510684 0 -0.3089804
vn 0.5880923 0 -0.8087938
vn 0 0 -1
vn 0 0 -1
vn 0 0 -1
vn -0.5879675 0 -0.8088846
vn -0.9510593 0 -0.3090084
vn -0.9510593 0 0.3090084
vn -0.5879675 0 0.8088846
vn 0 0 1
vn 0 0 1
vn 0 0.6889499 0.7248089
vn 0.3766752 0.7674639 0.5187628
vn 0.6892816 0.6889002 0.2242931
vn 0.6095798 0.7675059 -0.1983614
vn 0.4260142 0.6887929 -0.58658
vn 0 0.7675955 -0.6409346
vn -0.4260142 0.6887929 -0.58658
vn -0.6095798 0.7675059 -0.1983614
vn -0.6892816 0.6889002 0.2242931
vn -0.3768389 0.7674087 0.5187256
vn 0 1 0
vn 0 1 0
vn 0 -1 0
vn 0 -1 0
vn 0 -1 0
vn 0.7071068 -0.7071068 0
vn 1 0 0
vn 0.7070114 0.7072021 0
vn 0 1 0
vn 0 1 0
vn 0 0.8971567 0.4417124
vn -0.7071068 0.7071068 0
vn -1 0 0
vn -0.7072021 -0.7070114 0
vn 0 -0.8971381 0.4417502
vn 0 -1 0
vn 0.6241359 -0.6241359 0.4700094
vn 0 -0.8971381 0.4417502
vn 0.8971381 0 0.4417502
vn 0.6241359 0.6241359 0.4700094
vn 0 0.8971567 0.4417124
vn -0.6241359 0.6241359 0.4700094
vn -0.8971567 0 0.4417124
vn -0.6241359 -0.6241359 0.4700094
vn -1 0 0
vn -1 0 0
vn 1 0 0
vn 1 0 0
vn 0 -0.9999998 0.0007629218
vn 0 -0.9999998 0.0007629218
vn 0 -0.9999998 0.0007629218
vn 0 -0.9999998 0.0007629218
vn 0 0.3419115 0.9397321
vn 0 0 1
vn 0 0.6428073 0.7660279
vn 0 0.8659568 0.5001187
vn 0 0.9848258 0.173546
vn 0 0.9848258 -0.173546
vn 0 0.8660395 -0.4999757
vn 0 0.6437421 -0.7652425
vn 0 0.5020176 -0.8648574
vn 0 -0.6437421 -0.7652425
vn 0 -0.5020636 -0.8648307
vn 0 -0.8660871 -0.4998931
vn 0 -0.9848258 -0.173546
vn 0 -0.9848258 0.173546
vn 0 -0.8659568 0.5001187
vn 0 -0.6428073 0.7660279
vn 0 -0.3418273 0.9397628
vn 0 0 1
vn 0 0 1
vn 1 0 0
vn 1 0 0
vn 1 0 0
vn 1 0 0
vn 1 0 0
vn 1 0 0
vn 1 0 0
vn 1 0 0
vn 1 0 0
vn 1 0 0
vn 1 0 0
vn 1 0 0
vn 1 0 0
vn 1 0 0
vn 1 0 0
vn 1 0 0
vn 1 0 0
vn 0 0.9932982 0.1155796
vn 0 0.9848258 0.173546
vn 0 -0.9848201 0.1735786
vn 0 -0.9932982 0.1155796
vn 1 0 0
vn 1 0 0
vn 1 0 0
vn 1 0 0
vn 1 0 0
vn 1 0 0
vn 1 0 0
vn 0 1 0
vn 0 1 0
vn 0 1 0
vn 0 -1 0
vn 0 -1 0
vn 0 -1 0
vn 1 0 0
vn 1 0 0
vn 1 0 0
vn 1 0 0
vn -0.006864828 0 0.9999765
vn -0.006864828 0 0.9999765
vn -0.6103558 0.7921274 0
vn -0.6012269 0.7803361 -0.1720516
vn -0.6104481 0.7920563 0
vn -0.6111533 0.7797736 -0.1358119
vn -0.5752457 0.6614562 -0.4812151
vn -0.5867056 0.7141175 -0.3818545
vn -0.6103558 -0.7921274 0
vn -0.6050457 -0.7854913 -0.1300886
vn -0.6103558 -0.7921274 0
vn -0.6103485 -0.775524 -0.1613609
vn -0.4844529 0.265114 -0.8336785
vn -0.4844567 -0.2650863 -0.8336852
vn -0.5783409 -0.6554976 -0.4856385
vn -0.5752782 -0.7171904 -0.3933102
vn -0.6103558 -0.7921274 0
vn -0.6103558 -0.7921274 0
vn -0.6104481 0.7920563 0
vn -0.6103558 0.7921274 0
vn 0 -0.9192485 0.3936775
vn 0 -0.9192485 0.3936775
vn 1 0 0
vn 1 0 0
vn 1 0 0
vn 0 1 0
vn 0 1 0
vn 0 1 0
vn -1 0 0
vn -1 0 0
vn -1 0 0
vn -1 0 0
vn -0.03457371 -0.8076417 0.588659
vn 0 -1 0
vn -0.03018629 -0.4511253 0.89195
vn 0 -1 0
vn 0.7069876 -0.707226 0
vn 1 0 0
vn 0.7069876 0.707226 0
vn 0 1 0
vn 0 1 0
vn 0 0.9115644 0.4111575
vn -0.7069876 0.707226 0
vn -1 0 0
vn -0.7069876 -0.707226 0
vn 0 -0.9115644 0.4111575
vn 0 -1 0
vn 0.6342025 -0.6340118 0.4425112
vn 0 -0.9115644 0.4111575
vn 0.911532 0 0.4112289
vn 0.6342025 0.6340118 0.4425112
vn 0 0.9115644 0.4111575
vn -0.6342025 0.6340118 0.4425112
vn -0.911532 0 0.4112289
vn -0.6342025 -0.6340118 0.4425112
vn 0 0.6437421 -0.7652425
vn -1 0 0
vn -0.9416786 -0.3345563 0.03624042
vn -0.9143807 -0.402831 0.04043569
vn -1 0 0
vn -0.3692397 -0.9238621 0.1007017
vn 0.3713257 -0.922688 0.10375
vn -0.395359 -0.9127777 0.1026064
vn 1 0 0
vn 1 0 0
vn 0.9410867 -0.3364566 0.03395084
vn 0 0 -1
vn 0 -0.173546 0.9848258
vn -0.9992428 0 -0.03890925
vn -0.7065712 -0.7065712 -0.03891483
vn -0.01106395 -0.9991887 -0.03872381
vn -0.01106395 -0.9991887 -0.03872381
vn -0.01011018 -0.9991913 -0.03891467
vn 0.6985145 -0.7145371 -0.03891233
vn 0.9992424 0 -0.03891665
vn 0.6986993 0.7143362 -0.03928277
vn -0.0112546 0.9991792 -0.0389142
vn -0.0112546 0.9991792 -0.0389142
vn -0.01030092 0.9991894 -0.03891459
vn -0.7065712 0.7065712 -0.03891483
vn 0 -0.6437421 -0.7652425
vn 0 0.5021148 -0.8648009
vn 0 -0.502097 -0.8648113
vn 1 0 0
vn 1 0 0
vn -1 0 0
vn -1 0 0
vn -1 0 0
vn -1 0 0
vn 1 0 0
vn 1 0 0
vn -1 0 0
vn -1 0 0
vn 1 0 0
vn 1 0 0
vn -1 0 0
vn -1 0 0
vn 1 0 0
vn 1 0 0
vn -1 0 0
vn -1 0 0
vn 1 0 0
vn 1 0 0
vn 1 0 0
vn 0.9367968 0.3497731 0.008391503
vn 0.9223061 0.3863921 0.007247235
vn 1 0 0
vn 0.3783818 0.9253572 0.02326743
vn -0.3799347 0.9246602 0.02555785
vn 0.3944389 0.9185773 0.02517695
vn -1 0 0
vn -1 0 0
vn -0.9363408 0.3510325 0.006486468
vn 0 0 -1
vn 0 0.173546 0.9848258
vn 0.999243 0 -0.03890183
vn 0.7065712 0.7065712 -0.03891483
vn 0 0.9992424 -0.03891665
vn 0 0.9992424 -0.03891665
vn 0 0.9992424 -0.03891665
vn -0.7065712 0.7065712 -0.03891483
vn -0.999243 0 -0.03890183
vn -0.7065712 -0.7065712 -0.03891483
vn 0 -0.9992424 -0.03891665
vn 0 -0.9992424 -0.03891665
vn 0 -0.9992424 -0.03891665
vn 0.7065712 -0.7065712 -0.03891483
vn 1 0 0
vn 1 0 0
vn -1 0 0
vn -1 0 0
vn 1 0 0
vn 1 0 0
vn -1 0 0
vn -1 0 0
g Seaport_Generator_A_0
f 42/42/42 513/513/513 512/512/512
f 515/515/515 41/41/41 514/514/514
f 389/389/389 745/745/745 744/744/744
f 747/747/747 390/390/390 746/746/746
f 395/395/395 749/749/749 748/748/748
f 751/751/751 396/396/396 750/750/750
f 401/401/401 753/753/753 752/752/752
f 755/755/755 402/402/402 754/754/754
f 406/406/406 757/757/757 756/756/756
f 759/759/759 405/405/405 758/758/758
f 413/413/413 761/761/761 760/760/760
f 763/763/763 414/414/414 762/762/762
f 447/447/447 789/789/789 788/788/788
f 791/791/791 446/446/446 790/790/790
f 454/454/454 793/793/793 792/792/792
f 795/795/795 455/455/455 794/794/794
f 6/6/6 8/8/8 5/5/5
f 7/7/7 5/5/5 8/8/8
f 2/2/2 456/456/456 1/1/1
f 457/457/457 1/1/1 456/456/456
f 4/4/4 459/459/459 458/458/458
f 460/460/460 458/458/458 459/459/459
f 3/3/3 462/462/462 461/461/461
f 463/463/463 461/461/461 462/462/462
f 466/466/466 465/465/465 464/464/464
f 467/467/467 464/464/464 465/465/465
f 14/14/14 16/16/16 13/13/13
f 15/15/15 13/13/13 16/16/16
f 10/10/10 468/468/468 9/9/9
f 469/469/469 9/9/9 468/468/468
f 12/12/12 471/471/471 470/470/470
f 472/472/472 470/470/470 471/471/471
f 11/11/11 474/474/474 473/473/473
f 475/475/475 473/473/473 474/474/474
f 478/478/478 477/477/477 476/476/476
f 479/479/479 476/476/476 477/477/477
f 18/18/18 22/22/22 17/17/17
f 21/21/21 17/17/17 22/22/22
f 20/20/20 24/24/24 480/480/480
f 481/481/481 480/480/480 24/24/24
f 24/24/24 28/28/28 481/481/481
f 28/28/28 486/486/486 481/481/481
f 487/487/487 481/481/481 486/486/486
f 491/491/491 487/487/487 486/486/486
f 19/19/19 23/23/23 482/482/482
f 483/483/483 482/482/482 23/23/23
f 485/485/485 26/26/26 484/484/484
f 29/29/29 484/484/484 26/26/26
f 489/489/489 27/27/27 488/488/488
f 490/490/490 488/488/488 27/27/27
f 30/30/30 492/492/492 493/493/493
f 492/492/492 30/30/30 25/25/25
f 30/30/30 32/32/32 25/25/25
f 31/31/31 25/25/25 32/32/32
f 495/495/495 31/31/31 32/32/32
f 31/31/31 495/495/495 494/494/494
f 36/36/36 38/38/38 35/35/35
f 37/37/37 35/35/35 38/38/38
f 497/497/497 496/496/496 33/33/33
f 498/498/498 33/33/33 496/496/496
f 34/34/34 500/500/500 499/499/499
f 501/501/501 499/499/499 500/500/500
f 507/507/507 504/504/504 506/506/506
f 502/502/502 506/506/506 504/504/504
f 504/504/504 503/503/503 502/502/502
f 511/511/511 503/503/503 504/504/504
f 503/503/503 511/511/511 510/510/510
f 505/505/505 502/502/502 503/503/503
f 505/505/505 508/508/508 502/502/502
f 509/509/509 508/508/508 505/505/505
f 40/40/40 44/44/44 39/39/39
f 43/43/43 39/39/39 44/44/44
f 46/46/46 50/50/50 53/53/53
f 57/57/57 53/53/53 50/50/50
f 58/58/58 57/57/57 50/50/50
f 57/57/57 58/58/58 49/49/49
f 58/58/58 60/60/60 49/49/49
f 59/59/59 49/49/49 60/60/60
f 537/537/537 59/59/59 60/60/60
f 59/59/59 537/537/537 536/536/536
f 47/47/47 51/51/51 519/519/519
f 520/520/520 519/519/519 51/51/51
f 56/56/56 48/48/48 54/54/54
f 48/48/48 52/52/52 54/54/54
f 516/516/516 54/54/54 52/52/52
f 54/54/54 516/516/516 517/517/517
f 518/518/518 517/517/517 516/516/516
f 526/526/526 518/518/518 516/516/516
f 45/45/45 522/522/522 55/55/55
f 522/522/522 521/521/521 55/55/55
f 523/523/523 55/55/55 521/521/521
f 55/55/55 523/523/523 524/524/524
f 525/525/525 524/524/524 523/523/523
f 527/527/527 525/525/525 523/523/523
f 530/530/530 529/529/529 528/528/528
f 529/529/529 530/530/530 531/531/531
f 534/534/534 533/533/533 532/532/532
f 533/533/533 534/534/534 535/535/535
f 64/64/64 63/63/63 72/72/72
f 71/71/71 72/72/72 63/63/63
f 63/63/63 62/62/62 71/71/71
f 72/72/72 71/71/71 80/80/80
f 70/70/70 71/71/71 62/62/62
f 62/62/62 61/61/61 70/70/70
f 79/79/79 80/80/80 71/71/71
f 71/71/71 70/70/70 79/79/79
f 80/80/80 79/79/79 88/88/88
f 69/69/69 70/70/70 61/61/61
f 61/61/61 68/68/68 69/69/69
f 87/87/87 88/88/88 79/79/79
f 88/88/88 87/87/87 96/96/96
f 78/78/78 79/79/79 70/70/70
f 70/70/70 69/69/69 78/78/78
f 79/79/79 78/78/78 87/87/87
f 76/76/76 69/69/69 68/68/68
f 68/68/68 67/67/67 76/76/76
f 95/95/95 96/96/96 87/87/87
f 96/96/96 95/95/95 104/104/104
f 77/77/77 78/78/78 69/69/69
f 69/69/69 76/76/76 77/77/77
f 86/86/86 87/87/87 78/78/78
f 87/87/87 86/86/86 95/95/95
f 78/78/78 77/77/77 86/86/86
f 75/75/75 76/76/76 67/67/67
f 67/67/67 66/66/66 75/75/75
f 103/103/103 104/104/104 95/95/95
f 104/104/104 103/103/103 112/112/112
f 94/94/94 95/95/95 86/86/86
f 95/95/95 94/94/94 103/103/103
f 84/84/84 77/77/77 76/76/76
f 76/76/76 75/75/75 84/84/84
f 85/85/85 86/86/86 77/77/77
f 86/86/86 85/85/85 94/94/94
f 77/77/77 84/84/84 85/85/85
f 74/74/74 75/75/75 66/66/66
f 66/66/66 65/65/65 74/74/74
f 111/111/111 112/112/112 103/103/103
f 112/112/112 111/111/111 120/120/120
f 102/102/102 103/103/103 94/94/94
f 103/103/103 102/102/102 111/111/111
f 93/93/93 94/94/94 85/85/85
f 94/94/94 93/93/93 102/102/102
f 83/83/83 84/84/84 75/75/75
f 75/75/75 74/74/74 83/83/83
f 92/92/92 85/85/85 84/84/84
f 85/85/85 92/92/92 93/93/93
f 84/84/84 83/83/83 92/92/92
f 73/73/73 74/74/74 65/65/65
f 65/65/65 538/538/538 73/73/73
f 539/539/539 73/73/73 538/538/538
f 82/82/82 83/83/83 74/74/74
f 74/74/74 73/73/73 82/82/82
f 73/73/73 539/539/539 81/81/81
f 81/81/81 82/82/82 73/73/73
f 540/540/540 81/81/81 539/539/539
f 91/91/91 92/92/92 83/83/83
f 83/83/83 82/82/82 91/91/91
f 100/100/100 93/93/93 92/92/92
f 92/92/92 91/91/91 100/100/100
f 81/81/81 540/540/540 89/89/89
f 541/541/541 89/89/89 540/540/540
f 82/82/82 81/81/81 90/90/90
f 90/90/90 91/91/91 82/82/82
f 89/89/89 90/90/90 81/81/81
f 89/89/89 541/541/541 97/97/97
f 542/542/542 97/97/97 541/541/541
f 91/91/91 90/90/90 99/99/99
f 99/99/99 100/100/100 91/91/91
f 90/90/90 89/89/89 98/98/98
f 97/97/97 98/98/98 89/89/89
f 98/98/98 99/99/99 90/90/90
f 93/93/93 100/100/100 101/101/101
f 101/101/101 102/102/102 93/93/93
f 97/97/97 542/542/542 105/105/105
f 543/543/543 105/105/105 542/542/542
f 100/100/100 99/99/99 108/108/108
f 108/108/108 101/101/101 100/100/100
f 98/98/98 97/97/97 106/106/106
f 105/105/105 106/106/106 97/97/97
f 99/99/99 98/98/98 107/107/107
f 107/107/107 108/108/108 99/99/99
f 106/106/106 107/107/107 98/98/98
f 102/102/102 101/101/101 110/110/110
f 110/110/110 111/111/111 102/102/102
f 105/105/105 543/543/543 113/113/113
f 544/544/544 113/113/113 543/543/543
f 113/113/113 544/544/544 121/121/121
f 545/545/545 121/121/121 544/544/544
f 546/546/546 121/121/121 545/545/545
f 101/101/101 108/108/108 109/109/109
f 109/109/109 110/110/110 101/101/101
f 108/108/108 107/107/107 116/116/116
f 116/116/116 109/109/109 108/108/108
f 106/106/106 105/105/105 114/114/114
f 113/113/113 114/114/114 105/105/105
f 107/107/107 106/106/106 115/115/115
f 115/115/115 116/116/116 107/107/107
f 114/114/114 115/115/115 106/106/106
f 121/121/121 546/546/546 136/136/136
f 547/547/547 136/136/136 546/546/546
f 136/136/136 137/137/137 121/121/121
f 121/121/121 122/122/122 113/113/113
f 114/114/114 113/113/113 122/122/122
f 129/129/129 121/121/121 137/137/137
f 122/122/122 121/121/121 129/129/129
f 137/137/137 138/138/138 129/129/129
f 130/130/130 129/129/129 138/138/138
f 129/129/129 130/130/130 122/122/122
f 138/138/138 139/139/139 130/130/130
f 122/122/122 123/123/123 114/114/114
f 115/115/115 114/114/114 123/123/123
f 123/123/123 122/122/122 130/130/130
f 131/131/131 130/130/130 139/139/139
f 130/130/130 131/131/131 123/123/123
f 139/139/139 132/132/132 131/131/131
f 123/123/123 124/124/124 115/115/115
f 124/124/124 123/123/123 131/131/131
f 116/116/116 115/115/115 124/124/124
f 125/125/125 131/131/131 132/132/132
f 131/131/131 125/125/125 124/124/124
f 132/132/132 133/133/133 125/125/125
f 124/124/124 117/117/117 116/116/116
f 117/117/117 124/124/124 125/125/125
f 109/109/109 116/116/116 117/117/117
f 126/126/126 125/125/125 133/133/133
f 125/125/125 126/126/126 117/117/117
f 133/133/133 134/134/134 126/126/126
f 117/117/117 118/118/118 109/109/109
f 118/118/118 117/117/117 126/126/126
f 110/110/110 109/109/109 118/118/118
f 127/127/127 126/126/126 134/134/134
f 126/126/126 127/127/127 118/118/118
f 134/134/134 135/135/135 127/127/127
f 128/128/128 127/127/127 135/135/135
f 118/118/118 119/119/119 110/110/110
f 119/119/119 118/118/118 127/127/127
f 127/127/127 128/128/128 119/119/119
f 111/111/111 110/110/110 119/119/119
f 120/120/120 119/119/119 128/128/128
f 119/119/119 120/120/120 111/111/111
f 152/152/152 151/151/151 548/548/548
f 549/549/549 152/152/152 548/548/548
f 153/153/153 152/152/152 549/549/549
f 550/550/550 153/153/153 549/549/549
f 154/154/154 153/153/153 550/550/550
f 551/551/551 154/154/154 550/550/550
f 155/155/155 154/154/154 551/551/551
f 552/552/552 155/155/155 551/551/551
f 156/156/156 155/155/155 552/552/552
f 553/553/553 156/156/156 552/552/552
f 157/157/157 555/555/555 554/554/554
f 556/556/556 157/157/157 554/554/554
f 158/158/158 157/157/157 556/556/556
f 557/557/557 158/158/158 556/556/556
f 159/159/159 158/158/158 557/557/557
f 558/558/558 159/159/159 557/557/557
f 160/160/160 159/159/159 558/558/558
f 559/559/559 160/160/160 558/558/558
f 560/560/560 160/160/160 559/559/559
f 561/561/561 560/560/560 559/559/559
f 168/168/168 169/169/169 167/167/167
f 170/170/170 168/168/168 167/167/167
f 171/171/171 168/168/168 170/170/170
f 172/172/172 171/171/171 170/170/170
f 173/173/173 171/171/171 172/172/172
f 174/174/174 173/173/173 172/172/172
f 175/175/175 173/173/173 174/174/174
f 176/176/176 175/175/175 174/174/174
f 177/177/177 573/573/573 572/572/572
f 178/178/178 177/177/177 572/572/572
f 179/179/179 177/177/177 178/178/178
f 180/180/180 179/179/179 178/178/178
f 181/181/181 179/179/179 180/180/180
f 182/182/182 181/181/181 180/180/180
f 574/574/574 181/181/181 182/182/182
f 575/575/575 574/574/574 182/182/182
f 193/193/193 192/192/192 576/576/576
f 577/577/577 193/193/193 576/576/576
f 194/194/194 193/193/193 577/577/577
f 578/578/578 194/194/194 577/577/577
f 195/195/195 194/194/194 578/578/578
f 579/579/579 195/195/195 578/578/578
f 196/196/196 195/195/195 579/579/579
f 580/580/580 196/196/196 579/579/579
f 197/197/197 582/582/582 581/581/581
f 583/583/583 197/197/197 581/581/581
f 198/198/198 197/197/197 583/583/583
f 584/584/584 198/198/198 583/583/583
f 199/199/199 198/198/198 584/584/584
f 585/585/585 199/199/199 584/584/584
f 586/586/586 199/199/199 585/585/585
f 587/587/587 586/586/586 585/585/585
f 205/205/205 209/209/209 204/204/204
f 208/208/208 204/204/204 209/209/209
f 207/207/207 597/597/597 596/596/596
f 207/207/207 211/211/211 597/597/597
f 212/212/212 597/597/597 211/211/211
f 599/599/599 206/206/206 598/598/598
f 599/599/599 213/213/213 206/206/206
f 210/210/210 206/206/206 213/213/213
f 602/602/602 601/601/601 600/600/600
f 603/603/603 600/600/600 601/601/601
f 224/224/224 225/225/225 223/223/223
f 223/223/223 225/225/225 222/222/222
f 225/225/225 226/226/226 222/222/222
f 222/222/222 226/226/226 221/221/221
f 226/226/226 227/227/227 221/221/221
f 221/221/221 227/227/227 220/220/220
f 227/227/227 216/216/216 220/220/220
f 220/220/220 216/216/216 219/219/219
f 219/219/219 216/216/216 218/218/218
f 218/218/218 216/216/216 228/228/228
f 217/217/217 218/218/218 228/228/228
f 229/229/229 217/217/217 228/228/228
f 230/230/230 217/217/217 229/229/229
f 215/215/215 217/217/217 230/230/230
f 214/214/214 215/215/215 230/230/230
f 605/605/605 231/231/231 604/604/604
f 232/232/232 604/604/604 231/231/231
f 604/604/604 232/232/232 606/606/606
f 233/233/233 606/606/606 232/232/232
f 606/606/606 233/233/233 607/607/607
f 234/234/234 607/607/607 233/233/233
f 607/607/607 234/234/234 608/608/608
f 235/235/235 608/608/608 234/234/234
f 608/608/608 235/235/235 609/609/609
f 236/236/236 609/609/609 235/235/235
f 609/609/609 236/236/236 610/610/610
f 237/237/237 610/610/610 236/236/236
f 610/610/610 237/237/237 611/611/611
f 238/238/238 611/611/611 237/237/237
f 611/611/611 238/238/238 612/612/612
f 239/239/239 612/612/612 238/238/238
f 614/614/614 240/240/240 613/613/613
f 241/241/241 613/613/613 240/240/240
f 613/613/613 241/241/241 615/615/615
f 242/242/242 615/615/615 241/241/241
f 615/615/615 242/242/242 616/616/616
f 243/243/243 616/616/616 242/242/242
f 616/616/616 243/243/243 617/617/617
f 244/244/244 617/617/617 243/243/243
f 617/617/617 244/244/244 618/618/618
f 245/245/245 618/618/618 244/244/244
f 618/618/618 245/245/245 619/619/619
f 246/246/246 619/619/619 245/245/245
f 619/619/619 246/246/246 620/620/620
f 247/247/247 620/620/620 246/246/246
f 620/620/620 247/247/247 621/621/621
f 622/622/622 621/621/621 247/247/247
f 635/635/635 636/636/636 637/637/637
f 633/633/633 636/636/636 635/635/635
f 633/633/633 634/634/634 636/636/636
f 631/631/631 634/634/634 633/633/633
f 631/631/631 632/632/632 634/634/634
f 630/630/630 632/632/632 631/631/631
f 630/630/630 628/628/628 632/632/632
f 629/629/629 628/628/628 630/630/630
f 626/626/626 628/628/628 629/629/629
f 627/627/627 628/628/628 626/626/626
f 627/627/627 626/626/626 624/624/624
f 627/627/627 624/624/624 638/638/638
f 638/638/638 624/624/624 625/625/625
f 625/625/625 624/624/624 623/623/623
f 625/625/625 623/623/623 639/639/639
f 287/287/287 285/285/285 286/286/286
f 296/296/296 286/286/286 285/285/285
f 662/662/662 296/296/296 285/285/285
f 296/296/296 662/662/662 661/661/661
f 275/275/275 640/640/640 274/274/274
f 261/261/261 274/274/274 640/640/640
f 274/274/274 261/261/261 273/273/273
f 260/260/260 273/273/273 261/261/261
f 273/273/273 260/260/260 272/272/272
f 259/259/259 272/272/272 260/260/260
f 272/272/272 259/259/259 271/271/271
f 258/258/258 271/271/271 259/259/259
f 271/271/271 258/258/258 283/283/283
f 270/270/270 283/283/283 258/258/258
f 283/283/283 270/270/270 282/282/282
f 269/269/269 282/282/282 270/270/270
f 282/282/282 269/269/269 281/281/281
f 268/268/268 281/281/281 269/269/269
f 281/281/281 268/268/268 642/642/642
f 643/643/643 642/642/642 268/268/268
f 262/262/262 641/641/641 263/263/263
f 263/263/263 250/250/250 262/262/262
f 289/289/289 262/262/262 250/250/250
f 250/250/250 263/263/263 251/251/251
f 264/264/264 251/251/251 263/263/263
f 264/264/264 276/276/276 251/251/251
f 716/716/716 251/251/251 276/276/276
f 276/276/276 277/277/277 716/716/716
f 742/742/742 716/716/716 277/277/277
f 289/289/289 652/652/652 651/651/651
f 653/653/653 651/651/651 652/652/652
f 280/280/280 267/267/267 266/266/266
f 267/267/267 248/248/248 266/266/266
f 295/295/295 266/266/266 248/248/248
f 266/266/266 295/295/295 265/265/265
f 294/294/294 265/265/265 295/295/295
f 294/294/294 741/741/741 265/265/265
f 279/279/279 265/265/265 741/741/741
f 741/741/741 743/743/743 279/279/279
f 278/278/278 279/279/279 743/743/743
f 655/655/655 654/654/654 248/248/248
f 656/656/656 248/248/248 654/654/654
f 297/297/297 249/249/249 284/284/284
f 288/288/288 284/284/284 249/249/249
f 249/249/249 290/290/290 288/288/288
f 255/255/255 288/288/288 290/290/290
f 290/290/290 291/291/291 255/255/255
f 254/254/254 255/255/255 291/291/291
f 291/291/291 252/252/252 254/254/254
f 293/293/293 254/254/254 252/252/252
f 650/650/650 645/645/645 649/649/649
f 649/649/649 645/645/645 648/648/648
f 648/648/648 645/645/645 646/646/646
f 646/646/646 645/645/645 644/644/644
f 647/647/647 644/644/644 645/645/645
f 644/644/644 647/647/647 660/660/660
f 660/660/660 647/647/647 659/659/659
f 659/659/659 647/647/647 658/658/658
f 658/658/658 647/647/647 657/657/657
f 677/677/677 669/669/669 678/678/678
f 669/669/669 677/677/677 671/671/671
f 671/671/671 670/670/670 669/669/669
f 670/670/670 671/671/671 672/672/672
f 672/672/672 676/676/676 670/670/670
f 676/676/676 672/672/672 675/675/675
f 675/675/675 257/257/257 676/676/676
f 257/257/257 675/675/675 674/674/674
f 674/674/674 253/253/253 257/257/257
f 674/674/674 292/292/292 253/253/253
f 292/292/292 674/674/674 673/673/673
f 673/673/673 256/256/256 292/292/292
f 673/673/673 667/667/667 256/256/256
f 668/668/668 256/256/256 667/667/667
f 667/667/667 666/666/666 668/668/668
f 666/666/666 667/667/667 664/664/664
f 664/664/664 665/665/665 666/666/666
f 665/665/665 664/664/664 663/663/663
f 663/663/663 679/679/679 665/665/665
f 679/679/679 663/663/663 680/680/680
f 303/303/303 305/305/305 302/302/302
f 304/304/304 302/302/302 305/305/305
f 299/299/299 681/681/681 298/298/298
f 682/682/682 298/298/298 681/681/681
f 301/301/301 684/684/684 683/683/683
f 685/685/685 683/683/683 684/684/684
f 300/300/300 687/687/687 686/686/686
f 688/688/688 686/686/686 687/687/687
f 691/691/691 690/690/690 689/689/689
f 692/692/692 689/689/689 690/690/690
f 321/321/321 694/694/694 693/693/693
f 313/313/313 321/321/321 693/693/693
f 693/693/693 695/695/695 313/313/313
f 314/314/314 321/321/321 313/313/313
f 329/329/329 313/313/313 695/695/695
f 306/306/306 314/314/314 313/313/313
f 315/315/315 314/314/314 306/306/306
f 313/313/313 329/329/329 322/322/322
f 322/322/322 306/306/306 313/313/313
f 330/330/330 322/322/322 329/329/329
f 307/307/307 315/315/315 306/306/306
f 306/306/306 322/322/322 307/307/307
f 316/316/316 315/315/315 307/307/307
f 322/322/322 330/330/330 323/323/323
f 323/323/323 307/307/307 322/322/322
f 331/331/331 323/323/323 330/330/330
f 308/308/308 316/316/316 307/307/307
f 307/307/307 323/323/323 308/308/308
f 317/317/317 316/316/316 308/308/308
f 323/323/323 331/331/331 324/324/324
f 324/324/324 308/308/308 323/323/323
f 332/332/332 324/324/324 331/331/331
f 309/309/309 317/317/317 308/308/308
f 308/308/308 324/324/324 309/309/309
f 318/318/318 317/317/317 309/309/309
f 324/324/324 332/332/332 325/325/325
f 325/325/325 309/309/309 324/324/324
f 333/333/333 325/325/325 332/332/332
f 310/310/310 318/318/318 309/309/309
f 309/309/309 325/325/325 310/310/310
f 319/319/319 318/318/318 310/310/310
f 325/325/325 333/333/333 326/326/326
f 326/326/326 310/310/310 325/325/325
f 334/334/334 326/326/326 333/333/333
f 326/326/326 334/334/334 327/327/327
f 311/311/311 319/319/319 310/310/310
f 310/310/310 326/326/326 311/311/311
f 327/327/327 311/311/311 326/326/326
f 320/320/320 319/319/319 311/311/311
f 312/312/312 320/320/320 311/311/311
f 311/311/311 327/327/327 312/312/312
f 328/328/328 312/312/312 327/327/327
f 344/344/344 345/345/345 696/696/696
f 697/697/697 344/344/344 696/696/696
f 346/346/346 344/344/344 697/697/697
f 698/698/698 346/346/346 697/697/697
f 347/347/347 346/346/346 698/698/698
f 699/699/699 347/347/347 698/698/698
f 348/348/348 347/347/347 699/699/699
f 700/700/700 348/348/348 699/699/699
f 349/349/349 702/702/702 701/701/701
f 703/703/703 349/349/349 701/701/701
f 350/350/350 349/349/349 703/703/703
f 704/704/704 350/350/350 703/703/703
f 351/351/351 350/350/350 704/704/704
f 705/705/705 351/351/351 704/704/704
f 706/706/706 351/351/351 705/705/705
f 707/707/707 706/706/706 705/705/705
f 357/357/357 356/356/356 365/365/365
f 359/359/359 365/365/365 356/356/356
f 364/364/364 359/359/359 356/356/356
f 727/727/727 364/364/364 356/356/356
f 361/361/361 363/363/363 360/360/360
f 363/363/363 367/367/367 360/360/360
f 366/366/366 360/360/360 367/367/367
f 728/728/728 366/366/366 367/367/367
f 720/720/720 717/717/717 718/718/718
f 719/719/719 718/718/718 717/717/717
f 721/721/721 718/718/718 719/719/719
f 718/718/718 721/721/721 723/723/723
f 723/723/723 721/721/721 362/362/362
f 722/722/722 362/362/362 721/721/721
f 358/358/358 362/362/362 722/722/722
f 362/362/362 358/358/358 726/726/726
f 726/726/726 358/358/358 724/724/724
f 725/725/725 724/724/724 358/358/358
f 731/731/731 379/379/379 730/730/730
f 379/379/379 378/378/378 730/730/730
f 730/730/730 378/378/378 729/729/729
f 378/378/378 377/377/377 729/729/729
f 729/729/729 377/377/377 740/740/740
f 377/377/377 384/384/384 740/740/740
f 740/740/740 384/384/384 738/738/738
f 384/384/384 739/739/739 738/738/738
f 380/380/380 733/733/733 732/732/732
f 734/734/734 380/380/380 732/732/732
f 381/381/381 380/380/380 734/734/734
f 735/735/735 381/381/381 734/734/734
f 382/382/382 381/381/381 735/735/735
f 736/736/736 382/382/382 735/735/735
f 383/383/383 382/382/382 736/736/736
f 737/737/737 383/383/383 736/736/736
f 386/386/386 387/387/387 385/385/385
f 388/388/388 385/385/385 387/387/387
f 392/392/392 393/393/393 391/391/391
f 394/394/394 391/391/391 393/393/393
f 398/398/398 399/399/399 397/397/397
f 400/400/400 397/397/397 399/399/399
f 404/404/404 408/408/408 403/403/403
f 407/407/407 403/403/403 408/408/408
f 410/410/410 411/411/411 409/409/409
f 412/412/412 409/409/409 411/411/411
f 419/419/419 415/415/415 418/418/418
f 417/417/417 418/418/418 415/415/415
f 416/416/416 417/417/417 415/415/415
f 774/774/774 416/416/416 415/415/415
f 421/421/421 422/422/422 420/420/420
f 422/422/422 423/423/423 420/420/420
f 424/424/424 420/420/420 423/423/423
f 775/775/775 424/424/424 423/423/423
f 767/767/767 764/764/764 765/765/765
f 766/766/766 765/765/765 764/764/764
f 768/768/768 765/765/765 766/766/766
f 765/765/765 768/768/768 770/770/770
f 770/770/770 768/768/768 425/425/425
f 769/769/769 425/425/425 768/768/768
f 426/426/426 425/425/425 769/769/769
f 425/425/425 426/426/426 773/773/773
f 773/773/773 426/426/426 771/771/771
f 772/772/772 771/771/771 426/426/426
f 778/778/778 438/438/438 777/777/777
f 438/438/438 436/436/436 777/777/777
f 777/777/777 436/436/436 776/776/776
f 436/436/436 437/437/437 776/776/776
f 776/776/776 437/437/437 787/787/787
f 437/437/437 443/443/443 787/787/787
f 787/787/787 443/443/443 785/785/785
f 443/443/443 786/786/786 785/785/785
f 439/439/439 780/780/780 779/779/779
f 781/781/781 439/439/439 779/779/779
f 440/440/440 439/439/439 781/781/781
f 782/782/782 440/440/440 781/781/781
f 441/441/441 440/440/440 782/782/782
f 783/783/783 441/441/441 782/782/782
f 442/442/442 441/441/441 783/783/783
f 784/784/784 442/442/442 783/783/783
f 445/445/445 449/449/449 444/444/444
f 448/448/448 444/444/444 449/449/449
f 451/451/451 452/452/452 450/450/450
f 453/453/453 450/450/450 452/452/452
f 142/142/142 141/141/141 140/140/140
f 143/143/143 142/142/142 140/140/140
f 141/141/141 150/150/150 140/140/140
f 144/144/144 143/143/143 140/140/140
f 150/150/150 149/149/149 140/140/140
f 145/145/145 144/144/144 140/140/140
f 149/149/149 148/148/148 140/140/140
f 146/146/146 145/145/145 140/140/140
f 148/148/148 147/147/147 140/140/140
f 147/147/147 146/146/146 140/140/140
f 185/185/185 184/184/184 183/183/183
f 186/186/186 185/185/185 183/183/183
f 184/184/184 191/191/191 183/183/183
f 187/187/187 186/186/186 183/183/183
f 191/191/191 190/190/190 183/183/183
f 188/188/188 187/187/187 183/183/183
f 190/190/190 189/189/189 183/183/183
f 189/189/189 188/188/188 183/183/183
f 336/336/336 337/337/337 335/335/335
f 338/338/338 336/336/336 335/335/335
f 337/337/337 343/343/343 335/335/335
f 339/339/339 338/338/338 335/335/335
f 343/343/343 342/342/342 335/335/335
f 340/340/340 339/339/339 335/335/335
f 342/342/342 341/341/341 335/335/335
f 341/341/341 340/340/340 335/335/335
f 370/370/370 369/369/369 368/368/368
f 371/371/371 370/370/370 368/368/368
f 369/369/369 376/376/376 368/368/368
f 372/372/372 371/371/371 368/368/368
f 376/376/376 375/375/375 368/368/368
f 373/373/373 372/372/372 368/368/368
f 375/375/375 374/374/374 368/368/368
f 374/374/374 373/373/373 368/368/368
f 428/428/428 429/429/429 427/427/427
f 430/430/430 428/428/428 427/427/427
f 429/429/429 435/435/435 427/427/427
f 431/431/431 430/430/430 427/427/427
f 435/435/435 434/434/434 427/427/427
f 432/432/432 431/431/431 427/427/427
f 434/434/434 433/433/433 427/427/427
f 433/433/433 432/432/432 427/427/427
f 563/563/563 162/162/162 562/562/562
f 562/562/562 162/162/162 571/571/571
f 162/162/162 563/563/563 163/163/163
f 564/564/564 163/163/163 563/563/563
f 565/565/565 163/163/163 564/564/564
f 166/166/166 571/571/571 162/162/162
f 571/571/571 166/166/166 570/570/570
f 570/570/570 166/166/166 569/569/569
f 162/162/162 163/163/163 161/161/161
f 166/166/166 162/162/162 161/161/161
f 163/163/163 565/565/565 164/164/164
f 163/163/163 164/164/164 161/161/161
f 566/566/566 164/164/164 565/565/565
f 567/567/567 164/164/164 566/566/566
f 165/165/165 569/569/569 166/166/166
f 165/165/165 166/166/166 161/161/161
f 164/164/164 165/165/165 161/161/161
f 164/164/164 567/567/567 165/165/165
f 569/569/569 165/165/165 568/568/568
f 568/568/568 165/165/165 567/567/567
f 201/201/201 589/589/589 588/588/588
f 589/589/589 201/201/201 595/595/595
f 588/588/588 202/202/202 201/201/201
f 590/590/590 202/202/202 588/588/588
f 202/202/202 590/590/590 591/591/591
f 595/595/595 201/201/201 200/200/200
f 201/201/201 202/202/202 200/200/200
f 200/200/200 594/594/594 595/595/595
f 594/594/594 200/200/200 593/593/593
f 591/591/591 203/203/203 202/202/202
f 202/202/202 203/203/203 200/200/200
f 593/593/593 200/200/200 203/203/203
f 592/592/592 203/203/203 591/591/591
f 203/203/203 592/592/592 593/593/593
f 353/353/353 709/709/709 708/708/708
f 709/709/709 353/353/353 715/715/715
f 708/708/708 354/354/354 353/353/353
f 710/710/710 354/354/354 708/708/708
f 354/354/354 710/710/710 711/711/711
f 715/715/715 353/353/353 352/352/352
f 353/353/353 354/354/354 352/352/352
f 352/352/352 714/714/714 715/715/715
f 714/714/714 352/352/352 713/713/713
f 711/711/711 355/355/355 354/354/354
f 354/354/354 355/355/355 352/352/352
f 713/713/713 352/352/352 355/355/355
f 712/712/712 355/355/355 711/711/711
f 355/355/355 712/712/712 713/713/713
