{
  "accessors": [
    {
      "bufferView": 2,
      "componentType": 5126,
      "count": 1296,
      "max": [
        0.9664076566696167,
        0.5000019669532776,
        1.0959250926971436
      ],
      "min": [
        -0.03359239175915718,
        -0.49999818205833435,
        -0.3141441345214844
      ],
      "type": "VEC3"
    },
    {
      "bufferView": 2,
      "byteOffset": 15552,
      "componentType": 5126,
      "count": 1296,
      "max": [
        1.0,
        1.0,
        1.0
      ],
      "min": [
        -1.0,
        -1.0,
        -1.0
      ],
      "type": "VEC3"
    },
    {
      "bufferView": 1,
      "componentType": 5126,
      "count": 1296,
      "max": [
        0.9879806041717529,
        0.9029057025909424
      ],
      "min": [
        0.1748449206352234,
        0.0
      ],
      "type": "VEC2"
    },
    {
      "bufferView": 0,
      "componentType": 5125,
      "count": 6528,
      "type": "SCALAR"
    },
    {
      "bufferView": 2,
      "byteOffset": 31104,
      "componentType": 5126,
      "count": 854,
      "max": [
        0.05832705646753311,
        0.8984445929527283,
        0.6601834893226624
      ],
      "min": [
        -0.051998693495988846,
        -0.9044989347457886,
        -0.6275757551193237
      ],
      "type": "VEC3"
    },
    {
      "bufferView": 2,
      "byteOffset": 41352,
      "componentType": 5126,
      "count": 854,
      "max": [
        0.9999990463256836,
        0.9992360472679138,
        0.9994522333145142
      ],
      "min": [
        -0.9999983906745911,
        -0.9986960887908936,
        -0.9986475706100464
      ],
      "type": "VEC3"
    },
    {
      "bufferView": 1,
      "byteOffset": 10368,
      "componentType": 5126,
      "count": 854,
      "max": [
        0.9998936653137207,
        0.9662936329841614
      ],
      "min": [
        0.1672825813293457,
        0.0
      ],
      "type": "VEC2"
    },
    {
      "bufferView": 0,
      "byteOffset": 26112,
      "componentType": 5125,
      "count": 4368,
      "type": "SCALAR"
    },
    {
      "bufferView": 2,
      "byteOffset": 51600,
      "componentType": 5126,
      "count": 834,
      "max": [
        0.05832698568701744,
        0.8984444737434387,
        0.6601832509040833
      ],
      "min": [
        -0.05199870094656944,
        -0.9044990539550781,
        -0.6275750398635864
      ],
      "type": "VEC3"
    },
    {
      "bufferView": 2,
      "byteOffset": 61608,
      "componentType": 5126,
      "count": 834,
      "max": [
        0.9999990463256836,
        0.9992361664772034,
        0.9994515776634216
      ],
      "min": [
        -0.9999984502792358,
        -0.9986960291862488,
        -0.9986472725868225
      ],
      "type": "VEC3"
    },
    {
      "bufferView": 1,
      "byteOffset": 17200,
      "componentType": 5126,
      "count": 834,
      "max": [
        0.7707497477531433,
        0.8554534316062927
      ],
      "min": [
        0.000910730566829443,
        0.0
      ],
      "type": "VEC2"
    },
    {
      "bufferView": 0,
      "byteOffset": 43584,
      "componentType": 5125,
      "count": 4368,
      "type": "SCALAR"
    },
    {
      "bufferView": 2,
      "byteOffset": 71616,
      "componentType": 5126,
      "count": 2181,
      "max": [
        0.995830237865448,
        1.1505777835845947,
        1.0147144794464111
      ],
      "min": [
        -1.0335553884506226,
        -1.1797394752502441,
        -1.014564871788025
      ],
      "type": "VEC3"
    },
    {
      "bufferView": 2,
      "byteOffset": 97788,
      "componentType": 5126,
      "count": 2181,
      "max": [
        1.0,
        1.0,
        0.999998927116394
      ],
      "min": [
        -1.0,
        -1.0,
        -0.999998927116394
      ],
      "type": "VEC3"
    },
    {
      "bufferView": 1,
      "byteOffset": 23872,
      "componentType": 5126,
      "count": 2181,
      "max": [
        0.9869776964187622,
        0.9587078094482422
      ],
      "min": [
        0.0009107292862609029,
        0.0
      ],
      "type": "VEC2"
    },
    {
      "bufferView": 0,
      "byteOffset": 61056,
      "componentType": 5125,
      "count": 11088,
      "type": "SCALAR"
    },
    {
      "bufferView": 2,
      "byteOffset": 123960,
      "componentType": 5126,
      "count": 834,
      "max": [
        -0.0004619093087967485,
        1.0167418718338013,
        -2.0025343894958496
      ],
      "min": [
        -0.11078761518001556,
        -0.7862017750740051,
        -3.2902944087982178
      ],
      "type": "VEC3"
    },
    {
      "bufferView": 2,
      "byteOffset": 133968,
      "componentType": 5126,
      "count": 834,
      "max": [
        0.9999990463256836,
        0.9992361664772034,
        0.9994513988494873
      ],
      "min": [
        -0.9999984502792358,
        -0.9986961483955383,
        -0.9986473321914673
      ],
      "type": "VEC3"
    },
    {
      "bufferView": 1,
      "byteOffset": 41320,
      "componentType": 5126,
      "count": 834,
      "max": [
        0.808560848236084,
        0.5521348118782043
      ],
      "min": [
        0.3034050166606903,
        0.20405316352844238
      ],
      "type": "VEC2"
    },
    {
      "bufferView": 0,
      "byteOffset": 105408,
      "componentType": 5125,
      "count": 4368,
      "type": "SCALAR"
    },
    {
      "bufferView": 2,
      "byteOffset": 143976,
      "componentType": 5126,
      "count": 834,
      "max": [
        -0.00046189018758013844,
        1.0167418718338013,
        -2.0025346279144287
      ],
      "min": [
        -0.11078759282827377,
        -0.786201536655426,
        -3.290295124053955
      ],
      "type": "VEC3"
    },
    {
      "bufferView": 2,
      "byteOffset": 153984,
      "componentType": 5126,
      "count": 834,
      "max": [
        0.9999991059303284,
        0.9992361664772034,
        0.9994515776634216
      ],
      "min": [
        -0.9999983310699463,
        -0.9986961483955383,
        -0.9986474514007568
      ],
      "type": "VEC3"
    },
    {
      "bufferView": 1,
      "byteOffset": 47992,
      "componentType": 5126,
      "count": 834,
      "max": [
        0.8115814924240112,
        0.8299946188926697
      ],
      "min": [
        0.2050943672657013,
        0.4059974253177643
      ],
      "type": "VEC2"
    },
    {
      "bufferView": 0,
      "byteOffset": 122880,
      "componentType": 5125,
      "count": 4368,
      "type": "SCALAR"
    },
    {
      "bufferView": 2,
      "byteOffset": 163992,
      "componentType": 5126,
      "count": 65532,
      "max": [
        0.4678961932659149,
        0.8978915214538574,
        0.9112834334373474
      ],
      "min": [
        -0.4790436625480652,
        -0.8969864845275879,
        -0.9128276705741882
      ],
      "type": "VEC3"
    },
    {
      "bufferView": 2,
      "byteOffset": 950376,
      "componentType": 5126,
      "count": 65532,
      "max": [
        0.9999577403068542,
        0.999912679195404,
        1.0
      ],
      "min": [
        -0.9999581575393677,
        -0.9999139308929443,
        -1.0
      ],
      "type": "VEC3"
    },
    {
      "bufferView": 1,
      "byteOffset": 54664,
      "componentType": 5126,
      "count": 65532,
      "max": [
        1.0,
        0.9912371039390564
      ],
      "min": [
        0.0009106993675231934,
        0.0
      ],
      "type": "VEC2"
    },
    {
      "bufferView": 0,
      "byteOffset": 140352,
      "componentType": 5125,
      "count": 327378,
      "type": "SCALAR"
    },
    {
      "bufferView": 2,
      "byteOffset": 1736760,
      "componentType": 5126,
      "count": 28333,
      "max": [
        0.44502976536750793,
        0.9112110137939453,
        0.9249771237373352
      ],
      "min": [
        -0.43546032905578613,
        -0.9112110733985901,
        -0.9249771237373352
      ],
      "type": "VEC3"
    },
    {
      "bufferView": 2,
      "byteOffset": 2076756,
      "componentType": 5126,
      "count": 28333,
      "max": [
        0.9999309182167053,
        0.9999992847442627,
        1.0
      ],
      "min": [
        -0.9999307990074158,
        -0.9999992251396179,
        -1.0
      ],
      "type": "VEC3"
    },
    {
      "bufferView": 1,
      "byteOffset": 578920,
      "componentType": 5126,
      "count": 28333,
      "max": [
        0.9997388124465942,
        0.9992538094520569
      ],
      "min": [
        0.0009107291698455811,
        -2.444721758365631e-09
      ],
      "type": "VEC2"
    },
    {
      "bufferView": 0,
      "byteOffset": 1449864,
      "componentType": 5125,
      "count": 142062,
      "type": "SCALAR"
    },
    {
      "bufferView": 2,
      "byteOffset": 2416752,
      "componentType": 5126,
      "count": 376,
      "max": [
        0.020522186532616615,
        -1.4373408555984497,
        0.2494116574525833
      ],
      "min": [
        -0.8730235695838928,
        -1.4569240808486938,
        -0.2593730688095093
      ],
      "type": "VEC3"
    },
    {
      "bufferView": 2,
      "byteOffset": 2421264,
      "componentType": 5126,
      "count": 376,
      "max": [
        1.0,
        1.0,
        1.0
      ],
      "min": [
        -1.0,
        -1.0,
        -1.0
      ],
      "type": "VEC3"
    },
    {
      "bufferView": 1,
      "byteOffset": 805584,
      "componentType": 5126,
      "count": 376,
      "max": [
        0.9416097402572632,
        0.039811670780181885
      ],
      "min": [
        0.061409592628479004,
        0.0
      ],
      "type": "VEC2"
    },
    {
      "bufferView": 0,
      "byteOffset": 2018112,
      "componentType": 5125,
      "count": 960,
      "type": "SCALAR"
    },
    {
      "bufferView": 2,
      "byteOffset": 2425776,
      "componentType": 5126,
      "count": 19698,
      "max": [
        0.10561974346637726,
        0.12017925083637238,
        0.3193877041339874
      ],
      "min": [
        -1.213076114654541,
        -1.4451907873153687,
        -0.3193877041339874
      ],
      "type": "VEC3"
    },
    {
      "bufferView": 2,
      "byteOffset": 2662152,
      "componentType": 5126,
      "count": 19698,
      "max": [
        0.9999991655349731,
        1.0,
        1.0
      ],
      "min": [
        -1.0,
        -1.0,
        -1.0
      ],
      "type": "VEC3"
    },
    {
      "bufferView": 1,
      "byteOffset": 808592,
      "componentType": 5126,
      "count": 19698,
      "max": [
        0.9986696839332581,
        0.9885942935943604
      ],
      "min": [
        0.000910730566829443,
        0.0
      ],
      "type": "VEC2"
    },
    {
      "bufferView": 0,
      "byteOffset": 2021952,
      "componentType": 5125,
      "count": 98448,
      "type": "SCALAR"
    },
    {
      "bufferView": 3,
      "componentType": 5126,
      "count": 69,
      "max": [
        8.333333015441895
      ],
      "min": [
        0.01666666753590107
      ],
      "type": "SCALAR"
    },
    {
      "bufferView": 4,
      "componentType": 5126,
      "count": 69,
      "max": [
        0.0,
        0.029079316183924675,
        0.0,
        0.9999998807907104
      ],
      "min": [
        0.0,
        -0.31454989314079285,
        0.0,
        0.9492409229278564
      ],
      "type": "VEC4"
    },
    {
      "bufferView": 3,
      "byteOffset": 276,
      "componentType": 5126,
      "count": 500,
      "max": [
        8.333333015441895
      ],
      "min": [
        0.01666666753590107
      ],
      "type": "SCALAR"
    },
    {
      "bufferView": 4,
      "byteOffset": 1104,
      "componentType": 5126,
      "count": 500,
      "max": [
        0.9961885809898376,
        0.08715520799160004,
        0.08715572953224182,
        0.9961945414543152
      ],
      "min": [
        -0.8534533381462097,
        -0.07466749101877213,
        -0.04344312474131584,
        -0.49655717611312866
      ],
      "type": "VEC4"
    }
  ],
  "animations": [
    {
      "channels": [
        {
          "sampler": 0,
          "target": {
            "node": 5,
            "path": "rotation"
          }
        },
        {
          "sampler": 1,
          "target": {
            "node": 9,
            "path": "rotation"
          }
        }
      ],
      "name": "Fan hgpl anim",
      "samplers": [
        {
          "input": 40,
          "interpolation": "LINEAR",
          "output": 41
        },
        {
          "input": 42,
          "interpolation": "LINEAR",
          "output": 43
        }
      ]
    }
  ],
  "asset": {
    "extras": {
      "author": "Noah (https://sketchfab.com/Noahouou)",
      "license": "CC-BY-4.0 (http://creativecommons.org/licenses/by/4.0/)",
      "source": "https://sketchfab.com/3d-models/vintage-fan-e037fa6d608241d2bc50c324d81b88d6",
      "title": "Vintage fan"
    },
    "generator": "Sketchfab-12.64.0",
    "version": "2.0"
  },
  "bufferViews": [
    {
      "buffer": 0,
      "byteLength": 2415744,
      "name": "floatBufferViews",
      "target": 34963
    },
    {
      "buffer": 0,
      "byteLength": 966176,
      "byteOffset": 2415744,
      "byteStride": 8,
      "name": "floatBufferViews",
      "target": 34962
    },
    {
      "buffer": 0,
      "byteLength": 2898528,
      "byteOffset": 3381920,
      "byteStride": 12,
      "name": "floatBufferViews",
      "target": 34962
    },
    {
      "buffer": 0,
      "byteLength": 2276,
      "byteOffset": 6280448,
      "name": "floatBufferViews"
    },
    {
      "buffer": 0,
      "byteLength": 9104,
      "byteOffset": 6282724,
      "byteStride": 16,
      "name": "floatBufferViews"
    }
  ],
  "buffers": [
    {
      "byteLength": 6291828,
      "uri": "scene.bin"
    }
  ],
  "images": [
    {
      "uri": "textures/defaultPolygonShader_baseColor.jpeg"
    },
    {
      "uri": "textures/defaultPolygonShader_metallicRoughness.png"
    }
  ],
  "materials": [
    {
      "doubleSided": true,
      "name": "defaultPolygonShader",
      "pbrMetallicRoughness": {
        "baseColorTexture": {
          "index": 0
        },
        "metallicRoughnessTexture": {
          "index": 1
        }
      }
    }
  ],
  "meshes": [
    {
      "name": "pCube3_defaultPolygonShader_0",
      "primitives": [
        {
          "attributes": {
            "NORMAL": 1,
            "POSITION": 0,
            "TEXCOORD_0": 2
          },
          "indices": 3,
          "material": 0,
          "mode": 4
        }
      ]
    },
    {
      "name": "polySurface2_defaultPolygonShader_0",
      "primitives": [
        {
          "attributes": {
            "NORMAL": 5,
            "POSITION": 4,
            "TEXCOORD_0": 6
          },
          "indices": 7,
          "material": 0,
          "mode": 4
        }
      ]
    },
    {
      "name": "polySurface1_defaultPolygonShader_0",
      "primitives": [
        {
          "attributes": {
            "NORMAL": 9,
            "POSITION": 8,
            "TEXCOORD_0": 10
          },
          "indices": 11,
          "material": 0,
          "mode": 4
        }
      ]
    },
    {
      "name": "pCylinder43_defaultPolygonShader_0",
      "primitives": [
        {
          "attributes": {
            "NORMAL": 13,
            "POSITION": 12,
            "TEXCOORD_0": 14
          },
          "indices": 15,
          "material": 0,
          "mode": 4
        }
      ]
    },
    {
      "name": "polySurface3_defaultPolygonShader_0",
      "primitives": [
        {
          "attributes": {
            "NORMAL": 17,
            "POSITION": 16,
            "TEXCOORD_0": 18
          },
          "indices": 19,
          "material": 0,
          "mode": 4
        }
      ]
    },
    {
      "name": "polySurface4_defaultPolygonShader_0",
      "primitives": [
        {
          "attributes": {
            "NORMAL": 21,
            "POSITION": 20,
            "TEXCOORD_0": 22
          },
          "indices": 23,
          "material": 0,
          "mode": 4
        }
      ]
    },
    {
      "name": "pCylinder55_defaultPolygonShader_0",
      "primitives": [
        {
          "attributes": {
            "NORMAL": 25,
            "POSITION": 24,
            "TEXCOORD_0": 26
          },
          "indices": 27,
          "material": 0,
          "mode": 4
        }
      ]
    },
    {
      "name": "pCylinder55_defaultPolygonShader_0",
      "primitives": [
        {
          "attributes": {
            "NORMAL": 29,
            "POSITION": 28,
            "TEXCOORD_0": 30
          },
          "indices": 31,
          "material": 0,
          "mode": 4
        }
      ]
    },
    {
      "name": "pCylinder56_defaultPolygonShader_0",
      "primitives": [
        {
          "attributes": {
            "NORMAL": 33,
            "POSITION": 32,
            "TEXCOORD_0": 34
          },
          "indices": 35,
          "material": 0,
          "mode": 4
        }
      ]
    },
    {
      "name": "pCylinder58_defaultPolygonShader_0",
      "primitives": [
        {
          "attributes": {
            "NORMAL": 37,
            "POSITION": 36,
            "TEXCOORD_0": 38
          },
          "indices": 39,
          "material": 0,
          "mode": 4
        }
      ]
    }
  ],
  "nodes": [
    {
      "children": [
        1
      ],
      "matrix": [
        1.0,
        0.0,
        0.0,
        0.0,
        0.0,
        2.220446049250313e-16,
        -1.0,
        0.0,
        0.0,
        1.0,
        2.220446049250313e-16,
        0.0,
        0.0,
        0.0,
        0.0,
        1.0
      ],
      "name": "Sketchfab_model"
    },
    {
      "children": [
        2
      ],
      "matrix": [
        1.0,
        0.0,
        0.0,
        0.0,
        0.0,
        0.0,
        1.0,
        0.0,
        0.0,
        -1.0,
        0.0,
        0.0,
        0.0,
        0.0,
        0.0,
        1.0
      ],
      "name": "50c106c4f26143f1a0f30dd09550d7c7.fbx"
    },
    {
      "children": [
        3
      ],
      "name": "Object_2"
    },
    {
      "children": [
        4,
        5,
        7,
        8,
        9,
        20,
        23,
        25
      ],
      "name": "RootNode"
    },
    {
      "name": "polyExtrudeFace19Curve",
      "rotation": [
        6.123234262925839e-17,
        1.0,
        6.123234262925839e-17,
        6.123234262925839e-17
      ],
      "translation": [
        0.0,
        0.10228520631790161,
        -2.611062526702881
      ]
    },
    {
      "children": [
        6
      ],
      "name": "pCube3",
      "rotation": [
        0.0,
        -0.31454992294311523,
        0.0,
        0.949241042137146
      ],
      "scale": [
        0.40135297179222107,
        0.038127634674310684,
        0.0906192734837532
      ],
      "translation": [
        -0.17428438365459442,
        -1.300010085105896,
        0.0
      ]
    },
    {
      "mesh": 0,
      "name": "pCube3_defaultPolygonShader_0"
    },
    {
      "name": "pTorus4",
      "rotation": [
        0.7399421334266663,
        -0.6208851337432861,
        0.1982668936252594,
        0.16636566817760468
      ],
      "scale": [
        0.6808651089668274,
        0.6808651089668274,
        0.6808651089668274
      ],
      "translation": [
        -0.3000081479549408,
        -0.05018367990851402,
        -0.0015441753203049302
      ]
    },
    {
      "name": "pTorus6",
      "rotation": [
        0.7399421334266663,
        -0.6208851337432861,
        0.1982668936252594,
        0.16636566817760468
      ],
      "scale": [
        0.30324065685272217,
        0.30324065685272217,
        0.30324065685272217
      ],
      "translation": [
        -0.4247232675552368,
        -0.07217422127723694,
        -0.0015442116418853402
      ]
    },
    {
      "children": [
        10,
        12,
        14,
        16,
        18
      ],
      "name": "group8",
      "rotation": [
        -0.309579461812973,
        -0.027084695175290108,
        0.0828404650092125,
        0.9468708634376526
      ]
    },
    {
      "children": [
        11
      ],
      "name": "polySurface2",
      "rotation": [
        -0.6035534143447876,
        -0.1035533919930458,
        0.0794593095779419,
        0.7865660786628723
      ],
      "scale": [
        0.34754350781440735,
        0.4393654763698578,
        0.4393654763698578
      ],
      "translation": [
        0.018169550225138664,
        0.034450069069862366,
        -0.4248296320438385
      ]
    },
    {
      "mesh": 1,
      "name": "polySurface2_defaultPolygonShader_0"
    },
    {
      "children": [
        13
      ],
      "name": "polySurface1",
      "rotation": [
        0.129409521818161,
        -0.129409521818161,
        -0.017037086188793182,
        0.9829629063606262
      ],
      "scale": [
        0.34754350781440735,
        0.4393654763698578,
        0.4393654763698578
      ],
      "translation": [
        0.007753001060336828,
        0.45485877990722656,
        0.017222188413143158
      ]
    },
    {
      "mesh": 2,
      "name": "polySurface1_defaultPolygonShader_0"
    },
    {
      "children": [
        15
      ],
      "name": "pCylinder43",
      "rotation": [
        0.09229595214128494,
        0.09229595214128494,
        -0.7010573744773865,
        0.7010573744773865
      ],
      "scale": [
        0.12627281248569489,
        0.12627281248569489,
        0.12627281248569489
      ],
      "translation": [
        0.02269616536796093,
        -0.0024703205563127995,
        -0.0006619203486479819
      ]
    },
    {
      "mesh": 3,
      "name": "pCylinder43_defaultPolygonShader_0"
    },
    {
      "children": [
        17
      ],
      "name": "polySurface3",
      "rotation": [
        0.9829629063606262,
        0.049950212240219116,
        -0.12059047818183899,
        -0.129409521818161
      ],
      "scale": [
        0.34754350781440735,
        0.4393654763698578,
        0.4393654763698578
      ],
      "translation": [
        -0.24764829874038696,
        -0.06879989802837372,
        -1.0897842645645142
      ]
    },
    {
      "mesh": 4,
      "name": "polySurface3_defaultPolygonShader_0"
    },
    {
      "children": [
        19
      ],
      "name": "polySurface4",
      "rotation": [
        0.7865660786628723,
        -0.0794593095779419,
        -0.1035533919930458,
        0.6035534143447876
      ],
      "scale": [
        0.34754350781440735,
        0.4393654763698578,
        0.4393654763698578
      ],
      "translation": [
        -0.28156912326812744,
        -1.0660693645477295,
        0.09473760426044464
      ]
    },
    {
      "mesh": 5,
      "name": "polySurface4_defaultPolygonShader_0"
    },
    {
      "children": [
        21,
        22
      ],
      "name": "pCylinder55"
    },
    {
      "mesh": 6,
      "name": "pCylinder55_defaultPolygonShader_0"
    },
    {
      "mesh": 7,
      "name": "pCylinder55_defaultPolygonShader_0"
    },
    {
      "children": [
        24
      ],
      "name": "pCylinder56"
    },
    {
      "mesh": 8,
      "name": "pCylinder56_defaultPolygonShader_0"
    },
    {
      "children": [
        26
      ],
      "name": "pCylinder58"
    },
    {
      "mesh": 9,
      "name": "pCylinder58_defaultPolygonShader_0"
    }
  ],
  "samplers": [
    {
      "magFilter": 9729,
      "minFilter": 9987,
      "wrapS": 10497,
      "wrapT": 10497
    }
  ],
  "scene": 0,
  "scenes": [
    {
      "name": "Sketchfab_Scene",
      "nodes": [
        0
      ]
    }
  ],
  "textures": [
    {
      "sampler": 0,
      "source": 0
    },
    {
      "sampler": 0,
      "source": 1
    }
  ]
}
